<svg width="20" height="20" viewBox="0 0 20 20" fill="none" xmlns="http://www.w3.org/2000/svg">
<path d="M17.1538 7H8.84615C7.82655 7 7 7.82655 7 8.84615V17.1538C7 18.1734 7.82655 19 8.84615 19H17.1538C18.1734 19 19 18.1734 19 17.1538V8.84615C19 7.82655 18.1734 7 17.1538 7Z" fill="#575756"/>
<path d="M4.16797 12.5003H3.33464C2.89261 12.5003 2.46868 12.3247 2.15612 12.0122C1.84356 11.6996 1.66797 11.2757 1.66797 10.8337V3.33366C1.66797 2.89163 1.84356 2.46771 2.15612 2.15515C2.46868 1.84259 2.89261 1.66699 3.33464 1.66699H10.8346C11.2767 1.66699 11.7006 1.84259 12.0131 2.15515C12.3257 2.46771 12.5013 2.89163 12.5013 3.33366V4.16699" stroke="#575756" stroke-width="1.5" stroke-linecap="round" stroke-linejoin="round"/>
</svg>
