<svg width="20" height="20" viewBox="0 0 20 20" fill="none" xmlns="http://www.w3.org/2000/svg">
<g clip-path="url(#clip0_53908_8950)">
<path fill-rule="evenodd" clip-rule="evenodd" d="M19.9102 11.854C20.2901 13.3466 19.4572 14.9214 17.6693 15.8961H8.28773L15.7633 8.42052C16.6794 8.47697 17.5598 8.80833 18.2876 9.37453C19.0889 9.99782 19.6598 10.8702 19.9102 11.854ZM13.5006 6.44058L4.04509 15.8961H2.32697C2.22292 15.741 2.12039 15.589 2.01987 15.4401C1.17915 14.1942 0.479842 13.1579 0.214475 12.2072C-0.0826172 11.1429 -0.134555 10.025 0.0625667 8.93768C0.259688 7.85035 0.70074 6.82186 1.35256 5.92953C2.00439 5.0372 2.85002 4.30424 3.82588 3.78577C4.80175 3.2673 5.88246 2.9768 6.98676 2.93611C8.09105 2.89542 9.19021 3.10561 10.2016 3.55086C11.213 3.99612 12.1102 4.66486 12.826 5.5068C13.0758 5.80069 13.3012 6.11301 13.5006 6.44058Z" fill="#575756"/>
<path d="M17 5L6 16" stroke="#575756" stroke-width="1.5" stroke-linecap="round" stroke-linejoin="round"/>
</g>
<defs>
<clipPath id="clip0_53908_8950">
<rect width="20" height="20" fill="white"/>
</clipPath>
</defs>
</svg>
