<svg width="20" height="20" viewBox="0 0 20 20" fill="none" xmlns="http://www.w3.org/2000/svg">
<path d="M2.5 5H4.16667H17.5" stroke="#575756" stroke-width="1.5" stroke-linecap="round" stroke-linejoin="round"/>
<path fill-rule="evenodd" clip-rule="evenodd" d="M16.0645 5.13281V17.2666C16.0645 17.7263 15.8818 18.1672 15.5568 18.4923C15.2317 18.8174 14.7908 19 14.3311 19H5.66406C5.20434 19 4.76344 18.8174 4.43836 18.4923C4.11329 18.1672 3.93066 17.7263 3.93066 17.2666V5.13281H6.53076V3.39941C6.53076 2.93969 6.71339 2.49879 7.03846 2.17372C7.36354 1.84864 7.80443 1.66602 8.26416 1.66602H11.731C12.1907 1.66602 12.6316 1.84864 12.9567 2.17372C13.2817 2.49879 13.4644 2.93969 13.4644 3.39941V5.13281H16.0645ZM8.26958 8.71631C8.68379 8.71631 9.01958 9.0521 9.01958 9.46631V14.6665C9.01958 15.0807 8.68379 15.4165 8.26958 15.4165C7.85536 15.4165 7.51958 15.0807 7.51958 14.6665V9.46631C7.51958 9.0521 7.85536 8.71631 8.26958 8.71631ZM12.481 9.46631C12.481 9.0521 12.1452 8.71631 11.731 8.71631C11.3167 8.71631 10.981 9.0521 10.981 9.46631V14.6665C10.981 15.0807 11.3167 15.4165 11.731 15.4165C12.1452 15.4165 12.481 15.0807 12.481 14.6665V9.46631Z" fill="#575756"/>
</svg>
