<svg width="20" height="20" viewBox="0 0 20 20" fill="none" xmlns="http://www.w3.org/2000/svg">
<path fill-rule="evenodd" clip-rule="evenodd" d="M4.59977 1H15.3996C16.3937 1 17.1995 1.80587 17.1995 2.79997V17.1997C17.1995 18.1938 16.3937 18.9997 15.3996 18.9997H4.59977C3.60568 18.9997 2.7998 18.1938 2.7998 17.1997V2.79997C2.7998 1.80587 3.60568 1 4.59977 1ZM10 14.3999C9.44774 14.3999 9.00003 14.8476 9.00003 15.3999C9.00003 15.9522 9.44774 16.3999 10 16.3999H10.0084C10.5606 16.3999 11.0084 15.9522 11.0084 15.3999C11.0084 14.8476 10.5606 14.3999 10.0084 14.3999H10Z" fill="#575756"/>
</svg>
