<svg width="20" height="20" viewBox="0 0 20 20" fill="none" xmlns="http://www.w3.org/2000/svg">
<path d="M15.4444 9H4.55556C3.69645 9 3 9.73262 3 10.6364V16.3636C3 17.2674 3.69645 18 4.55556 18H15.4444C16.3036 18 17 17.2674 17 16.3636V10.6364C17 9.73262 16.3036 9 15.4444 9Z" fill="#575756"/>
<path d="M5.8335 9.1665V5.83317C5.8335 4.7281 6.27248 3.66829 7.05388 2.88689C7.83529 2.10549 8.89509 1.6665 10.0002 1.6665C11.1052 1.6665 12.165 2.10549 12.9464 2.88689C13.7278 3.66829 14.1668 4.7281 14.1668 5.83317V9.1665" stroke="#575756" stroke-width="1.5" stroke-linecap="round" stroke-linejoin="round"/>
</svg>
