<svg width="20" height="20" viewBox="0 0 20 20" fill="none" xmlns="http://www.w3.org/2000/svg">
<path fill-rule="evenodd" clip-rule="evenodd" d="M14.9974 9.33464C14.9974 13.0165 12.0126 16.0013 8.33073 16.0013C4.64883 16.0013 1.66406 13.0165 1.66406 9.33464C1.66406 5.65274 4.64883 2.66797 8.33073 2.66797C12.0126 2.66797 14.9974 5.65274 14.9974 9.33464ZM8.5 5.25C8.08579 5.25 7.75 5.58579 7.75 6C7.75 6.41421 8.08579 6.75 8.5 6.75C10.0188 6.75 11.25 7.98122 11.25 9.5C11.25 9.91421 11.5858 10.25 12 10.25C12.4142 10.25 12.75 9.91421 12.75 9.5C12.75 7.15279 10.8472 5.25 8.5 5.25Z" fill="#575756"/>
<path fill-rule="evenodd" clip-rule="evenodd" d="M12.5087 13.5126C12.8016 13.2197 13.2765 13.2197 13.5694 13.5126L17.1944 17.1376C17.4873 17.4305 17.4873 17.9054 17.1944 18.1983C16.9015 18.4912 16.4266 18.4912 16.1337 18.1983L12.5087 14.5733C12.2158 14.2804 12.2158 13.8055 12.5087 13.5126Z" fill="#575756"/>
</svg>
