<svg width="20" height="20" viewBox="0 0 20 20" fill="none" xmlns="http://www.w3.org/2000/svg">
<path d="M2.5 5H4.16667H17.5" stroke="#575756" stroke-width="1.5" stroke-linecap="round" stroke-linejoin="round"/>
<path fill-rule="evenodd" clip-rule="evenodd" d="M16.0645 17.2666V5.13281H13.4644V3.39941C13.4644 2.93969 13.2817 2.49879 12.9567 2.17372C12.6316 1.84864 12.1907 1.66602 11.731 1.66602H8.26416C7.80443 1.66602 7.36354 1.84864 7.03846 2.17372C6.71339 2.49879 6.53076 2.93969 6.53076 3.39941V5.13281H3.93066V17.2666C3.93066 17.7263 4.11329 18.1672 4.43836 18.4923C4.76344 18.8174 5.20434 19 5.66406 19H14.3311C14.7908 19 15.2317 18.8174 15.5568 18.4923C15.8818 18.1672 16.0645 17.7263 16.0645 17.2666ZM8.26953 8.71631C8.68374 8.71631 9.01953 9.05209 9.01953 9.46631V14.6665C9.01953 15.0807 8.68374 15.4165 8.26953 15.4165C7.85532 15.4165 7.51953 15.0807 7.51953 14.6665V9.46631C7.51953 9.05209 7.85532 8.71631 8.26953 8.71631ZM11.7314 8.71631C12.1457 8.71631 12.4814 9.05209 12.4814 9.46631V14.6665C12.4814 15.0807 12.1457 15.4165 11.7314 15.4165C11.3172 15.4165 10.9814 15.0807 10.9814 14.6665V9.46631C10.9814 9.05209 11.3172 8.71631 11.7314 8.71631Z" fill="#575756"/>
</svg>
