<svg width="20" height="20" viewBox="0 0 20 20" fill="none" xmlns="http://www.w3.org/2000/svg">
<path d="M17.1538 7H8.84615C7.82655 7 7 7.82655 7 8.84615V17.1538C7 18.1734 7.82655 19 8.84615 19H17.1538C18.1734 19 19 18.1734 19 17.1538V8.84615C19 7.82655 18.1734 7 17.1538 7Z" fill="#575756"/>
<path fill-rule="evenodd" clip-rule="evenodd" d="M3.33464 2.41699C3.09152 2.41699 2.85836 2.51357 2.68645 2.68548C2.51455 2.85739 2.41797 3.09054 2.41797 3.33366V10.8337C2.41797 11.0768 2.51455 11.3099 2.68645 11.4818C2.85836 11.6537 3.09152 11.7503 3.33464 11.7503H4.16797C4.58218 11.7503 4.91797 12.0861 4.91797 12.5003C4.91797 12.9145 4.58218 13.2503 4.16797 13.2503H3.33464C2.6937 13.2503 2.07901 12.9957 1.62579 12.5425C1.17258 12.0893 0.917969 11.4746 0.917969 10.8337V3.33366C0.917969 2.69272 1.17258 2.07803 1.62579 1.62482C2.07901 1.1716 2.6937 0.916992 3.33464 0.916992H10.8346C11.4756 0.916992 12.0903 1.1716 12.5435 1.62482C12.9967 2.07803 13.2513 2.69272 13.2513 3.33366V4.16699C13.2513 4.58121 12.9155 4.91699 12.5013 4.91699C12.0871 4.91699 11.7513 4.58121 11.7513 4.16699V3.33366C11.7513 3.09054 11.6547 2.85739 11.4828 2.68548C11.3109 2.51357 11.0778 2.41699 10.8346 2.41699H3.33464Z" fill="#575756"/>
</svg>
