<svg width="20" height="20" viewBox="0 0 20 20" fill="none" xmlns="http://www.w3.org/2000/svg">
<path d="M16.75 11.3298C15.78 11.3298 15 12.1098 15 13.0798V15.8798C15 15.8798 14.99 15.9398 14.97 15.9598C14.95 15.9798 14.92 15.9898 14.89 15.9898H4.62C4.62 15.9898 4.56 15.9798 4.54 15.9598C4.52 15.9398 4.51 15.9098 4.51 15.8798V5.61977C4.51 5.61977 4.52 5.55977 4.54 5.53977C4.56 5.51977 4.59 5.50977 4.62 5.50977H7.42C8.39 5.50977 9.17 4.72977 9.17 3.75977C9.17 2.78977 8.39 2.00977 7.42 2.00977H4.62C3.66 2.00977 2.74 2.38977 2.06 3.06977C1.38 3.74977 1 4.66977 1 5.62977V15.8998C1 16.8598 1.38 17.7798 2.06 18.4598C2.74 19.1398 3.66 19.5198 4.62 19.5198H14.89C15.85 19.5198 16.77 19.1398 17.45 18.4598C18.13 17.7798 18.51 16.8598 18.51 15.8998V13.0998C18.51 12.1298 17.73 11.3498 16.76 11.3498L16.75 11.3298Z" fill="#575756"/>
<path d="M19.5 1.69977C19.5 1.63977 19.49 1.57977 19.48 1.51977C19.48 1.46977 19.47 1.40977 19.46 1.35977C19.45 1.30977 19.43 1.24977 19.41 1.19977C19.39 1.14977 19.38 1.08977 19.35 1.03977C19.33 0.989766 19.3 0.939766 19.27 0.899766C19.24 0.849766 19.21 0.799766 19.18 0.749766C19.15 0.709766 19.11 0.669766 19.08 0.629766C19.04 0.579766 19 0.529766 18.95 0.489766C18.94 0.479766 18.93 0.469766 18.92 0.459766C18.89 0.429766 18.86 0.419766 18.83 0.389766C18.78 0.349766 18.73 0.309766 18.68 0.279766C18.63 0.249766 18.59 0.229766 18.54 0.199766C18.49 0.169766 18.44 0.149766 18.38 0.129766C18.33 0.109766 18.27 0.0897656 18.22 0.0797656C18.17 0.0697656 18.11 0.0497656 18.06 0.0397656C18 0.0297656 17.94 0.0297656 17.87 0.0197656C17.83 0.0197656 17.8 0.00976562 17.76 0.00976562H11.76C10.79 0.00976562 10.01 0.789766 10.01 1.75977C10.01 2.72977 10.79 3.50977 11.76 3.50977H13.83L7.46001 10.5898C6.81001 11.3098 6.87001 12.4198 7.59001 13.0598C7.92001 13.3598 8.34001 13.5098 8.76001 13.5098C9.24001 13.5098 9.72001 13.3098 10.06 12.9298L16.01 6.31977V7.75977C16.01 8.72977 16.79 9.50977 17.76 9.50977C18.73 9.50977 19.51 8.72977 19.51 7.75977V1.74977C19.51 1.74977 19.51 1.71977 19.51 1.69977H19.5Z" fill="#575756"/>
</svg>
