<svg width="20" height="20" viewBox="0 0 20 20" fill="none" xmlns="http://www.w3.org/2000/svg">
<g clip-path="url(#clip0_53908_9090)">
<path fill-rule="evenodd" clip-rule="evenodd" d="M20 10C20 15.5228 15.5228 20 10 20C4.47715 20 0 15.5228 0 10C0 4.47715 4.47715 0 10 0C15.5228 0 20 4.47715 20 10ZM10.75 5C10.75 4.58579 10.4142 4.25 10 4.25C9.58579 4.25 9.25 4.58579 9.25 5V10C9.25 10.2841 9.4105 10.5438 9.66459 10.6708L12.9979 12.3375C13.3684 12.5227 13.8189 12.3726 14.0042 12.0021C14.1894 11.6316 14.0392 11.1811 13.6687 10.9958L10.75 9.53647V5Z" fill="#575756"/>
</g>
<defs>
<clipPath id="clip0_53908_9090">
<rect width="20" height="20" fill="white"/>
</clipPath>
</defs>
</svg>
