<svg width="20" height="20" viewBox="0 0 20 20" fill="none" xmlns="http://www.w3.org/2000/svg">
<g clip-path="url(#clip0_53908_9265)">
<path fill-rule="evenodd" clip-rule="evenodd" d="M20 10C20 15.5228 15.5228 20 10 20C4.47715 20 0 15.5228 0 10C0 4.47715 4.47715 0 10 0C15.5228 0 20 4.47715 20 10ZM11.1329 4.5278C11.5327 4.1777 12.0932 3.96764 12.6945 3.96764C13.2958 3.96764 13.8563 4.1777 14.2561 4.5278C14.6528 4.87522 14.8535 5.32421 14.8535 5.76852C14.8535 6.21283 14.6528 6.66183 14.2561 7.00924L7.63031 12.8055L7.63001 12.8058C7.50053 12.9192 7.30662 12.9963 7.08755 12.9963C6.86848 12.9963 6.67458 12.9192 6.5451 12.8058C6.41868 12.6951 6.3698 12.5671 6.3698 12.4576C6.3698 12.3481 6.4186 12.2203 6.54478 12.1096L6.5451 12.1093L12.6595 6.76091C12.9603 6.49784 12.9908 6.04076 12.7277 5.74001C12.4646 5.43925 12.0076 5.40871 11.7068 5.67179L5.59209 11.0205L5.59177 11.0208C5.17761 11.3835 4.9228 11.8976 4.9228 12.4576C4.9228 13.0175 5.17761 13.5317 5.59177 13.8944C6.00286 14.2544 6.54214 14.4433 7.08755 14.4433C7.63297 14.4433 8.17225 14.2544 8.58334 13.8944L15.2091 8.09807L15.2094 8.09781C15.8939 7.4984 16.3005 6.66323 16.3005 5.76852C16.3005 4.87382 15.8939 4.03864 15.2094 3.43923C14.528 2.84251 13.6222 2.52064 12.6945 2.52064C11.7669 2.52064 10.861 2.84251 10.1796 3.43923L3.56073 9.23577C2.606 10.0719 2.0475 11.2281 2.0475 12.4576C2.0475 13.687 2.606 14.8432 3.56073 15.6794C4.5124 16.5128 5.78485 16.9676 7.09476 16.9676C8.40466 16.9676 9.67711 16.5128 10.6288 15.6794L17.2477 9.88282C17.5483 9.61957 17.5785 9.16247 17.3153 8.86187C17.052 8.56127 16.5949 8.531 16.2943 8.79425L9.67546 14.5908C9.0054 15.1776 8.07832 15.5206 7.09476 15.5206C6.1112 15.5206 5.18412 15.1776 4.51406 14.5908C3.84707 14.0067 3.4945 13.2366 3.4945 12.4576C3.4945 11.6785 3.84707 10.9085 4.51406 10.3243L11.1329 4.5278Z" fill="#575756"/>
</g>
<defs>
<clipPath id="clip0_53908_9265">
<rect width="20" height="20" fill="white"/>
</clipPath>
</defs>
</svg>
