<svg width="20" height="20" viewBox="0 0 20 20" fill="none" xmlns="http://www.w3.org/2000/svg">
<g clip-path="url(#clip0_53955_11578)">
<path d="M10 13C11.6569 13 13 11.6569 13 10C13 8.34315 11.6569 7 10 7C8.34315 7 7 8.34315 7 10C7 11.6569 8.34315 13 10 13Z" fill="#575756"/>
<path d="M10 20C11.6569 20 13 18.6569 13 17C13 15.3431 11.6569 14 10 14C8.34315 14 7 15.3431 7 17C7 18.6569 8.34315 20 10 20Z" fill="#575756"/>
<path d="M10 6C11.6569 6 13 4.65685 13 3C13 1.34315 11.6569 3.39263e-08 10 2.18557e-08C8.34315 9.78513e-09 7 1.34315 7 3C7 4.65685 8.34315 6 10 6Z" fill="#575756"/>
</g>
<defs>
<clipPath id="clip0_53955_11578">
<rect width="20" height="20" fill="white"/>
</clipPath>
</defs>
</svg>
