<svg width="20" height="20" viewBox="0 0 20 20" fill="none" xmlns="http://www.w3.org/2000/svg">
<g clip-path="url(#clip0_53955_11107)">
<path fill-rule="evenodd" clip-rule="evenodd" d="M19.9102 11.8545C20.2901 13.3471 19.4572 14.9219 17.6693 15.8966H8.28773L15.7633 8.421C16.6794 8.47746 17.5598 8.80882 18.2876 9.37502C19.0889 9.99831 19.6598 10.8707 19.9102 11.8545ZM13.5006 6.44107L4.04509 15.8966H2.32697C2.22292 15.7414 2.12039 15.5895 2.01987 15.4406C1.17915 14.1947 0.479842 13.1584 0.214475 12.2077C-0.0826172 11.1433 -0.134555 10.0255 0.0625667 8.93816C0.259688 7.85084 0.70074 6.82235 1.35256 5.93002C2.00439 5.03769 2.85002 4.30473 3.82588 3.78626C4.80175 3.26779 5.88246 2.97728 6.98676 2.9366C8.09105 2.89591 9.19021 3.1061 10.2016 3.55135C11.213 3.99661 12.1102 4.66535 12.826 5.50729C13.0758 5.80118 13.3012 6.11349 13.5006 6.44107Z" fill="#575756"/>
<path fill-rule="evenodd" clip-rule="evenodd" d="M17.5303 4.46967C17.8232 4.76256 17.8232 5.23744 17.5303 5.53033L6.53033 16.5303C6.23744 16.8232 5.76256 16.8232 5.46967 16.5303C5.17678 16.2374 5.17678 15.7626 5.46967 15.4697L16.4697 4.46967C16.7626 4.17678 17.2374 4.17678 17.5303 4.46967Z" fill="#575756"/>
</g>
<defs>
<clipPath id="clip0_53955_11107">
<rect width="20" height="20" fill="white"/>
</clipPath>
</defs>
</svg>
