<svg width="20" height="20" viewBox="0 0 20 20" fill="none" xmlns="http://www.w3.org/2000/svg">
<g clip-path="url(#clip0_53955_11597)">
<path fill-rule="evenodd" clip-rule="evenodd" d="M10 20C15.5228 20 20 15.5228 20 10C20 4.47715 15.5228 0 10 0C4.47715 0 0 4.47715 0 10C0 15.5228 4.47715 20 10 20ZM10 9.25C10.4142 9.25 10.75 9.58579 10.75 10V13.3333C10.75 13.7475 10.4142 14.0833 10 14.0833C9.58579 14.0833 9.25 13.7475 9.25 13.3333V10C9.25 9.58579 9.58579 9.25 10 9.25ZM10 5.91699C9.58579 5.91699 9.25 6.25278 9.25 6.66699C9.25 7.08121 9.58579 7.41699 10 7.41699H10.01C10.4242 7.41699 10.76 7.08121 10.76 6.66699C10.76 6.25278 10.4242 5.91699 10.01 5.91699H10Z" fill="#575756"/>
</g>
<defs>
<clipPath id="clip0_53955_11597">
<rect width="20" height="20" fill="white"/>
</clipPath>
</defs>
</svg>
