<svg width="20" height="20" viewBox="0 0 20 20" fill="none" xmlns="http://www.w3.org/2000/svg">
<g clip-path="url(#clip0_53908_9208)">
<path fill-rule="evenodd" clip-rule="evenodd" d="M18.943 3.80006C19.2528 4.11943 19.4728 4.51491 19.5808 4.94653C19.8693 6.54602 20.0094 8.16876 19.9992 9.79403C20.0049 11.395 19.8649 12.9932 19.5808 14.5688C19.4728 15.0004 19.2528 15.3959 18.943 15.7152C18.6332 16.0346 18.2446 16.2666 17.8164 16.3877C16.2521 16.8061 9.99496 16.8061 9.99496 16.8061C9.99496 16.8061 3.73778 16.8061 2.17349 16.3877C1.75406 16.2729 1.37132 16.0519 1.06224 15.7461C0.75317 15.4402 0.528214 15.0597 0.40911 14.6415C0.120596 13.042 -0.0194522 11.4193 -0.00924696 9.79402C-0.0172174 8.1809 0.122822 6.57045 0.409112 4.98291C0.517147 4.55128 0.737174 4.15581 1.04697 3.83643C1.35676 3.51706 1.74535 3.28509 2.17349 3.16396C3.73779 2.74561 9.99496 2.74561 9.99496 2.74561C9.99496 2.74561 16.2521 2.74561 17.8164 3.12759C18.2446 3.24872 18.6332 3.48068 18.943 3.80006ZM13.1833 9.79303L7.95381 12.767L7.95381 6.81905L13.1833 9.79303Z" fill="#575756"/>
</g>
<defs>
<clipPath id="clip0_53908_9208">
<rect width="20" height="20" fill="white"/>
</clipPath>
</defs>
</svg>
