<svg width="20" height="20" viewBox="0 0 20 20" fill="none" xmlns="http://www.w3.org/2000/svg">
<path d="M15.75 7C14.78 7 14 7.78 14 8.75V15.95C14 15.95 14 15.98 14 16H5.5C5.5 16 5.5 15.97 5.5 15.95V8.75C5.5 7.78 4.72 7 3.75 7C2.78 7 2 7.78 2 8.75V15.95C2 16.84 2.3 17.69 2.84 18.34C3.45 19.08 4.33 19.5 5.25 19.5H14.25C15.17 19.5 16.04 19.08 16.66 18.34C17.2 17.69 17.5 16.84 17.5 15.95V8.75C17.5 7.78 16.72 7 15.75 7Z" fill="#575756"/>
<path d="M7.99027 5.98977H8.00027V12.7498C8.00027 13.7198 8.78027 14.4998 9.75027 14.4998C10.7203 14.4998 11.5003 13.7198 11.5003 12.7498V5.97977H11.5103C11.8503 6.32977 12.3003 6.49977 12.7503 6.49977C13.2003 6.49977 13.6503 6.32977 13.9903 5.98977C14.6703 5.30977 14.6703 4.19977 13.9903 3.51977L11.0003 0.529766C10.9103 0.439766 10.8203 0.359766 10.7203 0.299766C10.7003 0.289766 10.6703 0.279766 10.6503 0.259766C10.5703 0.209766 10.5003 0.169766 10.4203 0.139766C10.3803 0.119766 10.3303 0.109766 10.2903 0.0997656C10.2303 0.0797656 10.1603 0.0597656 10.1003 0.0397656C10.0003 0.0197656 9.90027 0.00976562 9.80027 0.00976562C9.79027 0.00976562 9.78027 0.00976562 9.76027 0.00976562C9.64027 0.00976562 9.53027 0.0197656 9.42027 0.0397656C9.38027 0.0397656 9.35027 0.0597656 9.32027 0.0697656C9.24027 0.0897656 9.17027 0.109766 9.10027 0.139766C9.07027 0.149766 9.03027 0.179766 9.00027 0.189766C8.93027 0.219766 8.86027 0.259766 8.80027 0.299766C8.77027 0.319766 8.75027 0.339766 8.73027 0.359766C8.67027 0.409766 8.60027 0.459766 8.54027 0.519766L5.54027 3.51977C4.86027 4.19977 4.86027 5.30977 5.54027 5.98977C6.22027 6.66977 7.33027 6.66977 8.01027 5.98977H7.99027Z" fill="#575756"/>
</svg>
