<svg width="24" height="24" viewBox="0 0 24 24" fill="none" xmlns="http://www.w3.org/2000/svg">
<path d="M11 12.4503C11.3236 12.894 11.7365 13.2612 12.2106 13.5269C12.6847 13.7926 13.209 13.9505 13.7479 13.9901C14.2868 14.0297 14.8277 13.95 15.3339 13.7563C15.8401 13.5626 16.2998 13.2596 16.6817 12.8677L18.9424 10.549C19.6287 9.82019 20.0084 8.84404 19.9999 7.83081C19.9913 6.81758 19.595 5.84834 18.8965 5.13185C18.1979 4.41536 17.2529 4.00895 16.265 4.00015C15.2771 3.99134 14.3254 4.38085 13.6148 5.08478L12.3187 6.4064" stroke="#575756" stroke-width="3" stroke-linecap="round" stroke-linejoin="round"/>
<path d="M13 11.5497C12.6764 11.106 12.2635 10.7388 11.7894 10.4731C11.3153 10.2074 10.791 10.0495 10.2521 10.0099C9.7132 9.97029 9.17231 10.05 8.66611 10.2437C8.15991 10.4374 7.70024 10.7404 7.31828 11.1323L5.05764 13.451C4.37132 14.1798 3.99156 15.156 4.00014 16.1692C4.00873 17.1824 4.40497 18.1517 5.10354 18.8681C5.80211 19.5846 6.7471 19.991 7.73498 19.9999C8.72287 20.0087 9.6746 19.6192 10.3852 18.9152L11.6738 17.5936" stroke="#575756" stroke-width="3" stroke-linecap="round" stroke-linejoin="round"/>
</svg>
