<svg width="20" height="20" viewBox="0 0 20 20" fill="none" xmlns="http://www.w3.org/2000/svg">
<path fill-rule="evenodd" clip-rule="evenodd" d="M9.05227 3.36842C9.05227 4.67646 7.99189 5.73684 6.68385 5.73684C5.37581 5.73684 4.31543 4.67646 4.31543 3.36842C4.31543 2.06038 5.37581 1 6.68385 1C7.99189 1 9.05227 2.06038 9.05227 3.36842ZM9.05227 10C9.05227 11.308 7.99189 12.3684 6.68385 12.3684C5.37581 12.3684 4.31543 11.308 4.31543 10C4.31543 8.69196 5.37581 7.63158 6.68385 7.63158C7.99189 7.63158 9.05227 8.69196 9.05227 10ZM6.68385 19C7.99189 19 9.05227 17.9396 9.05227 16.6316C9.05227 15.3235 7.99189 14.2632 6.68385 14.2632C5.37581 14.2632 4.31543 15.3235 4.31543 16.6316C4.31543 17.9396 5.37581 19 6.68385 19ZM15.6841 9.99977C15.6841 11.3078 14.6237 12.3682 13.3157 12.3682C12.0076 12.3682 10.9473 11.3078 10.9473 9.99977C10.9473 8.69173 12.0076 7.63135 13.3157 7.63135C14.6237 7.63135 15.6841 8.69173 15.6841 9.99977ZM13.3157 5.73684C14.6237 5.73684 15.6841 4.67646 15.6841 3.36842C15.6841 2.06038 14.6237 1 13.3157 1C12.0076 1 10.9473 2.06038 10.9473 3.36842C10.9473 4.67646 12.0076 5.73684 13.3157 5.73684ZM15.6841 16.6316C15.6841 17.9396 14.6237 19 13.3157 19C12.0076 19 10.9473 17.9396 10.9473 16.6316C10.9473 15.3236 12.0076 14.2632 13.3157 14.2632C14.6237 14.2632 15.6841 15.3236 15.6841 16.6316Z" fill="#575756"/>
</svg>
