<svg width="20" height="20" viewBox="0 0 20 20" fill="none" xmlns="http://www.w3.org/2000/svg">
<g clip-path="url(#clip0_53955_11318)">
<path fill-rule="evenodd" clip-rule="evenodd" d="M10 20C15.5228 20 20 15.5228 20 10C20 4.47715 15.5228 0 10 0C4.47715 0 0 4.47715 0 10C0 15.5228 4.47715 20 10 20ZM13.0303 6.96967C13.3232 7.26256 13.3232 7.73744 13.0303 8.03033L11.0607 10L13.0303 11.9697C13.3232 12.2626 13.3232 12.7374 13.0303 13.0303C12.7374 13.3232 12.2626 13.3232 11.9697 13.0303L10 11.0607L8.03033 13.0303C7.73744 13.3232 7.26256 13.3232 6.96967 13.0303C6.67678 12.7374 6.67678 12.2626 6.96967 11.9697L8.93934 10L6.96967 8.03033C6.67678 7.73744 6.67678 7.26256 6.96967 6.96967C7.26256 6.67678 7.73744 6.67678 8.03033 6.96967L10 8.93934L11.9697 6.96967C12.2626 6.67678 12.7374 6.67678 13.0303 6.96967Z" fill="#575756"/>
</g>
<defs>
<clipPath id="clip0_53955_11318">
<rect width="20" height="20" fill="white"/>
</clipPath>
</defs>
</svg>
