<svg width="20" height="20" viewBox="0 0 20 20" fill="none" xmlns="http://www.w3.org/2000/svg">
<path fill-rule="evenodd" clip-rule="evenodd" d="M9.64319 1.00684C4.95622 1.18952 1.18936 4.95647 1.00684 9.64349C1.13366 9.4091 1.38169 9.2499 1.6669 9.2499H5.95236C6.17889 6.24569 7.40513 3.39541 9.44647 1.16058C9.5036 1.09805 9.57023 1.04633 9.64319 1.00684ZM5.95239 10.7499H1.6669C1.38169 10.7499 1.13366 10.5907 1.00684 10.3563C1.18938 15.0435 4.95656 18.8106 9.64384 18.993C9.57063 18.9534 9.50377 18.9016 9.44647 18.8389C7.4052 16.6041 6.17897 13.754 5.95239 10.7499ZM10.3567 18.993C15.0432 18.8103 18.8098 15.044 18.9929 10.3576C18.8659 10.5913 18.6183 10.7499 18.3336 10.7499H14.0481C13.8215 13.754 12.5953 16.6041 10.554 18.8389C10.4967 18.9016 10.4299 18.9534 10.3567 18.993ZM12.5433 10.7499C12.3441 13.0953 11.4592 15.3303 10.0002 17.1759C8.54127 15.3303 7.65636 13.0953 7.45718 10.7499H12.5433ZM12.5433 9.2499H7.45716C7.65628 6.90438 8.5412 4.66921 10.0002 2.8236C11.4593 4.66921 12.3442 6.90438 12.5433 9.2499ZM14.0481 9.2499H18.3336C18.6183 9.2499 18.8659 9.40851 18.9929 9.64219C18.8098 4.95601 15.0435 1.18988 10.3573 1.00686C10.4303 1.04635 10.4969 1.09806 10.554 1.16058C12.5953 3.39541 13.8216 6.24569 14.0481 9.2499Z" fill="#575756"/>
</svg>
