<svg width="20" height="20" viewBox="0 0 20 20" fill="none" xmlns="http://www.w3.org/2000/svg">
<path d="M15 6.66699C15 5.34091 14.4732 4.06914 13.5355 3.13146C12.5979 2.19378 11.3261 1.66699 10 1.66699C8.67392 1.66699 7.40215 2.19378 6.46447 3.13146C5.52678 4.06914 5 5.34091 5 6.66699C5 12.5003 2.5 14.167 2.5 14.167H17.5C17.5 14.167 15 12.5003 15 6.66699Z" fill="#575756"/>
<path d="M13 16C12.6951 16.6083 12.2575 17.1132 11.731 17.4642C11.2045 17.8153 10.6076 18 10 18C9.39241 18 8.79547 17.8153 8.26897 17.4642C7.74247 17.1132 7.30487 16.6083 7 16" fill="#575756"/>
</svg>
