<svg width="20" height="20" viewBox="0 0 20 20" fill="none" xmlns="http://www.w3.org/2000/svg">
<path d="M14 18V16C14 14.9391 13.6067 13.9217 12.9065 13.1716C12.2064 12.4214 11.2568 12 10.2667 12H3.73333C2.74319 12 1.7936 12.4214 1.09347 13.1716C0.393332 13.9217 0 14.9391 0 16V18" fill="#575756"/>
<path d="M7.08333 9.16667C8.92428 9.16667 10.4167 7.67428 10.4167 5.83333C10.4167 3.99238 8.92428 2.5 7.08333 2.5C5.24238 2.5 3.75 3.99238 3.75 5.83333C3.75 7.67428 5.24238 9.16667 7.08333 9.16667Z" fill="#575756"/>
<path d="M16.6641 6.66602V11.666" stroke="#575756" stroke-width="1.5" stroke-linecap="round" stroke-linejoin="round"/>
<path d="M19.1641 9.16602H14.1641" stroke="#575756" stroke-width="1.5" stroke-linecap="round" stroke-linejoin="round"/>
</svg>
