<svg width="20" height="20" viewBox="0 0 20 20" fill="none" xmlns="http://www.w3.org/2000/svg">
<path fill-rule="evenodd" clip-rule="evenodd" d="M8.96316 4.87352C9.7343 4.68687 10.536 4.71193 11.2974 4.94752C12.0596 5.18337 12.7666 5.62589 13.3468 6.24679C13.3592 6.26015 13.3719 6.27331 13.3848 6.28627L14.3436 7.25H14C13.0335 7.25 12.25 8.0335 12.25 9C12.25 9.9665 13.0335 10.75 14 10.75H18C18.9665 10.75 19.75 9.9665 19.75 9V8.44401V4C19.75 3.0335 18.9665 2.25 18 2.25C17.0335 2.25 16.25 3.0335 16.25 4V4.2037L15.8843 3.83613C14.9045 2.79462 13.6849 2.02254 12.332 1.60392C10.9691 1.18223 9.52549 1.13635 8.1398 1.47174C6.7548 1.80696 5.48399 2.50922 4.44178 3.50014C3.74134 4.16611 3.7134 5.27379 4.37936 5.97423C5.04532 6.67467 6.15301 6.70261 6.85345 6.03665C7.46408 5.45607 8.19133 5.06033 8.96316 4.87352ZM0.25 11.556L0.25 11C0.25 10.0335 1.0335 9.25 2 9.25H6C6.9665 9.25 7.75 10.0335 7.75 11C7.75 11.9665 6.9665 12.75 6 12.75H5.6564L6.61517 13.7137C6.62807 13.7267 6.64076 13.7399 6.65324 13.7532C7.23338 14.3741 7.94038 14.8166 8.7026 15.0525C9.46402 15.2881 10.2657 15.3131 11.0368 15.1265C11.8087 14.9397 12.5359 14.5439 13.1466 13.9634C13.847 13.2974 14.9547 13.3253 15.6206 14.0258C16.2866 14.7262 16.2587 15.8339 15.5582 16.4999C14.516 17.4908 13.2452 18.193 11.8602 18.5283C10.4745 18.8637 9.03089 18.8178 7.66803 18.3961C6.31513 17.9775 5.09546 17.2054 4.11568 16.1639L3.75 15.7963V16C3.75 16.9665 2.9665 17.75 2 17.75C1.0335 17.75 0.25 16.9665 0.25 16L0.25 11.556Z" fill="#575756"/>
</svg>
