<svg width="20" height="20" viewBox="0 0 20 20" fill="none" xmlns="http://www.w3.org/2000/svg">
<g clip-path="url(#clip0_53908_9493)">
<path fill-rule="evenodd" clip-rule="evenodd" d="M9.99935 2.72705C3.63551 2.72705 -0.000976562 10 -0.000976562 10C-0.000976562 10 3.63551 17.273 9.99935 17.273C16.3632 17.273 19.9997 10 19.9997 10C19.9997 10 16.3632 2.72705 9.99935 2.72705ZM8.02234 9.99984C8.02234 8.90777 8.90764 8.02248 9.9997 8.02248C11.0918 8.02248 11.9771 8.90777 11.9771 9.99984C11.9771 11.0919 11.0918 11.9772 9.9997 11.9772C8.90764 11.9772 8.02234 11.0919 8.02234 9.99984ZM9.9997 6.52248C8.07921 6.52248 6.52234 8.07934 6.52234 9.99984C6.52234 11.9203 8.07921 13.4772 9.9997 13.4772C11.9202 13.4772 13.4771 11.9203 13.4771 9.99984C13.4771 8.07934 11.9202 6.52248 9.9997 6.52248Z" fill="#575756"/>
</g>
<defs>
<clipPath id="clip0_53908_9493">
<rect width="20" height="20" fill="white"/>
</clipPath>
</defs>
</svg>
