<svg width="20" height="20" viewBox="0 0 20 20" fill="none" xmlns="http://www.w3.org/2000/svg">
<path fill-rule="evenodd" clip-rule="evenodd" d="M18 16.3333L18 5L16 3L4.66667 3C4.22464 3 3.80072 3.1756 3.48816 3.48816C3.17559 3.80072 3 4.22464 3 4.66667L3 16.3333C3 16.7754 3.17559 17.1993 3.48815 17.5118C3.80071 17.8244 4.22464 18 4.66666 18L16.3333 18C16.7754 18 17.1993 17.8244 17.5118 17.5118C17.8244 17.1993 18 16.7754 18 16.3333ZM16.0127 8.10659C16.6238 7.54731 16.6659 6.5985 16.1066 5.98735C15.5473 5.3762 14.5985 5.33414 13.9873 5.89341L8.4558 10.9554L7.02595 9.61483C6.42161 9.04821 5.47235 9.07879 4.90573 9.68314C4.33911 10.2875 4.3697 11.2367 4.97404 11.8034L7.41748 14.0943C7.98939 14.6305 8.87774 14.6358 9.45609 14.1066L16.0127 8.10659Z" fill="#575756"/>
<path d="M18 5L18.75 5C18.75 4.80109 18.671 4.61032 18.5303 4.46967L18 5ZM18 16.3333L18.75 16.3333V16.3333L18 16.3333ZM16 3L16.5303 2.46967C16.3897 2.32902 16.1989 2.25 16 2.25L16 3ZM4.66667 3L4.66667 3.75L4.66667 3.75L4.66667 3ZM3.48816 3.48816L2.95783 2.95783L2.95783 2.95783L3.48816 3.48816ZM3 4.66667L2.25 4.66667L3 4.66667ZM3 16.3333L3.75 16.3333L3 16.3333ZM3.48815 17.5118L4.01848 16.9815L4.01848 16.9815L3.48815 17.5118ZM4.66666 18L4.66666 18.75L4.66666 18ZM16.3333 18L16.3333 17.25L16.3333 18ZM17.5118 17.5118L16.9815 16.9815L16.9815 16.9815L17.5118 17.5118ZM16.0127 8.10659L16.519 8.65988L16.519 8.65988L16.0127 8.10659ZM13.9873 5.89341L14.4937 6.44671L14.4937 6.44671L13.9873 5.89341ZM8.4558 10.9554L7.94282 11.5025C8.22877 11.7706 8.67295 11.7733 8.96212 11.5087L8.4558 10.9554ZM7.02595 9.61483L6.51298 10.162L6.51298 10.162L7.02595 9.61483ZM4.90573 9.68314L5.45287 10.1961L5.45287 10.1961L4.90573 9.68314ZM4.97404 11.8034L4.46107 12.3505L4.46107 12.3505L4.97404 11.8034ZM7.41748 14.0943L6.90451 14.6414L6.90451 14.6414L7.41748 14.0943ZM9.45609 14.1066L8.94976 13.5533L8.94976 13.5533L9.45609 14.1066ZM16 2.25C15.5858 2.25 15.25 2.58579 15.25 3C15.25 3.41422 15.5858 3.75 16 3.75L16 2.25ZM17.25 5C17.25 5.41422 17.5858 5.75 18 5.75C18.4142 5.75 18.75 5.41422 18.75 5L17.25 5ZM17.25 5L17.25 16.3333L18.75 16.3333L18.75 5L17.25 5ZM15.4697 3.53033L17.4697 5.53033L18.5303 4.46967L16.5303 2.46967L15.4697 3.53033ZM4.66667 3.75L16 3.75L16 2.25L4.66667 2.25L4.66667 3.75ZM4.01849 4.01849C4.19039 3.84658 4.42355 3.75 4.66667 3.75L4.66667 2.25C4.02573 2.25 3.41104 2.50461 2.95783 2.95783L4.01849 4.01849ZM3.75 4.66667C3.75 4.42355 3.84658 4.1904 4.01849 4.01849L2.95783 2.95783C2.50461 3.41104 2.25 4.02573 2.25 4.66667L3.75 4.66667ZM3.75 16.3333L3.75 4.66667L2.25 4.66667L2.25 16.3333L3.75 16.3333ZM4.01848 16.9815C3.84657 16.8096 3.75 16.5764 3.75 16.3333L2.25 16.3333C2.25 16.9743 2.50461 17.589 2.95782 18.0422L4.01848 16.9815ZM4.66666 17.25C4.42355 17.25 4.19039 17.1534 4.01848 16.9815L2.95782 18.0422C3.41104 18.4954 4.02572 18.75 4.66666 18.75L4.66666 17.25ZM16.3333 17.25L4.66666 17.25L4.66666 18.75L16.3333 18.75L16.3333 17.25ZM16.9815 16.9815C16.8096 17.1534 16.5764 17.25 16.3333 17.25L16.3333 18.75C16.9743 18.75 17.589 18.4954 18.0422 18.0422L16.9815 16.9815ZM17.25 16.3333C17.25 16.5765 17.1534 16.8096 16.9815 16.9815L18.0422 18.0422C18.4954 17.589 18.75 16.9743 18.75 16.3333L17.25 16.3333ZM15.5533 6.49367C15.8329 6.79925 15.8119 7.27366 15.5063 7.55329L16.519 8.65988C17.4357 7.82097 17.4988 6.39775 16.6599 5.48102L15.5533 6.49367ZM14.4937 6.44671C14.7992 6.16707 15.2737 6.1881 15.5533 6.49367L16.6599 5.48102C15.821 4.56429 14.3977 4.50121 13.481 5.34012L14.4937 6.44671ZM8.96212 11.5087L14.4937 6.44671L13.481 5.34012L7.94947 10.4021L8.96212 11.5087ZM6.51298 10.162L7.94282 11.5025L8.96877 10.4083L7.53893 9.0677L6.51298 10.162ZM5.45287 10.1961C5.73618 9.89394 6.2108 9.87865 6.51298 10.162L7.53893 9.0677C6.63241 8.21777 5.20853 8.26364 4.3586 9.17016L5.45287 10.1961ZM5.48702 11.2562C5.18485 10.9729 5.16956 10.4983 5.45287 10.1961L4.3586 9.17016C3.50867 10.0767 3.55455 11.5006 4.46107 12.3505L5.48702 11.2562ZM7.93046 13.5471L5.48702 11.2562L4.46107 12.3505L6.90451 14.6414L7.93046 13.5471ZM8.94976 13.5533C8.66059 13.8179 8.21641 13.8152 7.93046 13.5471L6.90451 14.6414C7.76237 15.4457 9.0949 15.4538 9.96242 14.6599L8.94976 13.5533ZM15.5063 7.55329L8.94976 13.5533L9.96242 14.6599L16.519 8.65988L15.5063 7.55329ZM16 3.75C16.2133 3.75 16.55 3.82017 16.8118 4.00865C17.0353 4.16961 17.25 4.44444 17.25 5L18.75 5C18.75 3.95556 18.298 3.2304 17.6882 2.79135C17.1167 2.37984 16.4534 2.25 16 2.25L16 3.75Z" fill="#575756"/>
</svg>
