<svg width="20" height="20" viewBox="0 0 20 20" fill="none" xmlns="http://www.w3.org/2000/svg">
<path d="M9.33333 8.04022C9.33333 13.565 6.32341 16.1461 4.56727 17.1819C3.98304 17.5265 3.33333 17.0786 3.33333 16.4003L3.33333 12.7824C3.33333 12.3228 3.01935 11.9206 2.60056 11.7312C1.61921 11.2874 0 10.2242 0 8.04022C0 5.35259 2.08934 3.17383 4.66667 3.17383C7.244 3.17383 9.33333 5.42292 9.33333 8.04022Z" fill="#575756"/>
<path d="M20.0013 8.04022C20.0013 13.565 16.9914 16.1461 15.2352 17.1819C14.651 17.5265 14.0013 17.0786 14.0013 16.4003L14.0013 12.7824C14.0013 12.3228 13.6873 11.9206 13.2685 11.7312C12.2872 11.2874 10.668 10.2242 10.668 8.04022C10.668 5.35259 12.7573 3.17383 15.3346 3.17383C17.912 3.17383 20.0013 5.42292 20.0013 8.04022Z" fill="#575756"/>
</svg>
