<svg width="20" height="20" viewBox="0 0 20 20" fill="none" xmlns="http://www.w3.org/2000/svg">
<g clip-path="url(#clip0_53955_11225)">
<path fill-rule="evenodd" clip-rule="evenodd" d="M4.25 4.25H7.5C8.4665 4.25 9.25 3.4665 9.25 2.5C9.25 1.5335 8.4665 0.75 7.5 0.75H4.16667C3.26051 0.75 2.39147 1.10997 1.75072 1.75072C1.10997 2.39147 0.75 3.26051 0.75 4.16667V15.8333C0.75 16.7395 1.10997 17.6085 1.75072 18.2493C2.39147 18.89 3.26051 19.25 4.16667 19.25H7.5C8.4665 19.25 9.25 18.4665 9.25 17.5C9.25 16.5335 8.4665 15.75 7.5 15.75H4.25V4.25ZM12.0956 4.59606C12.779 3.91264 13.887 3.91264 14.5704 4.59606L18.7125 8.73811C19.0438 9.05654 19.25 9.50419 19.25 10C19.25 10.4905 19.0482 10.9339 18.723 11.2517L14.5704 15.4043C13.887 16.0877 12.779 16.0877 12.0956 15.4043C11.4122 14.7208 11.4122 13.6128 12.0956 12.9294L13.275 11.75H7.5C6.5335 11.75 5.75 10.9665 5.75 10C5.75 9.0335 6.5335 8.25 7.5 8.25H13.2746L12.0956 7.07093C11.4122 6.38752 11.4122 5.27948 12.0956 4.59606Z" fill="#575756"/>
</g>
<defs>
<clipPath id="clip0_53955_11225">
<rect width="20" height="20" fill="white"/>
</clipPath>
</defs>
</svg>
