<svg width="20" height="20" viewBox="0 0 20 20" fill="none" xmlns="http://www.w3.org/2000/svg">
<path d="M7.33333 2.6084L3.5 2.6084C2.94772 2.6084 2.5 3.05611 2.5 3.6084L2.5 7.69535C2.5 8.24764 2.94772 8.69535 3.5 8.69535L7.33333 8.69535C7.88562 8.69535 8.33333 8.24764 8.33333 7.69536L8.33333 3.6084C8.33333 3.05611 7.88562 2.6084 7.33333 2.6084Z" fill="#575756"/>
<path d="M16.5003 2.6084L12.667 2.6084C12.1147 2.6084 11.667 3.05611 11.667 3.6084L11.667 7.69535C11.667 8.24764 12.1147 8.69535 12.667 8.69535L16.5003 8.69535C17.0526 8.69535 17.5003 8.24764 17.5003 7.69536L17.5003 3.6084C17.5003 3.05611 17.0526 2.6084 16.5003 2.6084Z" fill="#575756"/>
<path d="M16.5003 12.1738L12.667 12.1738C12.1147 12.1738 11.667 12.6215 11.667 13.1738L11.667 17.2608C11.667 17.8131 12.1147 18.2608 12.667 18.2608L16.5003 18.2608C17.0526 18.2608 17.5003 17.8131 17.5003 17.2608L17.5003 13.1738C17.5003 12.6215 17.0526 12.1738 16.5003 12.1738Z" fill="#575756"/>
<path d="M7.33333 12.1738L3.5 12.1738C2.94772 12.1738 2.5 12.6215 2.5 13.1738L2.5 17.2608C2.5 17.8131 2.94772 18.2608 3.5 18.2608L7.33333 18.2608C7.88562 18.2608 8.33333 17.8131 8.33333 17.2608L8.33333 13.1738C8.33333 12.6215 7.88562 12.1738 7.33333 12.1738Z" fill="#575756"/>
</svg>
