<svg width="20" height="20" viewBox="0 0 20 20" fill="none" xmlns="http://www.w3.org/2000/svg">
<path d="M10.4472 1.22361C10.1657 1.08284 9.83431 1.08284 9.55279 1.22361L1.78886 5.10557C1.05181 5.4741 1.05181 6.5259 1.78885 6.89443L9.55279 10.7764C9.83431 10.9172 10.1657 10.9172 10.4472 10.7764L18.2111 6.89443C18.9482 6.5259 18.9482 5.4741 18.2111 5.10557L10.4472 1.22361Z" fill="#575756"/>
<path fill-rule="evenodd" clip-rule="evenodd" d="M2.00257 9.32934C1.63208 9.1441 1.18158 9.29427 0.996336 9.66475C0.811094 10.0352 0.961262 10.4857 1.33175 10.671L9.66508 14.8377C9.87622 14.9432 10.1248 14.9432 10.3359 14.8377L18.6692 10.671C19.0397 10.4857 19.1899 10.0352 19.0046 9.66475C18.8194 9.29427 18.3689 9.1441 17.9984 9.32934L10.0005 13.3283L2.00257 9.32934ZM2.00257 13.4958C1.63208 13.3106 1.18158 13.4608 0.996336 13.8313C0.811094 14.2017 0.961262 14.6522 1.33175 14.8375L9.66508 19.0042C9.87622 19.1097 10.1248 19.1097 10.3359 19.0042L18.6692 14.8375C19.0397 14.6522 19.1899 14.2017 19.0046 13.8313C18.8194 13.4608 18.3689 13.3106 17.9984 13.4958L10.0005 17.4948L2.00257 13.4958Z" fill="#575756"/>
</svg>
