<svg width="20" height="20" viewBox="0 0 20 20" fill="none" xmlns="http://www.w3.org/2000/svg">
<g clip-path="url(#clip0_53955_11402)">
<path fill-rule="evenodd" clip-rule="evenodd" d="M18.943 3.79957C19.2528 4.11895 19.4728 4.51442 19.5808 4.94605C19.8693 6.54554 20.0094 8.16827 19.9992 9.79354C20.0049 11.3945 19.8649 12.9927 19.5808 14.5683C19.4728 14.9999 19.2528 15.3954 18.943 15.7148C18.6332 16.0341 18.2446 16.2661 17.8164 16.3872C16.2521 16.8056 9.99496 16.8056 9.99496 16.8056C9.99496 16.8056 3.73778 16.8056 2.17349 16.3872C1.75406 16.2725 1.37132 16.0515 1.06224 15.7456C0.75317 15.4397 0.528214 15.0592 0.40911 14.641C0.120596 13.0415 -0.0194522 11.4188 -0.00924696 9.79354C-0.0172174 8.18041 0.122822 6.56996 0.409112 4.98242C0.517147 4.55079 0.737174 4.15532 1.04697 3.83595C1.35676 3.51657 1.74535 3.2846 2.17349 3.16348C3.73779 2.74512 9.99496 2.74512 9.99496 2.74512C9.99496 2.74512 16.2521 2.74512 17.8164 3.1271C18.2446 3.24823 18.6332 3.48019 18.943 3.79957ZM13.1836 9.79234L7.9541 12.7663L7.9541 6.81836L13.1836 9.79234Z" fill="#575756"/>
</g>
<defs>
<clipPath id="clip0_53955_11402">
<rect width="20" height="20" fill="white"/>
</clipPath>
</defs>
</svg>
