<svg width="20" height="20" viewBox="0 0 20 20" fill="none" xmlns="http://www.w3.org/2000/svg">
<g clip-path="url(#clip0_53955_11356)">
<path fill-rule="evenodd" clip-rule="evenodd" d="M10 20C15.5228 20 20 15.5228 20 10C20 4.47715 15.5228 0 10 0C4.47715 0 0 4.47715 0 10C0 15.5228 4.47715 20 10 20ZM9.5 8.75C8.95717 8.75 8.25 9.36868 8.25 10.5C8.25 11.6313 8.95717 12.25 9.5 12.25C10.0428 12.25 10.75 11.6313 10.75 10.5C10.75 9.36868 10.0428 8.75 9.5 8.75ZM6.75 10.5C6.75 8.8699 7.83369 7.25 9.5 7.25C10.3078 7.25 10.9786 7.63067 11.4555 8.20863C11.5004 7.83734 11.8166 7.54966 12.2 7.54966C12.6142 7.54966 12.95 7.88544 12.95 8.29966V11.0497C12.95 11.2884 13.0448 11.5173 13.2136 11.6861C13.3824 11.8548 13.6113 11.9497 13.85 11.9497C14.0887 11.9497 14.3176 11.8548 14.4864 11.6861C14.6552 11.5173 14.75 11.2884 14.75 11.0497V10.4997V10.4997C14.7499 9.42761 14.3872 8.38712 13.7208 7.54736C13.0544 6.70758 12.1235 6.11794 11.0795 5.8743C10.0355 5.63066 8.93977 5.74735 7.97049 6.20541C7.00122 6.66346 6.21539 7.43593 5.7408 8.39722C5.26621 9.35851 5.13076 10.4521 5.35648 11.5001C5.58221 12.5481 6.15582 13.489 6.98405 14.1697C7.81229 14.8504 8.84643 15.2309 9.91834 15.2493C10.9902 15.2677 12.0369 14.923 12.888 14.2712C13.2169 14.0194 13.6876 14.0818 13.9395 14.4107C14.1913 14.7395 14.1289 15.2103 13.8 15.4621C12.6801 16.3198 11.3029 16.7733 9.89255 16.7491C8.48215 16.7248 7.12143 16.2242 6.03165 15.3285C4.94186 14.4329 4.18711 13.1949 3.89011 11.8159C3.59311 10.4369 3.77133 8.99804 4.39579 7.73319C5.02025 6.46833 6.05423 5.45192 7.3296 4.84922C8.60496 4.24651 10.0467 4.09297 11.4204 4.41355C12.7941 4.73413 14.0189 5.50998 14.8958 6.61494C15.7726 7.71991 16.2499 9.089 16.25 10.4996V10.4997V11.0497C16.25 11.6862 15.9971 12.2966 15.5471 12.7467C15.097 13.1968 14.4865 13.4497 13.85 13.4497C13.2135 13.4497 12.603 13.1968 12.1529 12.7467C12.0144 12.6082 11.8946 12.4544 11.795 12.2894C11.3273 13.1388 10.5235 13.75 9.5 13.75C7.83369 13.75 6.75 12.1301 6.75 10.5Z" fill="#575756"/>
</g>
<defs>
<clipPath id="clip0_53955_11356">
<rect width="20" height="20" fill="white"/>
</clipPath>
</defs>
</svg>
