<svg width="20" height="20" viewBox="0 0 20 20" fill="none" xmlns="http://www.w3.org/2000/svg">
<path fill-rule="evenodd" clip-rule="evenodd" d="M16.2377 6.23744C16.9211 5.55402 16.9211 4.44598 16.2377 3.76256C15.5542 3.07915 14.4462 3.07915 13.7628 3.76256L10.0002 7.52513L6.23767 3.76256C5.55425 3.07915 4.44621 3.07915 3.76279 3.76256C3.07938 4.44598 3.07938 5.55402 3.76279 6.23744L7.52536 10L3.76159 13.7638C3.07817 14.4472 3.07817 15.5552 3.76159 16.2386C4.445 16.9221 5.55304 16.9221 6.23646 16.2386L10.0002 12.4749L13.764 16.2386C14.4474 16.9221 15.5555 16.9221 16.2389 16.2386C16.9223 15.5552 16.9223 14.4472 16.2389 13.7638L12.4751 10L16.2377 6.23744Z" fill="#575756"/>
</svg>
