<svg width="20" height="20" viewBox="0 0 20 20" fill="none" xmlns="http://www.w3.org/2000/svg">
<path fill-rule="evenodd" clip-rule="evenodd" d="M2 1C1.17157 1 0.5 1.67157 0.5 2.5C0.5 3.32843 1.17157 4 2 4H18C18.8284 4 19.5 3.32843 19.5 2.5C19.5 1.67157 18.8284 1 18 1H2ZM2 6C1.17157 6 0.5 6.67157 0.5 7.5C0.5 8.32843 1.17157 9 2 9H16C16.8284 9 17.5 8.32843 17.5 7.5C17.5 6.67157 16.8284 6 16 6H2ZM0.5 12.5C0.5 11.6716 1.17157 11 2 11H12C12.8284 11 13.5 11.6716 13.5 12.5C13.5 13.3284 12.8284 14 12 14H2C1.17157 14 0.5 13.3284 0.5 12.5ZM2 16C1.17157 16 0.5 16.6716 0.5 17.5C0.5 18.3284 1.17157 19 2 19H10C10.8284 19 11.5 18.3284 11.5 17.5C11.5 16.6716 10.8284 16 10 16H2Z" fill="#575756"/>
</svg>
