<svg width="20" height="20" viewBox="0 0 20 20" fill="none" xmlns="http://www.w3.org/2000/svg">
<g clip-path="url(#clip0_53955_11729)">
<path fill-rule="evenodd" clip-rule="evenodd" d="M9.99935 2.72656C3.63551 2.72656 -0.000976562 9.99953 -0.000976562 9.99953C-0.000976562 9.99953 3.63551 17.2725 9.99935 17.2725C16.3632 17.2725 19.9997 9.99953 19.9997 9.99953C19.9997 9.99953 16.3632 2.72656 9.99935 2.72656ZM8.02234 9.99935C8.02234 8.90728 8.90764 8.02199 9.9997 8.02199C11.0918 8.02199 11.9771 8.90728 11.9771 9.99935C11.9771 11.0914 11.0918 11.9767 9.9997 11.9767C8.90764 11.9767 8.02234 11.0914 8.02234 9.99935ZM9.9997 6.52199C8.07921 6.52199 6.52234 8.07886 6.52234 9.99935C6.52234 11.9198 8.07921 13.4767 9.9997 13.4767C11.9202 13.4767 13.4771 11.9198 13.4771 9.99935C13.4771 8.07886 11.9202 6.52199 9.9997 6.52199Z" fill="#575756"/>
</g>
<defs>
<clipPath id="clip0_53955_11729">
<rect width="20" height="20" fill="white"/>
</clipPath>
</defs>
</svg>
