<svg width="20" height="20" viewBox="0 0 20 20" fill="none" xmlns="http://www.w3.org/2000/svg">
<path d="M2.8 14L17.2 14C18.1941 14 19 13.2325 19 12.2857L19 3.71429C19 2.76752 18.1941 2 17.2 2L2.8 2C1.80589 2 0.999999 2.76751 0.999999 3.71428L0.999997 12.2857C0.999996 13.2325 1.80588 14 2.8 14Z" fill="#575756"/>
<path d="M6.99902 15.501L6.99902 18.1676C6.99902 18.256 7.15706 18.3408 7.43836 18.4033C7.71967 18.4659 8.1012 18.501 8.49902 18.501L11.499 18.501C11.8968 18.501 12.2784 18.4659 12.5597 18.4033C12.841 18.3408 12.999 18.256 12.999 18.1676L12.999 15.501" fill="#575756"/>
</svg>
