<svg width="20" height="20" viewBox="0 0 20 20" fill="none" xmlns="http://www.w3.org/2000/svg">
<path fill-rule="evenodd" clip-rule="evenodd" d="M17.1998 8.36364C17.1998 14.0909 9.9998 19 9.9998 19C9.9998 19 2.7998 14.0909 2.7998 8.36364C2.7998 6.41068 3.55837 4.53771 4.90864 3.15676C6.2589 1.77581 8.09025 1 9.9998 1C11.9094 1 13.7407 1.77581 15.091 3.15676C16.4412 4.53771 17.1998 6.41068 17.1998 8.36364ZM9.99971 9.1C10.9938 9.1 11.7997 8.29411 11.7997 7.3C11.7997 6.30589 10.9938 5.5 9.99971 5.5C9.00559 5.5 8.19971 6.30589 8.19971 7.3C8.19971 8.29411 9.00559 9.1 9.99971 9.1ZM13.3752 13.5602C12.6667 14.3805 11.3333 15.8321 10 16.7998C7.77778 15.3482 6 12.5417 6 12.5417C6 12.0797 6.22476 11.6367 6.62484 11.31C7.02492 10.9833 7.56754 10.7998 8.13333 10.7998H11.8667C12.4325 10.7998 12.9751 10.9833 13.3752 11.31C13.7752 11.6367 14 12.0797 14 12.5417C14 12.5417 13.6608 13.2294 13.3752 13.5602Z" fill="#575756"/>
</svg>
