<svg width="24" height="24" viewBox="0 0 24 24" fill="none" xmlns="http://www.w3.org/2000/svg">
<path fill-rule="evenodd" clip-rule="evenodd" d="M16.2784 2.50021C14.8849 2.48779 13.5499 3.03764 12.5592 4.01913L12.5438 4.03451L11.2478 5.35613C10.6677 5.9476 10.677 6.8973 11.2684 7.47735C11.8599 8.0574 12.8096 8.04814 13.3897 7.45667L14.6772 6.14376C15.1068 5.72167 15.6724 5.49492 16.2516 5.50009C16.834 5.50528 17.3989 5.74459 17.8225 6.179C18.2472 6.61463 18.4946 7.21169 18.4999 7.84351C18.5052 8.47143 18.271 9.06962 17.8581 9.51237L15.6077 11.8205L15.6075 11.8207C15.3757 12.0586 15.0991 12.2401 14.7979 12.3553C14.5936 12.4335 14.3805 12.4802 14.1652 12.4949C14.584 11.9794 14.6218 11.2278 14.2119 10.6658C13.7626 10.0497 13.1871 9.53688 12.5227 9.16457C11.8581 8.79219 11.1212 8.56967 10.362 8.5139C9.60273 8.45813 8.84136 8.57062 8.1301 8.84275C7.41904 9.1148 6.77631 9.53937 6.24427 10.0852L6.24408 10.0854L3.98364 12.4038L3.96561 12.4226C3.01067 13.4367 2.48838 14.7873 2.5002 16.1819C2.51201 17.5765 3.05714 18.9179 4.02953 19.9153C5.00313 20.9139 6.3282 21.4874 7.72161 21.4998C9.11506 21.5122 10.4501 20.9624 11.4408 19.9809L11.4592 19.9624L12.7478 18.6407C13.3261 18.0476 13.3141 17.0979 12.7209 16.5196C12.1277 15.9413 11.1781 15.9533 10.5998 16.5465L9.32143 17.8576C8.89201 18.2788 8.32701 18.5051 7.74835 18.4999C7.16599 18.4947 6.60108 18.2554 6.17755 17.821C5.75281 17.3854 5.50544 16.7883 5.50009 16.1565C5.49477 15.5286 5.72903 14.9304 6.14187 14.4876L8.39228 12.1795L8.39247 12.1793C8.62432 11.9414 8.90086 11.7599 9.20211 11.6447C9.40635 11.5665 9.61945 11.5198 9.83483 11.5051C9.41602 12.0206 9.37822 12.7722 9.78806 13.3342C10.2374 13.9503 10.8129 14.4631 11.4773 14.8354C12.1419 15.2078 12.8788 15.4303 13.638 15.4861C14.3973 15.5419 15.1586 15.4294 15.8699 15.1573C16.581 14.8852 17.2237 14.4606 17.7557 13.9148L17.7559 13.9146L20.0164 11.5962L20.0344 11.5774C20.9893 10.5633 21.5116 9.21271 21.4998 7.8181C21.488 6.42347 20.9429 5.08205 19.9705 4.08471C18.9969 3.08614 17.6718 2.51262 16.2784 2.50021Z" fill="#575756"/>
</svg>
