<svg width="20" height="20" viewBox="0 0 20 20" fill="none" xmlns="http://www.w3.org/2000/svg">
<g clip-path="url(#clip0_53955_11192)">
<path d="M13 10C13 8.34315 11.6569 7 10 7C8.34315 7 7 8.34315 7 10C7 11.6569 8.34315 13 10 13C11.6569 13 13 11.6569 13 10Z" fill="#575756"/>
<path d="M20 10C20 8.34315 18.6569 7 17 7C15.3431 7 14 8.34315 14 10C14 11.6569 15.3431 13 17 13C18.6569 13 20 11.6569 20 10Z" fill="#575756"/>
<path d="M6 10C6 8.34315 4.65685 7 3 7C1.34315 7 -1.69631e-07 8.34315 -1.09278e-07 10C-4.89256e-08 11.6569 1.34315 13 3 13C4.65685 13 6 11.6569 6 10Z" fill="#575756"/>
</g>
<defs>
<clipPath id="clip0_53955_11192">
<rect width="20" height="20" fill="white"/>
</clipPath>
</defs>
</svg>
