<svg width="20" height="20" viewBox="0 0 20 20" fill="none" xmlns="http://www.w3.org/2000/svg">
<g clip-path="url(#clip0_53955_11466)">
<path fill-rule="evenodd" clip-rule="evenodd" d="M20 10C20 15.5228 15.5228 20 10 20C4.47715 20 0 15.5228 0 10C0 4.47715 4.47715 0 10 0C15.5228 0 20 4.47715 20 10ZM11.1334 4.5278C11.5332 4.1777 12.0937 3.96764 12.695 3.96764C13.2963 3.96764 13.8568 4.1777 14.2566 4.5278C14.6533 4.87522 14.854 5.32421 14.854 5.76852C14.854 6.21283 14.6533 6.66183 14.2566 7.00924L7.63079 12.8055L7.6305 12.8058C7.50102 12.9192 7.30711 12.9963 7.08804 12.9963C6.86897 12.9963 6.67507 12.9192 6.54558 12.8058C6.41917 12.6951 6.37029 12.5671 6.37029 12.4576C6.37029 12.3481 6.41909 12.2203 6.54527 12.1096L6.54558 12.1093L12.66 6.76091C12.9607 6.49784 12.9913 6.04076 12.7282 5.74001C12.4651 5.43925 12.0081 5.40871 11.7073 5.67179L5.59258 11.0205L5.59226 11.0208C5.1781 11.3835 4.92329 11.8976 4.92329 12.4576C4.92329 13.0175 5.1781 13.5317 5.59226 13.8944C6.00335 14.2544 6.54262 14.4433 7.08804 14.4433C7.63346 14.4433 8.17273 14.2544 8.58383 13.8944L15.2096 8.09807L15.2099 8.09781C15.8944 7.4984 16.301 6.66323 16.301 5.76852C16.301 4.87382 15.8944 4.03864 15.2099 3.43923C14.5285 2.84251 13.6227 2.52064 12.695 2.52064C11.7673 2.52064 10.8615 2.84251 10.1801 3.43923L3.56122 9.23577C2.60649 10.0719 2.04798 11.2281 2.04798 12.4576C2.04798 13.687 2.60649 14.8432 3.56122 15.6794C4.51289 16.5128 5.78534 16.9676 7.09524 16.9676C8.40515 16.9676 9.6776 16.5128 10.6293 15.6794L17.2481 9.88282C17.5487 9.61957 17.579 9.16247 17.3158 8.86187C17.0525 8.56127 16.5954 8.531 16.2948 8.79425L9.67594 14.5908C9.00588 15.1776 8.0788 15.5206 7.09524 15.5206C6.11169 15.5206 5.18461 15.1776 4.51455 14.5908C3.84756 14.0067 3.49499 13.2366 3.49499 12.4576C3.49499 11.6785 3.84756 10.9085 4.51455 10.3243L11.1334 4.5278Z" fill="#575756"/>
</g>
<defs>
<clipPath id="clip0_53955_11466">
<rect width="20" height="20" fill="white"/>
</clipPath>
</defs>
</svg>
