<svg width="20" height="20" viewBox="0 0 20 20" fill="none" xmlns="http://www.w3.org/2000/svg">
<path fill-rule="evenodd" clip-rule="evenodd" d="M9.99941 20C9.99941 20 17.5994 14.8182 17.5994 8.77273C17.5994 6.71127 16.7987 4.73425 15.3734 3.27658C13.9481 1.81891 12.0151 1 9.99941 1C7.98377 1 6.05068 1.81891 4.6254 3.27658C3.20013 4.73425 2.39941 6.71127 2.39941 8.77273C2.39941 14.8182 9.99941 20 9.99941 20ZM12.8494 8.6C12.8494 10.174 11.5734 11.45 9.99941 11.45C8.4254 11.45 7.14941 10.174 7.14941 8.6C7.14941 7.02599 8.4254 5.75 9.99941 5.75C11.5734 5.75 12.8494 7.02599 12.8494 8.6Z" fill="#575756"/>
<path fill-rule="evenodd" clip-rule="evenodd" d="M18.5303 0.46967C18.8232 0.762563 18.8232 1.23744 18.5303 1.53033L1.53033 18.5303C1.23744 18.8232 0.762563 18.8232 0.46967 18.5303C0.176777 18.2374 0.176777 17.7626 0.46967 17.4697L17.4697 0.46967C17.7626 0.176777 18.2374 0.176777 18.5303 0.46967Z" fill="#575756"/>
</svg>
