<svg width="20" height="20" viewBox="0 0 20 20" fill="none" xmlns="http://www.w3.org/2000/svg">
<path d="M15.4444 9H4.55556C3.69645 9 3 9.73262 3 10.6364V16.3636C3 17.2674 3.69645 18 4.55556 18H15.4444C16.3036 18 17 17.2674 17 16.3636V10.6364C17 9.73262 16.3036 9 15.4444 9Z" fill="#575756"/>
<path fill-rule="evenodd" clip-rule="evenodd" d="M9.99967 2.41602C9.09352 2.41602 8.22448 2.77598 7.58373 3.41673C6.94298 4.05748 6.58301 4.92653 6.58301 5.83268V9.16602C6.58301 9.58023 6.24722 9.91602 5.83301 9.91602C5.41879 9.91602 5.08301 9.58023 5.08301 9.16602V5.83268C5.08301 4.5287 5.60101 3.27813 6.52307 2.35607C7.44512 1.43402 8.69569 0.916016 9.99967 0.916016C11.3037 0.916016 12.5542 1.43402 13.4763 2.35607C14.3983 3.27813 14.9163 4.5287 14.9163 5.83268V9.16602C14.9163 9.58023 14.5806 9.91602 14.1663 9.91602C13.7521 9.91602 13.4163 9.58023 13.4163 9.16602V5.83268C13.4163 4.92653 13.0564 4.05748 12.4156 3.41673C11.7749 2.77598 10.9058 2.41602 9.99967 2.41602Z" fill="#575756"/>
</svg>
