<svg width="20" height="20" viewBox="0 0 20 20" fill="none" xmlns="http://www.w3.org/2000/svg">
<g clip-path="url(#clip0_53955_11122)">
<path fill-rule="evenodd" clip-rule="evenodd" d="M17.7588 14.8269C19.5277 13.8625 20.3517 12.3045 19.9758 10.8278C19.7281 9.85448 19.1633 8.9914 18.3706 8.37475C17.5779 7.7581 16.6024 7.423 15.598 7.42234H14.4589C14.1852 6.36386 13.6752 5.3812 12.9671 4.54822C12.259 3.71524 11.3713 3.05362 10.3707 2.61311C9.37006 2.1726 8.28261 1.96465 7.19007 2.0049C6.09754 2.04516 5.02834 2.33256 4.06287 2.84552C3.0974 3.35847 2.26077 4.08361 1.61589 4.96644C0.971014 5.84927 0.53466 6.8668 0.339638 7.94255C0.144616 9.01829 0.196001 10.1242 0.489929 11.1773C0.752468 12.1178 1.44433 13.1431 2.27609 14.3757C2.37554 14.523 2.47698 14.6734 2.57993 14.8269H9.23828V10.8614L6.90321 13.1965C6.61031 13.4894 6.13544 13.4894 5.84255 13.1965C5.54965 12.9036 5.54965 12.4287 5.84255 12.1358L9.43569 8.54271C9.57278 8.39339 9.7696 8.2998 9.98828 8.2998C9.98925 8.2998 9.99022 8.29981 9.99119 8.29981C10.1825 8.3003 10.3736 8.37352 10.5196 8.51948L14.136 12.1358C14.4288 12.4287 14.4288 12.9036 14.136 13.1965C13.8431 13.4894 13.3682 13.4894 13.0753 13.1965L10.7383 10.8595V14.8269H17.7588Z" fill="#575756"/>
<path fill-rule="evenodd" clip-rule="evenodd" d="M9.25 17V14H10.75V17C10.75 17.4142 10.4142 17.75 10 17.75C9.58579 17.75 9.25 17.4142 9.25 17Z" fill="#575756"/>
</g>
<defs>
<clipPath id="clip0_53955_11122">
<rect width="20" height="20" fill="white"/>
</clipPath>
</defs>
</svg>
