<svg width="20" height="20" viewBox="0 0 20 20" fill="none" xmlns="http://www.w3.org/2000/svg">
<path d="M7.33333 2.60889L3.5 2.60889C2.94772 2.60889 2.5 3.0566 2.5 3.60889L2.5 7.69584C2.5 8.24813 2.94772 8.69584 3.5 8.69584L7.33333 8.69584C7.88562 8.69584 8.33333 8.24813 8.33333 7.69584L8.33333 3.60889C8.33333 3.0566 7.88562 2.60889 7.33333 2.60889Z" fill="#575756"/>
<path d="M16.5003 2.60889L12.667 2.60889C12.1147 2.60889 11.667 3.0566 11.667 3.60889L11.667 7.69584C11.667 8.24813 12.1147 8.69584 12.667 8.69584L16.5003 8.69584C17.0526 8.69584 17.5003 8.24813 17.5003 7.69584L17.5003 3.60889C17.5003 3.0566 17.0526 2.60889 16.5003 2.60889Z" fill="#575756"/>
<path d="M16.5003 12.1738L12.667 12.1738C12.1147 12.1738 11.667 12.6215 11.667 13.1738L11.667 17.2608C11.667 17.8131 12.1147 18.2608 12.667 18.2608L16.5003 18.2608C17.0526 18.2608 17.5003 17.8131 17.5003 17.2608L17.5003 13.1738C17.5003 12.6215 17.0526 12.1738 16.5003 12.1738Z" fill="#575756"/>
<path d="M7.33333 12.1738L3.5 12.1738C2.94772 12.1738 2.5 12.6215 2.5 13.1738L2.5 17.2608C2.5 17.8131 2.94772 18.2608 3.5 18.2608L7.33333 18.2608C7.88562 18.2608 8.33333 17.8131 8.33333 17.2608L8.33333 13.1738C8.33333 12.6215 7.88562 12.1738 7.33333 12.1738Z" fill="#575756"/>
</svg>
