<svg width="20" height="20" viewBox="0 0 20 20" fill="none" xmlns="http://www.w3.org/2000/svg">
<path fill-rule="evenodd" clip-rule="evenodd" d="M5.04395 1L11.876 1L17 6.19981L17 16.5994C17 17.0591 16.82 17.5 16.4997 17.825C16.1794 18.1501 15.745 18.3327 15.292 18.3327L5.04394 18.3327C4.59095 18.3327 4.15651 18.1501 3.8362 17.825C3.51588 17.5 3.33593 17.0591 3.33593 16.5994L3.33594 2.73327C3.33594 2.27358 3.51589 1.83271 3.8362 1.50766C4.15651 1.18261 4.59095 1 5.04395 1ZM10.915 9.66699C10.915 9.25278 10.5793 8.91699 10.165 8.91699C9.75083 8.91699 9.41504 9.25278 9.41504 9.66699L9.41504 11.5171L7.60329 11.5171C7.18908 11.5171 6.85329 11.8529 6.85329 12.2671C6.85329 12.6813 7.18907 13.0171 7.60329 13.0171L9.41504 13.0171L9.41504 14.8668C9.41504 15.281 9.75082 15.6168 10.165 15.6168C10.5793 15.6168 10.915 15.281 10.915 14.8668L10.915 13.0171L12.7273 13.0171C13.1415 13.0171 13.4773 12.6813 13.4773 12.2671C13.4773 11.8529 13.1415 11.5171 12.7273 11.5171L10.915 11.5171L10.915 9.66699ZM11 7L11 2L16 7L11 7Z" fill="#575756"/>
</svg>
