<svg width="20" height="20" viewBox="0 0 20 20" fill="none" xmlns="http://www.w3.org/2000/svg">
<path d="M10.0967 1.65625C10.9249 1.65646 11.5967 2.32796 11.5967 3.15625C11.5965 3.98442 10.9248 4.65604 10.0967 4.65625H4.84961V15.1514H15.3447V9.90332C15.3449 9.07506 16.0164 8.40332 16.8447 8.40332C17.6727 8.40367 18.3445 9.07528 18.3447 9.90332V15.1514C18.3447 15.9467 18.0282 16.71 17.4658 17.2725C16.9034 17.8349 16.1401 18.1513 15.3447 18.1514H4.84863C4.0535 18.1513 3.29088 17.8346 2.72852 17.2725C2.16608 16.71 1.84968 15.9468 1.84961 15.1514V4.65527C1.84972 3.85992 2.16611 3.09756 2.72852 2.53516C3.29092 1.97279 4.05331 1.65636 4.84863 1.65625H10.0967ZM16.8125 1.56543C17.2426 1.56543 17.6548 1.73687 17.959 2.04102C18.2631 2.34516 18.4346 2.75738 18.4346 3.1875C18.4345 3.61755 18.2631 4.02989 17.959 4.33398L10.6963 11.5967L7.63867 12.3613L8.40332 9.30371L15.666 2.04102C15.9701 1.73692 16.3824 1.56548 16.8125 1.56543Z" fill="#575756"/>
</svg>
