<svg width="20" height="20" viewBox="0 0 20 20" fill="none" xmlns="http://www.w3.org/2000/svg">
<g clip-path="url(#clip0_53908_9483)">
<path d="M0.833008 0.833496L19.1663 19.1668" stroke="#575756" stroke-width="1.5" stroke-linecap="round" stroke-linejoin="round"/>
<path fill-rule="evenodd" clip-rule="evenodd" d="M9.99925 17.0003C11.8798 16.9696 13.7011 16.338 15.1969 15.1978L12.2268 12.2277C11.6567 12.7976 10.8693 13.1501 9.99959 13.1501C8.25985 13.1501 6.84951 11.7397 6.84951 9.99999C6.84951 9.13026 7.20199 8.34285 7.77188 7.77282L4.80163 4.80256C2.97208 6.19963 1.46245 7.9718 0.374023 10.0002C0.374023 10.0002 3.8741 17.0003 9.99925 17.0003ZM9.99925 3.00002C9.38066 2.99857 8.76401 3.06904 8.1617 3.21003L17.7344 12.7915C18.4599 11.9294 19.0933 10.9939 19.6245 10.0002C19.6245 10.0002 16.1244 3.00002 9.99925 3.00002Z" fill="#575756"/>
</g>
<defs>
<clipPath id="clip0_53908_9483">
<rect width="20" height="20" fill="white"/>
</clipPath>
</defs>
</svg>
