<svg width="20" height="20" viewBox="0 0 20 20" fill="none" xmlns="http://www.w3.org/2000/svg">
<path d="M14 18V16C14 14.9391 13.6067 13.9217 12.9065 13.1716C12.2064 12.4214 11.2568 12 10.2667 12H3.73333C2.74319 12 1.7936 12.4214 1.09347 13.1716C0.393332 13.9217 0 14.9391 0 16V18" fill="#575756"/>
<path d="M7.08333 9.16667C8.92428 9.16667 10.4167 7.67428 10.4167 5.83333C10.4167 3.99238 8.92428 2.5 7.08333 2.5C5.24238 2.5 3.75 3.99238 3.75 5.83333C3.75 7.67428 5.24238 9.16667 7.08333 9.16667Z" fill="#575756"/>
<path fill-rule="evenodd" clip-rule="evenodd" d="M17.4141 6.66602C17.4141 6.2518 17.0783 5.91602 16.6641 5.91602C16.2498 5.91602 15.9141 6.2518 15.9141 6.66602V8.41602H14.1641C13.7498 8.41602 13.4141 8.7518 13.4141 9.16602C13.4141 9.58023 13.7498 9.91602 14.1641 9.91602H15.9141V11.666C15.9141 12.0802 16.2498 12.416 16.6641 12.416C17.0783 12.416 17.4141 12.0802 17.4141 11.666V9.91602H19.1641C19.5783 9.91602 19.9141 9.58023 19.9141 9.16602C19.9141 8.7518 19.5783 8.41602 19.1641 8.41602H17.4141V6.66602Z" fill="#575756"/>
</svg>
