<svg width="20" height="20" viewBox="0 0 20 20" fill="none" xmlns="http://www.w3.org/2000/svg">
<path fill-rule="evenodd" clip-rule="evenodd" d="M11.2426 5.40345C11.9261 4.72003 11.9261 3.612 11.2426 2.92858C10.5592 2.24516 9.45119 2.24516 8.76777 2.92858L2.93444 8.76191C2.69824 8.99811 2.54367 9.28504 2.47074 9.58762C2.44793 9.68207 2.43277 9.77952 2.42598 9.87926C2.42324 9.91932 2.42187 9.95945 2.42188 9.99959C2.42188 9.99973 2.42188 9.99986 2.42188 10C2.42188 10.4977 2.62967 10.9469 2.96323 11.2656L8.76777 17.0701C9.45119 17.7535 10.5592 17.7535 11.2426 17.0701C11.9261 16.3867 11.9261 15.2787 11.2426 14.5952L8.3974 11.75H15.8385C16.805 11.75 17.5885 10.9665 17.5885 10C17.5885 9.0335 16.805 8.25 15.8385 8.25H8.3961L11.2426 5.40345Z" fill="#575756"/>
</svg>
