<svg width="20" height="20" viewBox="0 0 20 20" fill="none" xmlns="http://www.w3.org/2000/svg">
<path fill-rule="evenodd" clip-rule="evenodd" d="M2 2.25C1.0335 2.25 0.25 3.0335 0.25 4C0.25 4.9665 1.0335 5.75 2 5.75H2.5C3.4665 5.75 4.25 4.9665 4.25 4C4.25 3.0335 3.4665 2.25 2.5 2.25H2ZM7 2.25C6.0335 2.25 5.25 3.0335 5.25 4C5.25 4.9665 6.0335 5.75 7 5.75H18C18.9665 5.75 19.75 4.9665 19.75 4C19.75 3.0335 18.9665 2.25 18 2.25H7ZM7 8.25C6.0335 8.25 5.25 9.0335 5.25 10C5.25 10.9665 6.0335 11.75 7 11.75H18C18.9665 11.75 19.75 10.9665 19.75 10C19.75 9.0335 18.9665 8.25 18 8.25H7ZM5.25 16C5.25 15.0335 6.0335 14.25 7 14.25H18C18.9665 14.25 19.75 15.0335 19.75 16C19.75 16.9665 18.9665 17.75 18 17.75H7C6.0335 17.75 5.25 16.9665 5.25 16ZM0.25 10C0.25 9.0335 1.0335 8.25 2 8.25H2.5C3.4665 8.25 4.25 9.0335 4.25 10C4.25 10.9665 3.4665 11.75 2.5 11.75H2C1.0335 11.75 0.25 10.9665 0.25 10ZM2 14.25C1.0335 14.25 0.25 15.0335 0.25 16C0.25 16.9665 1.0335 17.75 2 17.75H2.5C3.4665 17.75 4.25 16.9665 4.25 16C4.25 15.0335 3.4665 14.25 2.5 14.25H2Z" fill="#575756"/>
</svg>
