<svg width="20" height="20" viewBox="0 0 20 20" fill="none" xmlns="http://www.w3.org/2000/svg">
<path d="M19 9.52779C19.0032 10.7743 18.712 12.004 18.15 13.1167C17.4836 14.45 16.4592 15.5714 15.1915 16.3554C13.9237 17.1394 12.4628 17.555 10.9722 17.5556C9.72567 17.5588 8.49599 17.2676 7.38332 16.7056L2 18.5L3.79444 13.1167C3.23243 12.004 2.94119 10.7743 2.94444 9.52779C2.94502 8.03723 3.36058 6.57627 4.14456 5.30854C4.92855 4.04081 6.05001 3.01639 7.38332 2.35003C8.49599 1.78802 9.72567 1.49678 10.9722 1.50003H11.4444C13.413 1.60863 15.2723 2.43952 16.6664 3.83361C18.0605 5.2277 18.8914 7.08702 19 9.05557V9.52779Z" fill="#575756"/>
</svg>
