<svg width="20" height="20" viewBox="0 0 20 20" fill="none" xmlns="http://www.w3.org/2000/svg">
<path fill-rule="evenodd" clip-rule="evenodd" d="M7.5 5.83333C7.5 4.4066 8.6566 3.25 10.0833 3.25C11.5101 3.25 12.6667 4.4066 12.6667 5.83333C12.6667 7.26007 11.5101 8.41667 10.0833 8.41667C8.6566 8.41667 7.5 7.26007 7.5 5.83333ZM10.0833 1.75C7.82817 1.75 6 3.57817 6 5.83333C6 8.0885 7.82817 9.91667 10.0833 9.91667C12.3385 9.91667 14.1667 8.0885 14.1667 5.83333C14.1667 3.57817 12.3385 1.75 10.0833 1.75ZM7.16927 11.75C6.0863 11.75 5.04769 12.1802 4.28192 12.946C3.51614 13.7118 3.08594 14.7504 3.08594 15.8333V17.5C3.08594 17.9142 3.42172 18.25 3.83594 18.25C4.25015 18.25 4.58594 17.9142 4.58594 17.5V15.8333C4.58594 15.1482 4.85811 14.4911 5.34258 14.0066C5.82705 13.5222 6.48413 13.25 7.16927 13.25H13.0026C13.6877 13.25 14.3448 13.5222 14.8293 14.0066C15.3138 14.4911 15.5859 15.1482 15.5859 15.8333V17.5C15.5859 17.9142 15.9217 18.25 16.3359 18.25C16.7502 18.25 17.0859 17.9142 17.0859 17.5V15.8333C17.0859 14.7504 16.6557 13.7118 15.89 12.946C15.1242 12.1802 14.0856 11.75 13.0026 11.75H7.16927Z" fill="#575756"/>
</svg>
