<svg width="20" height="20" viewBox="0 0 20 20" fill="none" xmlns="http://www.w3.org/2000/svg">
<path fill-rule="evenodd" clip-rule="evenodd" d="M4.99967 2.4165C4.49341 2.4165 4.08301 2.82691 4.08301 3.33317V16.6665C4.08301 17.065 4.33726 17.4041 4.69237 17.5304L9.42351 11.853C9.566 11.682 9.77709 11.5832 9.99967 11.5832C10.2223 11.5832 10.4333 11.682 10.5758 11.853L15.307 17.5304C15.6621 17.4041 15.9163 17.065 15.9163 16.6665V3.33317C15.9163 2.82691 15.5059 2.4165 14.9997 2.4165H4.99967ZM2.58301 3.33317C2.58301 1.99848 3.66499 0.916504 4.99967 0.916504H14.9997C16.3344 0.916504 17.4163 1.99848 17.4163 3.33317V16.6665C17.4163 18.0012 16.3344 19.0832 14.9997 19.0832C14.7771 19.0832 14.566 18.9843 14.4235 18.8133L9.99967 13.5047L5.57584 18.8133C5.43335 18.9843 5.22226 19.0832 4.99967 19.0832C3.66499 19.0832 2.58301 18.0012 2.58301 16.6665V3.33317Z" fill="#575756"/>
</svg>
