<svg width="20" height="20" viewBox="0 0 20 20" fill="none" xmlns="http://www.w3.org/2000/svg">
<path fill-rule="evenodd" clip-rule="evenodd" d="M4.83333 12C4.83333 11.314 4.36805 10.7159 3.70418 10.5466L3.69925 10.5452C3.68973 10.5425 3.66974 10.5368 3.64077 10.5277C3.58253 10.5093 3.49006 10.478 3.37501 10.4314C3.14065 10.3366 2.83643 10.1885 2.54143 9.9767C1.96695 9.56428 1.5 8.97998 1.5 8.04022C1.5 6.12115 2.97639 4.67383 4.66667 4.67383C6.34324 4.67383 7.83333 6.17712 7.83333 8.04022C7.83333 11.5035 6.52074 13.5576 5.28778 14.7562C5.13549 14.9042 4.98325 15.0402 4.83333 15.165L4.83333 12ZM3.33333 16.1451L3.33333 12C3.33333 12 0 11.1738 0 8.04022C0 5.35259 2.08934 3.17383 4.66667 3.17383C7.244 3.17383 9.33333 5.42292 9.33333 8.04022C9.33333 13.2949 6.61052 15.8867 4.83333 17.0188C3.97237 17.5672 3.33333 17.773 3.33333 17.773L3.33333 16.1451ZM15.5013 12C15.5013 11.314 15.036 10.7159 14.3721 10.5466L14.3672 10.5452C14.3577 10.5425 14.3377 10.5368 14.3087 10.5277C14.2505 10.5093 14.158 10.478 14.043 10.4314C13.8086 10.3366 13.5044 10.1885 13.2094 9.9767C12.6349 9.56428 12.168 8.97998 12.168 8.04022C12.168 6.12115 13.6444 4.67383 15.3346 4.67383C17.0112 4.67383 18.5013 6.17712 18.5013 8.04022C18.5013 11.5035 17.1887 13.5576 15.9557 14.7562C15.8035 14.9042 15.6512 15.0402 15.5013 15.165V12ZM14.0013 16.1451L14.0013 12C14.0013 12 10.668 11.1738 10.668 8.04022C10.668 5.35259 12.7573 3.17383 15.3346 3.17383C17.912 3.17383 20.0013 5.42292 20.0013 8.04022C20.0013 13.2949 17.2785 15.8867 15.5013 17.0188C14.6403 17.5672 14.0013 17.773 14.0013 17.773V16.1451Z" fill="#575756"/>
</svg>
