<svg width="20" height="20" viewBox="0 0 20 20" fill="none" xmlns="http://www.w3.org/2000/svg">
<g clip-path="url(#clip0_53955_9915)">
<path fill-rule="evenodd" clip-rule="evenodd" d="M8.29535 2.60894C5.16474 3.32818 2.77404 5.98533 2.4536 9.25H5.95245C6.13253 6.86174 6.94442 4.57076 8.29535 2.60894ZM10.0003 0.916504C4.98374 0.916504 0.916992 4.98325 0.916992 9.99984C0.916992 15.0164 4.98374 19.0832 10.0003 19.0832C15.0169 19.0832 19.0836 15.0165 19.0837 10V9.99984C19.0837 4.98325 15.0169 0.916504 10.0003 0.916504ZM11.7053 2.60894C13.0562 4.57076 13.8681 6.86175 14.0482 9.25H17.5471C17.2266 5.98533 14.8359 3.32818 11.7053 2.60894ZM12.5434 9.25C12.3443 6.90449 11.4594 4.66931 10.0003 2.8237C8.54129 4.66931 7.65637 6.90449 7.45725 9.25H12.5434ZM7.45728 10.75H12.5434C12.3442 13.0954 11.4593 15.3304 10.0003 17.176C8.54136 15.3304 7.65645 13.0954 7.45728 10.75ZM5.95248 10.75H2.45363C2.7742 14.0145 5.16485 16.6715 8.29535 17.3907C6.94448 15.429 6.13261 13.1381 5.95248 10.75ZM11.7053 17.3907C13.0562 15.429 13.868 13.1381 14.0482 10.75H17.547C17.2265 14.0145 14.8358 16.6715 11.7053 17.3907Z" fill="#575756"/>
</g>
<defs>
<clipPath id="clip0_53955_9915">
<rect width="20" height="20" fill="white"/>
</clipPath>
</defs>
</svg>
