<svg width="20" height="20" viewBox="0 0 20 20" fill="none" xmlns="http://www.w3.org/2000/svg">
<path d="M17 5L6 16" stroke="#575756" stroke-width="1.5" stroke-linecap="round" stroke-linejoin="round"/>
<path d="M16.9909 16.3249C17.8037 15.8818 18.4458 15.1806 18.8158 14.3321C19.1858 13.4835 19.2627 12.5359 19.0344 11.6388C18.8061 10.7417 18.2855 9.94616 17.5548 9.37778C16.8241 8.80939 15.925 8.50052 14.9992 8.4999H13.9492C13.697 7.52427 13.2269 6.61852 12.5742 5.85073C11.9215 5.08295 11.1033 4.47311 10.181 4.06708C9.2587 3.66104 8.25636 3.46937 7.24933 3.50647C6.2423 3.54358 5.25679 3.80849 4.36688 4.28129C3.47697 4.7541 2.70583 5.42249 2.11142 6.23622C1.51701 7.04996 1.11481 7.98785 0.935051 8.9794C0.755293 9.97095 0.802655 10.9903 1.07358 11.961C1.3445 12.9316 1.83194 13.8281 2.49923 14.5832" stroke="#575756" stroke-width="1.5" stroke-linecap="round" stroke-linejoin="round"/>
</svg>
