<svg width="20" height="20" viewBox="0 0 20 20" fill="none" xmlns="http://www.w3.org/2000/svg">
<g clip-path="url(#clip0_53955_9974)">
<path fill-rule="evenodd" clip-rule="evenodd" d="M2.41699 9.99984C2.41699 5.81168 5.81217 2.4165 10.0003 2.4165C14.1885 2.4165 17.5837 5.81168 17.5837 9.99984C17.5837 14.188 14.1885 17.5832 10.0003 17.5832C5.81217 17.5832 2.41699 14.188 2.41699 9.99984ZM10.0003 0.916504C4.98374 0.916504 0.916992 4.98325 0.916992 9.99984C0.916992 15.0164 4.98374 19.0832 10.0003 19.0832C15.0169 19.0832 19.0837 15.0164 19.0837 9.99984C19.0837 4.98325 15.0169 0.916504 10.0003 0.916504ZM10.75 5C10.75 4.58579 10.4142 4.25 10 4.25C9.58579 4.25 9.25 4.58579 9.25 5V10C9.25 10.2841 9.4105 10.5438 9.66459 10.6708L12.9979 12.3375C13.3684 12.5227 13.8189 12.3726 14.0042 12.0021C14.1894 11.6316 14.0392 11.1811 13.6687 10.9958L10.75 9.53647V5Z" fill="#575756"/>
</g>
<defs>
<clipPath id="clip0_53955_9974">
<rect width="20" height="20" fill="white"/>
</clipPath>
</defs>
</svg>
