<svg width="20" height="20" viewBox="0 0 20 20" fill="none" xmlns="http://www.w3.org/2000/svg">
<g clip-path="url(#clip0_53955_10420)">
<path fill-rule="evenodd" clip-rule="evenodd" d="M1.36334 0.303166C1.07044 0.0102728 0.595571 0.0102728 0.302678 0.303166C0.00978459 0.596059 0.00978459 1.07093 0.302678 1.36383L3.92935 4.9905C2.39948 6.29262 1.12441 7.87091 0.172141 9.64556C0.0569157 9.8603 0.0532038 10.1176 0.162188 10.3356L0.833008 10.0002C0.162188 10.3356 0.162315 10.3358 0.162455 10.3361L0.162801 10.3368L0.163723 10.3387L0.166494 10.3441L0.175735 10.3622C0.183537 10.3774 0.194619 10.3987 0.208959 10.4258C0.237633 10.48 0.279361 10.5573 0.333949 10.6543C0.443068 10.8483 0.603911 11.122 0.814958 11.4487C1.23612 12.1009 1.86209 12.9722 2.68169 13.8465C4.3072 15.5804 6.78338 17.4169 9.99967 17.4169V17.417L10.0119 17.4167C11.7426 17.3885 13.4249 16.8696 14.866 15.9271L18.636 19.6972C18.9289 19.9901 19.4038 19.9901 19.6967 19.6972C19.9896 19.4043 19.9896 18.9294 19.6967 18.6365L15.4868 14.4266C15.4819 14.4216 15.4769 14.4166 15.4719 14.4117L5.58672 4.52655C5.58186 4.52155 5.57695 4.51664 5.57198 4.51181L1.36334 0.303166ZM4.99379 6.05494C3.66792 7.16469 2.54878 8.50126 1.689 10.0029C1.78298 10.1667 1.912 10.3825 2.07502 10.635C2.46115 11.2328 3.03309 12.0281 3.77599 12.8206C5.27431 14.4188 7.37935 15.9145 9.99356 15.9168C11.3323 15.8939 12.6363 15.5198 13.7777 14.8388L11.7193 12.7805C11.5736 12.876 11.42 12.9599 11.26 13.0312C10.8614 13.2088 10.431 13.3043 9.99465 13.312C9.55827 13.3197 9.12481 13.2395 8.72013 13.076C8.31545 12.9125 7.94783 12.6693 7.63922 12.3606C7.3306 12.052 7.08731 11.6844 6.92385 11.2797C6.76039 10.875 6.68012 10.4416 6.68782 10.0052C6.69552 9.56883 6.79103 9.13847 6.96867 8.73981C7.03994 8.57985 7.12385 8.4263 7.21941 8.28056L4.99379 6.05494ZM8.32381 9.38496C8.23779 9.58982 8.19151 9.80929 8.18759 10.0317C8.18344 10.2666 8.22666 10.5 8.31468 10.718C8.4027 10.9359 8.5337 11.1338 8.69988 11.3C8.86605 11.4662 9.064 11.5972 9.28191 11.6852C9.49981 11.7732 9.73321 11.8164 9.96819 11.8123C10.1906 11.8083 10.41 11.7621 10.6149 11.676L8.32381 9.38496ZM8.42061 4.26378C8.93761 4.14276 9.46694 4.08227 9.99791 4.08352L9.99967 4.08352C12.6167 4.08352 14.7239 5.58035 16.2234 7.17981C16.9663 7.97224 17.5382 8.76753 17.9243 9.36541C18.0876 9.61819 18.2167 9.8343 18.3107 9.99819C17.8717 10.7682 17.3635 11.497 16.7925 12.1756C16.5258 12.4926 16.5665 12.9657 16.8835 13.2324C17.2004 13.4991 17.6735 13.4583 17.9402 13.1414C18.6647 12.2804 19.2973 11.3461 19.8278 10.3537C19.9425 10.1392 19.946 9.88236 19.8372 9.66477L19.1663 10.0002C19.8372 9.66477 19.837 9.66452 19.8369 9.66424L19.8365 9.66355L19.8356 9.66171L19.8329 9.65623L19.8236 9.63814C19.8158 9.62296 19.8047 9.60162 19.7904 9.57452C19.7617 9.52034 19.72 9.44307 19.6654 9.34603C19.5563 9.15204 19.3954 8.8784 19.1844 8.55162C18.7632 7.8995 18.1373 7.02813 17.3177 6.15389C15.6923 4.42017 13.2164 2.58385 10.0005 2.58352H9.99967V3.33352L10.0014 2.58352L10.0005 2.58352C9.3536 2.58207 8.70867 2.65581 8.07874 2.80326C7.67543 2.89766 7.42501 3.30114 7.51941 3.70445C7.61382 4.10776 8.0173 4.35818 8.42061 4.26378ZM19.1663 10.0002L18.5049 9.64662C18.4418 9.76473 18.377 9.88193 18.3107 9.99819C18.3277 10.0277 18.3434 10.0554 18.358 10.0814C18.406 10.1667 18.4416 10.2326 18.4646 10.2761C18.4761 10.2978 18.4844 10.3139 18.4896 10.324L18.495 10.3345L18.4957 10.336C18.4956 10.3358 18.4955 10.3356 19.1663 10.0002Z" fill="#575756"/>
</g>
<defs>
<clipPath id="clip0_53955_10420">
<rect width="20" height="20" fill="white"/>
</clipPath>
</defs>
</svg>
