<svg width="20" height="20" viewBox="0 0 20 20" fill="none" xmlns="http://www.w3.org/2000/svg">
<path fill-rule="evenodd" clip-rule="evenodd" d="M14.0522 5.58326C13.7281 4.35905 13.1041 3.68129 12.4076 3.28956C11.6844 2.88278 10.819 2.75 9.98876 2.75C9.3585 2.75 8.50383 2.85389 7.73172 3.25788C6.98527 3.64845 6.27966 4.33591 5.92085 5.59661C5.57973 6.79519 5.77435 8.1763 6.28268 9.75364C6.64523 10.8786 7.13805 12.0242 7.6513 13.2172L7.65136 13.2173C7.7977 13.5575 7.9457 13.9015 8.09281 14.25H11.9011C12.0226 13.9886 12.1456 13.728 12.2685 13.4678C12.7953 12.3526 13.3192 11.2434 13.7039 10.0951C14.221 8.55128 14.441 7.05172 14.0522 5.58326ZM9.98876 1.25C10.9528 1.25 12.1076 1.39983 13.143 1.98217C14.2051 2.57958 15.0782 3.59747 15.5023 5.19935C15.9958 7.06344 15.691 8.88547 15.1262 10.5715C14.7109 11.8113 14.1301 13.0405 13.5926 14.1783L13.5926 14.1784L13.5925 14.1784C13.4088 14.5674 13.2301 14.9456 13.0648 15.3099C12.9432 15.5779 12.6761 15.75 12.3818 15.75H7.59349C7.29001 15.75 7.01643 15.5671 6.90044 15.2867C6.70949 14.825 6.50697 14.3543 6.30258 13.8791L6.30257 13.8791C5.77781 12.6592 5.24065 11.4105 4.85498 10.2137C4.31593 8.54109 4.01495 6.8135 4.47815 5.186C4.95594 3.50723 5.94651 2.49904 7.03631 1.92882C8.10045 1.37203 9.22211 1.25 9.98876 1.25ZM7.99998 17.25C7.58577 17.25 7.24998 17.5858 7.24998 18C7.24998 18.4142 7.58577 18.75 7.99998 18.75H12C12.4142 18.75 12.75 18.4142 12.75 18C12.75 17.5858 12.4142 17.25 12 17.25H7.99998Z" fill="#575756"/>
</svg>
