<svg width="20" height="20" viewBox="0 0 20 20" fill="none" xmlns="http://www.w3.org/2000/svg">
<path fill-rule="evenodd" clip-rule="evenodd" d="M13.1537 1.87962C12.461 1.87962 11.7967 2.15478 11.3069 2.64456L3.64862 10.3029C2.84609 11.1054 2.39524 12.1939 2.39524 13.3288C2.39524 14.4637 2.84609 15.5522 3.64862 16.3547C4.45114 17.1572 5.53959 17.6081 6.67452 17.6081C7.80946 17.6081 8.89791 17.1572 9.70043 16.3547L17.3588 8.69638C17.6413 8.41384 18.0994 8.41384 18.3819 8.69638C18.6645 8.97892 18.6645 9.43702 18.3819 9.71956L10.7236 17.3779C9.64973 18.4518 8.19323 19.0551 6.67452 19.0551C5.15582 19.0551 3.69932 18.4518 2.62543 17.3779C1.55155 16.304 0.948242 14.8475 0.948242 13.3288C0.948242 11.8101 1.55155 10.3536 2.62543 9.27971L10.2838 1.62138C11.0449 0.860228 12.0773 0.432617 13.1537 0.432617C14.2301 0.432617 15.2625 0.860227 16.0236 1.62138C16.7848 2.38253 17.2124 3.41487 17.2124 4.4913C17.2124 5.56774 16.7848 6.60008 16.0236 7.36123L16.0233 7.36151L8.35695 15.0196C8.35686 15.0197 8.35676 15.0198 8.35667 15.0198C7.90828 15.4681 7.30022 15.7199 6.66619 15.7199C6.03203 15.7199 5.42385 15.468 4.97543 15.0196C4.52701 14.5711 4.2751 13.963 4.2751 13.3288C4.2751 12.6946 4.52701 12.0865 4.97543 11.638L4.97573 11.6377L12.0507 4.57108C12.3334 4.2887 12.7915 4.28897 13.0739 4.57168C13.3563 4.85439 13.356 5.31249 13.0733 5.59486L5.99862 12.6612C5.82156 12.8383 5.7221 13.0784 5.7221 13.3288C5.7221 13.5792 5.82156 13.8193 5.99862 13.9964C6.17567 14.1734 6.4158 14.2729 6.66619 14.2729C6.91658 14.2729 7.15671 14.1734 7.33376 13.9964L7.33404 13.9961L15.0004 6.33805C15.4902 5.84826 15.7654 5.18397 15.7654 4.4913C15.7654 3.79864 15.4902 3.13435 15.0004 2.64456C14.5106 2.15478 13.8464 1.87962 13.1537 1.87962Z" fill="#575756"/>
</svg>
