<svg width="20" height="20" viewBox="0 0 20 20" fill="none" xmlns="http://www.w3.org/2000/svg">
<g clip-path="url(#clip0_53908_9620)">
<path d="M8.33594 10.834C8.69381 11.3124 9.1504 11.7083 9.67473 11.9947C10.1991 12.2812 10.7789 12.4516 11.3748 12.4942C11.9708 12.5369 12.5689 12.4509 13.1287 12.2421C13.6885 12.0333 14.1969 11.7065 14.6193 11.284L17.1193 8.78396C17.8783 7.99811 18.2982 6.9456 18.2887 5.85312C18.2793 4.76063 17.841 3.71558 17.0685 2.94304C16.296 2.17051 15.2509 1.73231 14.1584 1.72281C13.066 1.71332 12.0134 2.1333 11.2276 2.89229L9.79427 4.31729" stroke="#575756" stroke-width="1.5" stroke-linecap="round" stroke-linejoin="round"/>
<path d="M11.6639 9.16702C11.306 8.68858 10.8494 8.2927 10.3251 8.00623C9.80078 7.71977 9.22098 7.54942 8.62503 7.50674C8.02908 7.46406 7.43091 7.55004 6.87112 7.75887C6.31132 7.96769 5.80298 8.29446 5.38057 8.71702L2.88057 11.217C2.12158 12.0029 1.7016 13.0554 1.7111 14.1479C1.72059 15.2403 2.15879 16.2854 2.93133 17.0579C3.70386 17.8305 4.74891 18.2687 5.8414 18.2782C6.93389 18.2877 7.98639 17.8677 8.77224 17.1087L10.1972 15.6837" stroke="#575756" stroke-width="1.5" stroke-linecap="round" stroke-linejoin="round"/>
</g>
<defs>
<clipPath id="clip0_53908_9620">
<rect width="20" height="20" fill="white"/>
</clipPath>
</defs>
</svg>
