<svg width="20" height="20" viewBox="0 0 20 20" fill="none" xmlns="http://www.w3.org/2000/svg">
<path fill-rule="evenodd" clip-rule="evenodd" d="M16.1868 4.87408C16.4797 4.58119 16.4797 4.10631 16.1868 3.81342C15.8939 3.52053 15.419 3.52053 15.1262 3.81342L10.0002 8.93934L4.87431 3.81342C4.58142 3.52053 4.10654 3.52053 3.81365 3.81342C3.52076 4.10631 3.52076 4.58119 3.81365 4.87408L8.93957 10L3.81244 15.1271C3.51955 15.42 3.51955 15.8949 3.81244 16.1878C4.10534 16.4807 4.58021 16.4807 4.8731 16.1878L10.0002 11.0607L15.1274 16.1878C15.4203 16.4807 15.8951 16.4807 16.188 16.1878C16.4809 15.8949 16.4809 15.42 16.188 15.1271L11.0609 10L16.1868 4.87408Z" fill="#575756"/>
</svg>
