<svg width="20" height="20" viewBox="0 0 20 20" fill="none" xmlns="http://www.w3.org/2000/svg">
<g clip-path="url(#clip0_53955_9939)">
<path fill-rule="evenodd" clip-rule="evenodd" d="M14.165 0.972842C12.8758 0.96164 11.6339 1.45721 10.7066 2.35282L10.7065 2.35277L10.6988 2.36041L9.26549 3.78541C8.97174 4.07745 8.97036 4.55232 9.2624 4.84607C9.55443 5.13982 10.0293 5.1412 10.3231 4.84916L11.7523 3.42818C12.3963 2.80806 13.2578 2.46502 14.1519 2.47279C15.0478 2.48057 15.9047 2.8399 16.5382 3.47337C17.1717 4.10685 17.531 4.9638 17.5388 5.85963C17.5465 6.7534 17.2038 7.61453 16.5841 8.25844L14.0889 10.7536L14.0888 10.7537C13.7425 11.1002 13.3256 11.3682 12.8666 11.5394C12.4076 11.7106 11.9171 11.7811 11.4284 11.7461C10.9397 11.7112 10.4643 11.5715 10.0343 11.3366C9.60437 11.1017 9.22997 10.777 8.93651 10.3847C8.68841 10.053 8.21839 9.98528 7.8867 10.2334C7.55502 10.4815 7.48726 10.9515 7.73536 11.2832C8.15766 11.8477 8.69643 12.3149 9.31514 12.6529C9.93384 12.9909 10.618 13.192 11.3212 13.2423C12.0245 13.2927 12.7303 13.1912 13.3909 12.9448C14.0514 12.6984 14.6513 12.3128 15.1497 11.8142L17.6496 9.31429L17.6497 9.31437L17.6587 9.30499C18.5543 8.3777 19.0499 7.13573 19.0387 5.8466C19.0275 4.55747 18.5104 3.3243 17.5988 2.41271C16.6873 1.50112 15.4541 0.984044 14.165 0.972842ZM8.6786 6.75866C7.97538 6.70829 7.26955 6.80976 6.60899 7.05616C5.94847 7.30256 5.34866 7.68811 4.85024 8.18669L4.85014 8.18678L2.35024 10.6867L2.35016 10.6866L2.3411 10.696C1.44549 11.6233 0.949921 12.8652 0.961123 14.1544C0.972326 15.4435 1.48941 16.6767 2.401 17.5883C3.31259 18.4998 4.54575 19.0169 5.83488 19.0281C7.12402 19.0393 8.36598 18.5438 9.29327 17.6482L9.29335 17.6482L9.30257 17.639L10.7276 16.214C11.0205 15.9211 11.0205 15.4462 10.7276 15.1534C10.4347 14.8605 9.9598 14.8605 9.66691 15.1534L8.24674 16.5735C7.60283 17.1932 6.74169 17.536 5.84792 17.5282C4.95208 17.5204 4.09513 17.1611 3.46166 16.5276C2.82818 15.8941 2.46885 15.0372 2.46107 14.1413C2.4533 13.2476 2.79608 12.3864 3.41574 11.7425L5.9109 9.24735L5.911 9.24725C6.25737 8.90075 6.67421 8.6328 7.13324 8.46157C7.59228 8.29033 8.08277 8.21982 8.57145 8.25482C9.06013 8.28982 9.53557 8.42951 9.96552 8.66441C10.3955 8.89931 10.7699 9.22393 11.0633 9.61625C11.3114 9.94794 11.7814 10.0157 12.1131 9.76759C12.4448 9.51949 12.5126 9.04947 12.2645 8.71778C11.8422 8.15322 11.3034 7.68609 10.6847 7.34806C10.066 7.01003 9.38183 6.80902 8.6786 6.75866Z" fill="#575756"/>
</g>
<defs>
<clipPath id="clip0_53955_9939">
<rect width="20" height="20" fill="white"/>
</clipPath>
</defs>
</svg>
