<svg width="20" height="20" viewBox="0 0 20 20" fill="none" xmlns="http://www.w3.org/2000/svg">
<path fill-rule="evenodd" clip-rule="evenodd" d="M10.0001 0.916992C8.47506 0.916992 7.01253 1.52279 5.93419 2.60113C4.85586 3.67946 4.25006 5.142 4.25006 6.66699C4.25006 9.47315 3.64976 11.2221 3.09164 12.2454C2.81154 12.7589 2.53798 13.0972 2.34622 13.2996C2.25014 13.401 2.17409 13.4689 2.12734 13.5078C2.10396 13.5273 2.08788 13.5396 2.08028 13.5452C2.0784 13.5466 2.07704 13.5476 2.07621 13.5482C1.80672 13.7328 1.68738 14.071 1.78224 14.3843C1.87801 14.7006 2.16956 14.917 2.50006 14.917H17.5001C17.8306 14.917 18.1221 14.7006 18.2179 14.3843C18.3128 14.071 18.1934 13.7327 17.9238 13.5482L17.9198 13.5452C17.9122 13.5396 17.8962 13.5273 17.8728 13.5078C17.826 13.4689 17.75 13.401 17.6539 13.2996C17.4621 13.0972 17.1886 12.7589 16.9085 12.2454C16.3504 11.2221 15.7501 9.47315 15.7501 6.66699C15.7501 5.142 15.1443 3.67946 14.0659 2.60113C12.9876 1.52279 11.5251 0.916992 10.0001 0.916992ZM2.07621 13.5482C2.07536 13.5489 2.07507 13.5491 2.07536 13.5489L2.07795 13.5471L2.08054 13.5453L2.08218 13.5442L2.08235 13.5441C2.08029 13.5455 2.07825 13.5468 2.07621 13.5482ZM15.5916 12.9636C15.6809 13.1272 15.7705 13.2781 15.8592 13.417H4.14091C4.2296 13.2781 4.31926 13.1272 4.40848 12.9636C5.10036 11.6952 5.75006 9.69416 5.75006 6.66699C5.75006 5.53982 6.19782 4.45882 6.99485 3.66179C7.79188 2.86476 8.87289 2.41699 10.0001 2.41699C11.1272 2.41699 12.2082 2.86476 13.0053 3.66179C13.8023 4.45882 14.2501 5.53982 14.2501 6.66699C14.2501 9.69416 14.8998 11.6952 15.5916 12.9636ZM9.2074 17.1237C8.99956 16.7654 8.54062 16.6434 8.18232 16.8512C7.82403 17.0591 7.70206 17.518 7.9099 17.8763C8.12234 18.2425 8.42726 18.5465 8.79413 18.7578C9.161 18.9692 9.57694 19.0804 10.0003 19.0804C10.4237 19.0804 10.8396 18.9692 11.2065 18.7578C11.5734 18.5465 11.8783 18.2425 12.0907 17.8763C12.2986 17.518 12.1766 17.0591 11.8183 16.8512C11.46 16.6434 11.0011 16.7654 10.7932 17.1237C10.7127 17.2626 10.597 17.3779 10.4578 17.458C10.3187 17.5382 10.1609 17.5804 10.0003 17.5804C9.83973 17.5804 9.68195 17.5382 9.5428 17.458C9.40364 17.3779 9.28798 17.2626 9.2074 17.1237Z" fill="#575756"/>
</svg>
