<svg width="22" height="22" viewBox="0 0 22 22" fill="none" xmlns="http://www.w3.org/2000/svg">
<path fill-rule="evenodd" clip-rule="evenodd" d="M10 1.75C8.0827 1.75 6.24041 2.5288 4.87941 3.92074C3.51784 5.31324 2.75001 7.20541 2.75001 9.18182C2.75001 11.59 4.02456 13.9195 5.59027 15.8597L9.15241 12.6538C7.48959 12.2696 6.25001 10.7796 6.25001 9C6.25001 6.92893 7.92894 5.25 10 5.25C11.9157 5.25 13.4959 6.68645 13.7222 8.54101L16.55 5.99595C16.1964 5.23201 15.7151 4.52875 15.1206 3.92074C13.7596 2.5288 11.9173 1.75 10 1.75ZM17.7078 4.95401C17.3085 4.1955 16.8003 3.49304 16.1931 2.87206C14.5535 1.19522 12.3262 0.25 10 0.25C7.67385 0.25 5.44648 1.19522 3.8069 2.87206C2.16788 4.54833 1.25001 6.81832 1.25001 9.18182C1.25001 12.1025 2.78026 14.7822 4.47379 16.8646L0.498283 20.4425C0.1904 20.7196 0.165442 21.1938 0.442536 21.5017C0.71963 21.8096 1.19385 21.8346 1.50173 21.5575L5.45852 17.9964C6.48548 19.1039 7.50931 20.0051 8.2764 20.6298C8.66161 20.9436 8.98355 21.1887 9.21066 21.3565C9.32425 21.4404 9.41422 21.505 9.47665 21.5492C9.50787 21.5713 9.53221 21.5883 9.54918 21.6001L9.56905 21.6139L9.57473 21.6178L9.57648 21.619L9.57708 21.6194C9.57731 21.6195 9.5775 21.6197 10 21L9.5775 21.6197C9.83237 21.7934 10.1676 21.7934 10.4225 21.6197L10 21C10.4225 21.6197 10.4227 21.6195 10.4229 21.6194L10.4235 21.619L10.4253 21.6178L10.431 21.6139L10.4508 21.6001C10.4678 21.5883 10.4921 21.5713 10.5234 21.5492C10.5858 21.505 10.6758 21.4404 10.7894 21.3565C11.0165 21.1887 11.3384 20.9436 11.7236 20.6298C12.4929 20.0034 13.5203 19.0987 14.5502 17.9869C16.5813 15.7943 18.75 12.6588 18.75 9.18182C18.75 8.2355 18.6029 7.30418 18.3212 6.41995L21.5017 3.55747C21.8096 3.28038 21.8346 2.80616 21.5575 2.49828C21.2804 2.19039 20.8062 2.16544 20.4983 2.44253L17.7078 4.95401ZM17.0719 7.54435L13.0851 11.1325C12.7525 11.6127 12.3107 12.0115 11.7956 12.2929L6.57359 16.9928C7.53594 18.0286 8.49874 18.8764 9.22361 19.4667C9.53316 19.7188 9.79826 19.9231 10 20.0742C10.2018 19.9231 10.4668 19.7188 10.7764 19.4667C11.5071 18.8716 12.4797 18.0149 13.4498 16.9676C15.4187 14.8421 17.25 12.0685 17.25 9.18182C17.25 8.62626 17.1893 8.07736 17.0719 7.54435ZM11.9342 10.1502C12.1348 9.81363 12.25 9.42027 12.25 9C12.25 7.75736 11.2426 6.75 10 6.75C8.75737 6.75 7.75001 7.75736 7.75001 9C7.75001 10.2426 8.75737 11.25 10 11.25C10.3357 11.25 10.6542 11.1765 10.9403 11.0447L11.9342 10.1502Z" fill="#575756"/>
</svg>
