<svg width="20" height="20" viewBox="0 0 20 20" fill="none" xmlns="http://www.w3.org/2000/svg">
<path fill-rule="evenodd" clip-rule="evenodd" d="M9.99527 3.33399C9.99527 2.58399 9.99522 2.58399 9.99515 2.58399L9.99491 2.58399L9.99403 2.58399L9.99071 2.58399L9.97797 2.584L9.92887 2.58408L9.7426 2.58474C9.58173 2.5855 9.35066 2.58701 9.06902 2.59002C8.50604 2.59604 7.73958 2.60809 6.92716 2.63223C6.11594 2.65634 5.25288 2.69267 4.49852 2.74769C3.76514 2.80118 3.0709 2.87616 2.63483 2.99278L2.63481 2.99271L2.62443 2.99564C2.10513 3.14256 1.6338 3.42392 1.25805 3.8113C0.882291 4.19867 0.615416 4.67835 0.484378 5.20188C0.480321 5.21809 0.476806 5.23443 0.47384 5.25088C0.203627 6.74927 0.0713232 8.26928 0.0785888 9.79181C0.0692156 11.3258 0.201529 12.8574 0.473844 14.3671C0.478238 14.3915 0.483834 14.4156 0.490614 14.4394C0.635077 14.9467 0.90793 15.4081 1.28281 15.7791C1.65769 16.1501 2.12193 16.4182 2.63066 16.5574L2.63483 16.5585C3.0709 16.6751 3.76514 16.7501 4.49852 16.8036C5.25288 16.8586 6.11594 16.895 6.92716 16.9191C7.73958 16.9432 8.50604 16.9553 9.06901 16.9613C9.35065 16.9643 9.58172 16.9658 9.74259 16.9666L9.92887 16.9672L9.97797 16.9673L9.99071 16.9673L9.99402 16.9673L9.99491 16.9673L9.99515 16.9673C9.99522 16.9673 9.99527 16.9673 9.99527 16.2173C9.99527 16.9673 9.99531 16.9673 9.99538 16.9673L9.99563 16.9673L9.99651 16.9673L9.99982 16.9673L10.0126 16.9673L10.0617 16.9672L10.2479 16.9666C10.4088 16.9658 10.6399 16.9643 10.9215 16.9613C11.4845 16.9553 12.251 16.9432 13.0634 16.9191C13.8746 16.895 14.7377 16.8586 15.492 16.8036C16.2254 16.7501 16.9196 16.6751 17.3557 16.5585L17.3557 16.5586L17.3661 16.5557C17.8854 16.4087 18.3567 16.1274 18.7325 15.74C19.1082 15.3526 19.3751 14.873 19.5062 14.3494C19.5102 14.3332 19.5137 14.3169 19.5167 14.3004C19.7849 12.8131 19.9171 11.3046 19.9119 9.79337C19.9214 8.25917 19.789 6.72738 19.5167 5.21752C19.5137 5.20108 19.5102 5.18475 19.5062 5.16855C19.3751 4.64502 19.1082 4.16534 18.7325 3.77797C18.3567 3.39059 17.8854 3.10923 17.3661 2.96231C17.3574 2.95985 17.3486 2.95754 17.3398 2.95539C16.9097 2.85036 16.2209 2.78216 15.4873 2.7333C14.7343 2.68315 13.8722 2.65001 13.0614 2.62801C12.2496 2.60598 11.4835 2.59499 10.9208 2.58949C10.6393 2.58674 10.4084 2.58537 10.2476 2.58468L10.0615 2.58407L10.0125 2.584L9.99979 2.58399L9.99649 2.58399L9.99562 2.58399L9.99538 2.58399C9.99531 2.58399 9.99527 2.58399 9.99527 3.33399ZM9.99527 3.33399L9.99525 4.08399L9.9951 4.08399L9.99442 4.08399L9.9915 4.08399L9.97958 4.084L9.93219 4.08408L9.74963 4.08473C9.59136 4.08547 9.36332 4.08696 9.08506 4.08993C8.52825 4.09589 7.77179 4.1078 6.97171 4.13157C6.17043 4.15538 5.33141 4.19093 4.60764 4.24372C3.8675 4.2977 3.3099 4.36596 3.02761 4.44046C2.76436 4.51592 2.52545 4.65907 2.33473 4.85568C2.14807 5.04812 2.01401 5.28514 1.94519 5.54399C1.69427 6.94476 1.57156 8.36552 1.57859 9.78861L1.57863 9.79703L1.57859 9.79703C1.56961 11.2265 1.69155 12.6538 1.94287 14.061C2.01882 14.3074 2.15447 14.5314 2.33796 14.713C2.52896 14.902 2.76537 15.0387 3.02446 15.11C3.30573 15.1848 3.86473 15.2534 4.60764 15.3076C5.33141 15.3604 6.17043 15.3959 6.97171 15.4197C7.77179 15.4435 8.52825 15.4554 9.08506 15.4614C9.36332 15.4643 9.59136 15.4658 9.74963 15.4666L9.93219 15.4672L9.97958 15.4673L9.9915 15.4673L9.99442 15.4673L9.9951 15.4673L9.99525 15.4673L9.99527 16.2173L9.99528 15.4673L9.99543 15.4673L9.99611 15.4673L9.99903 15.4673L10.011 15.4673L10.0583 15.4672L10.2409 15.4666C10.3992 15.4658 10.6272 15.4643 10.9055 15.4614C11.4623 15.4554 12.2187 15.4435 13.0188 15.4197C13.8201 15.3959 14.6591 15.3604 15.3829 15.3076C16.1231 15.2536 16.6807 15.1853 16.963 15.1108C17.2262 15.0354 17.4651 14.8922 17.6558 14.6956C17.8425 14.5032 17.9765 14.2662 18.0453 14.0073C18.2943 12.6172 18.417 11.2073 18.4119 9.79502L18.4119 9.78761L18.412 9.78761C18.421 8.35373 18.2982 6.92207 18.0453 5.51067C17.9765 5.25182 17.8425 5.01479 17.6558 4.82235C17.467 4.62766 17.2309 4.48539 16.9707 4.40937C16.6801 4.34068 16.1207 4.27881 15.3876 4.22999C14.6625 4.1817 13.8225 4.14921 13.0208 4.12746C12.2201 4.10574 11.4633 4.09486 10.9062 4.08942C10.6278 4.0867 10.3996 4.08534 10.2412 4.08466L10.0585 4.08407L10.011 4.084L9.99907 4.08399L9.99613 4.08399L9.99544 4.08399L9.99529 4.08399L9.99527 3.33399ZM8.49576 6.41446C8.2636 6.28243 7.97874 6.28382 7.74789 6.41811C7.51703 6.5524 7.375 6.79933 7.375 7.06641L7.375 12.5164C7.375 12.7835 7.51703 13.0304 7.74788 13.1647C7.97874 13.299 8.2636 13.3004 8.49576 13.1684L13.2874 10.4434C13.5219 10.31 13.6667 10.0611 13.6667 9.79141C13.6667 9.52171 13.5219 9.27278 13.2874 9.13946L8.49576 6.41446ZM11.3995 9.79141L8.875 11.2271L8.875 8.35573L11.3995 9.79141Z" fill="#575756"/>
</svg>
