<svg width="20" height="20" viewBox="0 0 20 20" fill="none" xmlns="http://www.w3.org/2000/svg">
<path d="M18.7786 5.35065C18.6796 4.95516 18.478 4.5928 18.1941 4.30016C17.9103 4.00752 17.5542 3.79497 17.1619 3.68399C15.7286 3.33399 9.99527 3.33399 9.99527 3.33399C9.99527 3.33399 4.26194 3.33399 2.8286 3.71732C2.43631 3.82831 2.08025 4.04085 1.79639 4.33349C1.51253 4.62613 1.31092 4.98849 1.21193 5.38398C0.949613 6.83861 0.821297 8.31424 0.8286 9.79232C0.819249 11.2815 0.947573 12.7684 1.21193 14.234C1.32107 14.6172 1.52719 14.9658 1.81039 15.246C2.09358 15.5263 2.44428 15.7288 2.8286 15.834C4.26193 16.2173 9.99527 16.2173 9.99527 16.2173C9.99527 16.2173 15.7286 16.2173 17.1619 15.834C17.5542 15.723 17.9103 15.5105 18.1941 15.2178C18.478 14.9252 18.6796 14.5628 18.7786 14.1673C19.0389 12.7236 19.1672 11.2593 19.1619 9.79232C19.1713 8.30312 19.043 6.81624 18.7786 5.35065Z" stroke="#575756" stroke-width="1.5" stroke-linecap="round" stroke-linejoin="round"/>
<path d="M8.125 12.5164L12.9167 9.79141L8.125 7.06641L8.125 12.5164Z" stroke="#575756" stroke-width="1.5" stroke-linecap="round" stroke-linejoin="round"/>
</svg>
