<svg width="20" height="20" viewBox="0 0 20 20" fill="none" xmlns="http://www.w3.org/2000/svg">
<path fill-rule="evenodd" clip-rule="evenodd" d="M9.99935 4.33301C9.9073 4.33301 9.83268 4.25839 9.83268 4.16634C9.83268 4.07429 9.9073 3.99967 9.99935 3.99967C10.0914 3.99967 10.166 4.07429 10.166 4.16634C10.166 4.25839 10.0914 4.33301 9.99935 4.33301ZM11.8327 4.16634C11.8327 3.15382 11.0119 2.33301 9.99935 2.33301C8.98683 2.33301 8.16602 3.15382 8.16602 4.16634C8.16602 5.17886 8.98683 5.99967 9.99935 5.99967C11.0119 5.99967 11.8327 5.17886 11.8327 4.16634ZM9.83268 10.0023C9.83268 10.0943 9.9073 10.1689 9.99935 10.1689C10.0914 10.1689 10.166 10.0943 10.166 10.0023C10.166 9.91023 10.0914 9.83561 9.99935 9.83561C9.9073 9.83561 9.83268 9.91023 9.83268 10.0023ZM9.99935 8.16895C11.0119 8.16895 11.8327 8.98976 11.8327 10.0023C11.8327 11.0148 11.0119 11.8356 9.99935 11.8356C8.98683 11.8356 8.16602 11.0148 8.16602 10.0023C8.16602 8.98976 8.98683 8.16895 9.99935 8.16895ZM9.83268 15.8343C9.83268 15.9264 9.9073 16.001 9.99935 16.001C10.0914 16.001 10.166 15.9264 10.166 15.8343C10.166 15.7423 10.0914 15.6676 9.99935 15.6676C9.9073 15.6676 9.83268 15.7423 9.83268 15.8343ZM9.99935 14.001C11.0119 14.001 11.8327 14.8218 11.8327 15.8343C11.8327 16.8468 11.0119 17.6676 9.99935 17.6676C8.98683 17.6676 8.16602 16.8468 8.16602 15.8343C8.16602 14.8218 8.98683 14.001 9.99935 14.001Z" fill="#575756"/>
</svg>
