<svg width="20" height="20" viewBox="0 0 20 20" fill="none" xmlns="http://www.w3.org/2000/svg">
<path d="M3.33106 14.1665L16.6644 14.1665C17.5849 14.1665 18.3311 13.4203 18.3311 12.4998L18.3311 4.1665C18.3311 3.24603 17.5849 2.49984 16.6644 2.49984L3.33106 2.49983C2.41059 2.49983 1.66439 3.24602 1.66439 4.1665L1.66439 12.4998C1.66439 13.4203 2.41058 14.1665 3.33106 14.1665Z" stroke="#575756" stroke-width="1.5" stroke-linecap="round" stroke-linejoin="round"/>
<path d="M6.99902 14.501L6.99902 17.1676C6.99902 17.256 7.15706 17.3408 7.43836 17.4033C7.71967 17.4659 8.1012 17.501 8.49902 17.501L11.499 17.501C11.8968 17.501 12.2784 17.4659 12.5597 17.4033C12.841 17.3408 12.999 17.256 12.999 17.1676L12.999 14.501" stroke="#575756" stroke-width="1.5" stroke-linecap="round" stroke-linejoin="round"/>
</svg>
