<svg width="20" height="20" viewBox="0 0 20 20" fill="none" xmlns="http://www.w3.org/2000/svg">
<path fill-rule="evenodd" clip-rule="evenodd" d="M10 0.916016H9.99869H9.9974C9.79848 0.916016 9.60772 0.995033 9.46706 1.13569L6.13373 4.46902C5.84084 4.76191 5.84084 5.23679 6.13373 5.52968C6.42663 5.82257 6.9015 5.82257 7.19439 5.52968L9.25 3.47407V12.4993C9.25 12.9136 9.58579 13.2493 10 13.2493C10.4142 13.2493 10.75 12.9136 10.75 12.4993V3.47928L12.8004 5.52968C13.0933 5.82257 13.5682 5.82257 13.8611 5.52968C14.154 5.23679 14.154 4.76191 13.8611 4.46902L10.5663 1.17424C10.4288 1.01604 10.2261 0.916016 10 0.916016ZM4.08594 10C4.08594 9.58579 3.75015 9.25 3.33594 9.25C2.92172 9.25 2.58594 9.58579 2.58594 10V16.6667C2.58594 17.3076 2.84055 17.9223 3.29376 18.3755C3.74698 18.8287 4.36166 19.0833 5.0026 19.0833H15.0026C15.6435 19.0833 16.2582 18.8287 16.7114 18.3755C17.1647 17.9223 17.4193 17.3076 17.4193 16.6667V10C17.4193 9.58579 17.0835 9.25 16.6693 9.25C16.2551 9.25 15.9193 9.58579 15.9193 10V16.6667C15.9193 16.9098 15.8227 17.1429 15.6508 17.3148C15.4789 17.4868 15.2457 17.5833 15.0026 17.5833H5.0026C4.75949 17.5833 4.52633 17.4868 4.35442 17.3148C4.18251 17.1429 4.08594 16.9098 4.08594 16.6667V10Z" fill="#575756"/>
</svg>
