<svg width="20" height="20" viewBox="0 0 20 20" fill="none" xmlns="http://www.w3.org/2000/svg">
<path fill-rule="evenodd" clip-rule="evenodd" d="M9.9998 1.75C8.29467 1.75 6.65587 2.4426 5.44489 3.6811C4.23336 4.92017 3.5498 6.60422 3.5498 8.36364C3.5498 9.87723 4.11632 11.3595 4.94365 12.7125C5.11844 12.327 5.40175 11.9904 5.75294 11.727C6.34964 11.2795 7.12352 11.0498 7.9 11.0498H12.1C12.8765 11.0498 13.6504 11.2795 14.2471 11.727C14.5981 11.9903 14.8814 12.3268 15.0562 12.7121C15.8834 11.3592 16.4498 9.8771 16.4498 8.36364C16.4498 6.60422 15.7663 4.92017 14.5547 3.6811C13.3437 2.4426 11.7049 1.75 9.9998 1.75ZM13.7503 14.522C13.7501 14.5146 13.75 14.5072 13.75 14.4998V13.5998C13.75 13.4024 13.6464 13.1515 13.3471 12.927C13.0436 12.6994 12.5966 12.5498 12.1 12.5498H7.9C7.40344 12.5498 6.95642 12.6994 6.65294 12.927C6.3536 13.1515 6.25 13.4024 6.25 13.5998V14.4998C6.25 14.5074 6.24989 14.5149 6.24966 14.5224C6.47824 14.7977 6.71289 15.0639 6.95002 15.3199C7.82014 16.2592 8.69268 17.0279 9.34841 17.5619C9.6037 17.7698 9.82523 17.9414 9.9998 18.073C10.1744 17.9414 10.3959 17.7698 10.6512 17.5619C11.3069 17.0279 12.1795 16.2592 13.0496 15.3199C13.2868 15.0637 13.5216 14.7974 13.7503 14.522ZM9.9998 19C9.5773 19.6197 9.57711 19.6195 9.57689 19.6194L9.57631 19.619L9.57467 19.6179L9.56942 19.6143L9.55127 19.6017L9.52275 19.5818L9.48543 19.5555C9.42886 19.5154 9.34748 19.457 9.24483 19.3812C9.0396 19.2296 8.7489 19.0082 8.4012 18.725C7.70693 18.1596 6.77947 17.3431 5.84959 16.3392C4.0185 14.3625 2.0498 11.5224 2.0498 8.36364C2.0498 6.21714 2.88339 4.15525 4.37238 2.63242C5.86193 1.10902 7.88583 0.25 9.9998 0.25C12.1138 0.25 14.1377 1.10902 15.6272 2.63242C17.1162 4.15525 17.9498 6.21714 17.9498 8.36364C17.9498 11.5224 15.9811 14.3625 14.15 16.3392C13.2201 17.3431 12.2927 18.1596 11.5984 18.725C11.2507 19.0082 10.96 19.2296 10.7548 19.3812C10.6521 19.457 10.5707 19.5154 10.5142 19.5555C10.4859 19.5755 10.4638 19.591 10.4483 19.6017L10.4302 19.6143L10.4249 19.6179L10.4233 19.619L10.4227 19.6194C10.4225 19.6195 10.4223 19.6197 9.9998 19ZM9.9998 19L10.4223 19.6197C10.1674 19.7934 9.83217 19.7934 9.5773 19.6197L9.9998 19ZM10.0002 6.25C9.4203 6.25 8.9502 6.7201 8.9502 7.3C8.9502 7.8799 9.4203 8.35 10.0002 8.35C10.5801 8.35 11.0502 7.8799 11.0502 7.3C11.0502 6.7201 10.5801 6.25 10.0002 6.25ZM7.4502 7.3C7.4502 5.89167 8.59187 4.75 10.0002 4.75C11.4085 4.75 12.5502 5.89167 12.5502 7.3C12.5502 8.70833 11.4085 9.85 10.0002 9.85C8.59187 9.85 7.4502 8.70833 7.4502 7.3Z" fill="#575756"/>
</svg>
