<svg width="20" height="20" viewBox="0 0 20 20" fill="none" xmlns="http://www.w3.org/2000/svg">
<path fill-rule="evenodd" clip-rule="evenodd" d="M1.98353 7.77597L0 6.8127L2.11829 6.18369L10 3.84326L17.8817 6.18369L20 6.8127L18.0165 7.77597L17.7858 7.88797C17.7836 7.89449 17.7813 7.90101 17.7788 7.90751L15.0205 15.2661C14.911 15.5584 14.6273 15.7526 14.31 15.7526H6.17355C5.86756 15.7526 5.59166 15.5718 5.47434 15.2945L2.37344 7.96532L1.98353 7.77597ZM4.43684 8.96738L6.67897 14.2668L13.7818 14.2668L15.8139 8.84563L10 11.669L4.43684 8.96738ZM10 10.0113L4.10182 7.14695L10 5.39553L15.8982 7.14695L10 10.0113Z" fill="#575756"/>
</svg>
