<svg width="20" height="20" viewBox="0 0 20 20" fill="none" xmlns="http://www.w3.org/2000/svg">
<path fill-rule="evenodd" clip-rule="evenodd" d="M17.5807 12.5C17.5807 13.0063 17.1703 13.4167 16.6641 13.4167L3.33073 13.4167C2.82447 13.4167 2.41406 13.0063 2.41406 12.5L2.41406 4.16667C2.41406 3.6604 2.82447 3.25 3.33073 3.25L16.6641 3.25C17.1703 3.25 17.5807 3.66041 17.5807 4.16667L17.5807 12.5ZM16.6641 14.9167C17.9987 14.9167 19.0807 13.8347 19.0807 12.5L19.0807 4.16667C19.0807 2.83198 17.9987 1.75 16.6641 1.75L3.33073 1.75C1.99604 1.75 0.914062 2.83198 0.914062 4.16667L0.914061 12.5C0.91406 13.8347 1.99604 14.9167 3.33073 14.9167L6.24869 14.9167L6.24869 17.1678C6.24869 17.4288 6.36842 17.6216 6.47018 17.7347C6.56825 17.8437 6.67808 17.9132 6.75831 17.9563C6.91979 18.0429 7.10523 18.0979 7.27533 18.1357C7.62591 18.2136 8.06521 18.2511 8.49869 18.2511L11.4987 18.2511C11.9322 18.2511 12.3715 18.2136 12.7221 18.1357C12.8922 18.0979 13.0776 18.0429 13.2391 17.9563C13.3193 17.9132 13.4291 17.8437 13.5272 17.7347C13.629 17.6216 13.7487 17.4288 13.7487 17.1678L13.7487 14.9167L16.6641 14.9167ZM12.2487 14.9167L7.74869 14.9167L7.74869 16.699C7.95068 16.7308 8.21271 16.7511 8.49869 16.7511L11.4987 16.7511C11.7847 16.7511 12.0467 16.7308 12.2487 16.699L12.2487 14.9167Z" fill="#575756"/>
</svg>
