<svg width="20" height="22" viewBox="0 0 20 22" fill="none" xmlns="http://www.w3.org/2000/svg">
<path d="M18 9.18182C18 15.5455 10 21 10 21C10 21 2 15.5455 2 9.18182C2 7.01187 2.84285 4.93079 4.34315 3.3964C5.84344 1.86201 7.87827 1 10 1C12.1217 1 14.1566 1.86201 15.6569 3.3964C17.1571 4.93079 18 7.01187 18 9.18182Z" stroke="#575756" stroke-width="1.5" stroke-linecap="round" stroke-linejoin="round"/>
<path d="M10 12C11.6569 12 13 10.6569 13 9C13 7.34315 11.6569 6 10 6C8.34315 6 7 7.34315 7 9C7 10.6569 8.34315 12 10 12Z" stroke="#575756" stroke-width="1.5" stroke-linecap="round" stroke-linejoin="round"/>
</svg>
