<svg width="20" height="20" viewBox="0 0 20 20" fill="none" xmlns="http://www.w3.org/2000/svg">
<path fill-rule="evenodd" clip-rule="evenodd" d="M15.8337 2.55957C15.6226 2.55957 15.4137 2.60114 15.2187 2.6819C15.0237 2.76266 14.8466 2.88103 14.6973 3.03026L3.58818 14.1394L2.73592 17.2643L5.86085 16.4121L16.97 5.30293C17.1192 5.1537 17.2376 4.97655 17.3184 4.78157C17.3991 4.5866 17.4407 4.37763 17.4407 4.16659C17.4407 3.95555 17.3991 3.74658 17.3184 3.55161C17.2376 3.35664 17.1192 3.17948 16.97 3.03026C16.8208 2.88103 16.6436 2.76266 16.4487 2.6819C16.2537 2.60114 16.0447 2.55957 15.8337 2.55957ZM14.6447 1.29608C15.0216 1.13994 15.4257 1.05957 15.8337 1.05957C16.2417 1.05957 16.6457 1.13994 17.0227 1.29608C17.3996 1.45222 17.7422 1.68108 18.0307 1.9696C18.3192 2.25811 18.5481 2.60062 18.7042 2.97759C18.8603 3.35455 18.9407 3.75858 18.9407 4.16659C18.9407 4.57461 18.8603 4.97864 18.7042 5.3556C18.5481 5.73256 18.3192 6.07508 18.0307 6.36359L6.78067 17.6136C6.68838 17.7059 6.5736 17.7725 6.44768 17.8068L1.86435 19.0568C1.60469 19.1276 1.32699 19.0539 1.13668 18.8636C0.946367 18.6733 0.872621 18.3956 0.943437 18.1359L2.19344 13.5526C2.22778 13.4267 2.29439 13.3119 2.38668 13.2196L13.6367 1.9696C13.9252 1.68108 14.2677 1.45222 14.6447 1.29608Z" fill="#575756"/>
</svg>
