<svg width="20" height="20" viewBox="0 0 20 20" fill="none" xmlns="http://www.w3.org/2000/svg">
<path fill-rule="evenodd" clip-rule="evenodd" d="M2.07502 10.6349C1.9111 10.3811 1.78156 10.1643 1.68746 10.0002C1.78156 9.83604 1.9111 9.61919 2.07502 9.36539C2.46115 8.76751 3.03309 7.97222 3.77599 7.17979C5.27548 5.58033 7.38264 4.0835 9.99967 4.0835C12.6167 4.0835 14.7239 5.58033 16.2234 7.17979C16.9663 7.97222 17.5382 8.76751 17.9243 9.36539C18.0882 9.61919 18.2178 9.83604 18.3119 10.0002C18.2178 10.1643 18.0882 10.3811 17.9243 10.6349C17.5382 11.2328 16.9663 12.0281 16.2234 12.8205C14.7239 14.42 12.6167 15.9168 9.99967 15.9168C7.38264 15.9168 5.27548 14.42 3.77599 12.8205C3.03309 12.0281 2.46115 11.2328 2.07502 10.6349ZM19.8369 9.66422C19.837 9.6645 19.8372 9.66475 19.1663 10.0002C19.8372 10.3356 19.837 10.3358 19.8369 10.3361L19.8365 10.3368L19.8356 10.3386L19.8329 10.3441L19.8236 10.3622C19.8158 10.3774 19.8047 10.3987 19.7904 10.4258C19.7617 10.48 19.72 10.5573 19.6654 10.6543C19.5563 10.8483 19.3954 11.1219 19.1844 11.4487C18.7632 12.1008 18.1373 12.9722 17.3177 13.8465C15.6921 15.5803 13.216 17.4168 9.99967 17.4168C6.78338 17.4168 4.3072 15.5803 2.68169 13.8465C1.86209 12.9722 1.23612 12.1008 0.814958 11.4487C0.603911 11.1219 0.443068 10.8483 0.333949 10.6543C0.279361 10.5573 0.237633 10.48 0.208959 10.4258C0.194619 10.3987 0.183537 10.3774 0.175735 10.3622L0.166494 10.3441L0.163723 10.3386L0.162801 10.3368L0.162455 10.3361C0.162315 10.3358 0.162187 10.3356 0.833008 10.0002C0.162187 9.66475 0.162315 9.6645 0.162455 9.66422L0.162801 9.66353L0.163723 9.66169L0.166494 9.65621L0.175735 9.63812C0.183537 9.62294 0.194619 9.6016 0.208959 9.5745C0.237633 9.52032 0.279361 9.44305 0.333949 9.34601C0.443068 9.15202 0.603911 8.87838 0.814958 8.5516C1.23612 7.89948 1.86209 7.02811 2.68169 6.15387C4.3072 4.41999 6.78338 2.5835 9.99967 2.5835C13.216 2.5835 15.6921 4.41999 17.3177 6.15387C18.1373 7.02811 18.7632 7.89948 19.1844 8.5516C19.3954 8.87838 19.5563 9.15202 19.6654 9.34601C19.72 9.44305 19.7617 9.52032 19.7904 9.5745C19.8047 9.6016 19.8158 9.62294 19.8236 9.63812L19.8329 9.65621L19.8356 9.66169L19.8365 9.66353L19.8369 9.66422ZM19.1663 10.0002L19.8372 9.66475C19.9427 9.8759 19.9427 10.1244 19.8372 10.3356L19.1663 10.0002ZM0.162187 9.66475L0.833008 10.0002L0.162187 10.3356C0.0566146 10.1244 0.0566146 9.8759 0.162187 9.66475ZM8.25 10C8.25 9.0335 9.0335 8.25 10 8.25C10.9665 8.25 11.75 9.0335 11.75 10C11.75 10.9665 10.9665 11.75 10 11.75C9.0335 11.75 8.25 10.9665 8.25 10ZM10 6.75C8.20507 6.75 6.75 8.20507 6.75 10C6.75 11.7949 8.20507 13.25 10 13.25C11.7949 13.25 13.25 11.7949 13.25 10C13.25 8.20507 11.7949 6.75 10 6.75Z" fill="#575756"/>
</svg>
