<svg width="20" height="20" viewBox="0 0 20 20" fill="none" xmlns="http://www.w3.org/2000/svg">
<g clip-path="url(#clip0_53955_10019)">
<path fill-rule="evenodd" clip-rule="evenodd" d="M10.0013 2.41699C5.81314 2.41699 2.41797 5.81217 2.41797 10.0003C2.41797 14.1885 5.81314 17.5837 10.0013 17.5837C14.1895 17.5837 17.5846 14.1885 17.5846 10.0003C17.5846 5.81217 14.1895 2.41699 10.0013 2.41699ZM0.917969 10.0003C0.917969 4.98374 4.98472 0.916992 10.0013 0.916992C15.0179 0.916992 19.0846 4.98374 19.0846 10.0003C19.0846 15.0169 15.0179 19.0837 10.0013 19.0837C4.98472 19.0837 0.917969 15.0169 0.917969 10.0003Z" fill="#575756"/>
<path fill-rule="evenodd" clip-rule="evenodd" d="M13.0303 8.03033C13.3232 7.73744 13.3232 7.26256 13.0303 6.96967C12.7374 6.67678 12.2626 6.67678 11.9697 6.96967L10 8.93934L8.03033 6.96967C7.73744 6.67678 7.26256 6.67678 6.96967 6.96967C6.67678 7.26256 6.67678 7.73744 6.96967 8.03033L8.93934 10L6.96967 11.9697C6.67678 12.2626 6.67678 12.7374 6.96967 13.0303C7.26256 13.3232 7.73744 13.3232 8.03033 13.0303L10 11.0607L11.9697 13.0303C12.2626 13.3232 12.7374 13.3232 13.0303 13.0303C13.3232 12.7374 13.3232 12.2626 13.0303 11.9697L11.0607 10L13.0303 8.03033Z" fill="#575756"/>
</g>
<defs>
<clipPath id="clip0_53955_10019">
<rect width="20" height="20" fill="white"/>
</clipPath>
</defs>
</svg>
