<svg width="20" height="20" viewBox="0 0 20 20" fill="none" xmlns="http://www.w3.org/2000/svg">
<path fill-rule="evenodd" clip-rule="evenodd" d="M4.33203 10.0003C4.33203 10.0924 4.25741 10.167 4.16536 10.167C4.07332 10.167 3.9987 10.0924 3.9987 10.0003C3.9987 9.90828 4.07332 9.83366 4.16536 9.83366C4.25741 9.83366 4.33203 9.90828 4.33203 10.0003ZM4.16536 8.16699C3.15284 8.16699 2.33203 8.9878 2.33203 10.0003C2.33203 11.0128 3.15284 11.8337 4.16536 11.8337C5.17789 11.8337 5.9987 11.0128 5.9987 10.0003C5.9987 8.9878 5.17789 8.16699 4.16536 8.16699ZM10.0013 10.167C10.0933 10.167 10.168 10.0924 10.168 10.0003C10.168 9.90828 10.0933 9.83366 10.0013 9.83366C9.90925 9.83366 9.83464 9.90828 9.83464 10.0003C9.83464 10.0924 9.90925 10.167 10.0013 10.167ZM8.16797 10.0003C8.16797 8.9878 8.98878 8.16699 10.0013 8.16699C11.0138 8.16699 11.8346 8.9878 11.8346 10.0003C11.8346 11.0128 11.0138 11.8337 10.0013 11.8337C8.98878 11.8337 8.16797 11.0128 8.16797 10.0003ZM15.8333 10.167C15.9254 10.167 16 10.0924 16 10.0003C16 9.90828 15.9254 9.83366 15.8333 9.83366C15.7413 9.83366 15.6667 9.90828 15.6667 10.0003C15.6667 10.0924 15.7413 10.167 15.8333 10.167ZM14 10.0003C14 8.9878 14.8208 8.16699 15.8333 8.16699C16.8459 8.16699 17.6667 8.9878 17.6667 10.0003C17.6667 11.0128 16.8459 11.8337 15.8333 11.8337C14.8208 11.8337 14 11.0128 14 10.0003Z" fill="#575756"/>
</svg>
