<svg width="20" height="20" viewBox="0 0 20 20" fill="none" xmlns="http://www.w3.org/2000/svg">
<path fill-rule="evenodd" clip-rule="evenodd" d="M18.8603 9.36143L3.02077 1.64654C2.7443 1.51189 2.41365 1.55964 2.18658 1.76701C1.95951 1.97439 1.88204 2.29937 1.99113 2.58688L4.80041 9.99075L1.92429 17.3689C1.8126 17.6554 1.88713 17.9811 2.11232 18.1905C2.3375 18.3999 2.66771 18.4507 2.94538 18.3185L18.8569 10.7459C19.1273 10.6336 19.318 10.3675 19.3194 10.0563C19.3208 9.74406 19.1312 9.47552 18.8603 9.36143ZM15.2777 10.788L6.1157 10.7466L4.00894 16.1511L15.2777 10.788ZM15.2842 9.28806L4.06468 3.82346L6.12241 9.24663L15.2842 9.28806Z" fill="#575756"/>
</svg>
