<svg width="20" height="20" viewBox="0 0 20 20" fill="none" xmlns="http://www.w3.org/2000/svg">
<path fill-rule="evenodd" clip-rule="evenodd" d="M1.58301 5.83317C1.58301 5.32691 1.99341 4.9165 2.49967 4.9165H11.6663C12.1726 4.9165 12.583 5.32691 12.583 5.83317V10.0002V14.1665C12.583 14.6728 12.1726 15.0832 11.6663 15.0832H2.49967C1.99341 15.0832 1.58301 14.6728 1.58301 14.1665V5.83317ZM14.083 8.54277V5.83317C14.083 4.49848 13.001 3.4165 11.6663 3.4165H2.49967C1.16499 3.4165 0.0830078 4.49848 0.0830078 5.83317V14.1665C0.0830078 15.5012 1.16499 16.5832 2.49967 16.5832H11.6663C13.001 16.5832 14.083 15.5012 14.083 14.1665V11.4576L18.7304 14.7771C18.959 14.9404 19.2597 14.9623 19.5095 14.8337C19.7593 14.7052 19.9163 14.4478 19.9163 14.1668V5.8335C19.9163 5.55256 19.7593 5.29517 19.5095 5.16662C19.2597 5.03807 18.959 5.0599 18.7304 5.2232L14.083 8.54277ZM18.4163 12.7094L14.6234 10.0002L18.4163 7.29089V12.7094Z" fill="#575756"/>
</svg>
