<svg width="20" height="20" viewBox="0 0 20 20" fill="none" xmlns="http://www.w3.org/2000/svg">
<g clip-path="url(#clip0_53955_9884)">
<path fill-rule="evenodd" clip-rule="evenodd" d="M2.68645 2.68548C2.85836 2.51357 3.09152 2.41699 3.33464 2.41699H10.8346C11.0778 2.41699 11.3109 2.51357 11.4828 2.68548C11.6547 2.85739 11.7513 3.09054 11.7513 3.33366V4.16699C11.7513 4.58121 12.0871 4.91699 12.5013 4.91699C12.9155 4.91699 13.2513 4.58121 13.2513 4.16699V3.33366C13.2513 2.69272 12.9967 2.07803 12.5435 1.62482C12.0903 1.1716 11.4756 0.916992 10.8346 0.916992H3.33464C2.6937 0.916992 2.07901 1.1716 1.62579 1.62482C1.17258 2.07803 0.917969 2.69272 0.917969 3.33366V10.8337C0.917969 11.4746 1.17258 12.0893 1.62579 12.5425C2.07901 12.9957 2.6937 13.2503 3.33464 13.2503H4.16797C4.58218 13.2503 4.91797 12.9145 4.91797 12.5003C4.91797 12.0861 4.58218 11.7503 4.16797 11.7503H3.33464C3.09152 11.7503 2.85836 11.6537 2.68645 11.4818C2.51455 11.3099 2.41797 11.0768 2.41797 10.8337V3.33366C2.41797 3.09054 2.51455 2.85739 2.68645 2.68548ZM8.25 9.16667C8.25 8.66041 8.66041 8.25 9.16667 8.25H16.6667C17.1729 8.25 17.5833 8.66041 17.5833 9.16667V16.6667C17.5833 17.1729 17.1729 17.5833 16.6667 17.5833H9.16667C8.66041 17.5833 8.25 17.1729 8.25 16.6667V9.16667ZM9.16667 6.75C7.83198 6.75 6.75 7.83198 6.75 9.16667V16.6667C6.75 18.0014 7.83198 19.0833 9.16667 19.0833H16.6667C18.0014 19.0833 19.0833 18.0014 19.0833 16.6667V9.16667C19.0833 7.83198 18.0014 6.75 16.6667 6.75H9.16667Z" fill="#575756"/>
</g>
<defs>
<clipPath id="clip0_53955_9884">
<rect width="20" height="20" fill="white"/>
</clipPath>
</defs>
</svg>
