<svg width="20" height="20" viewBox="0 0 20 20" fill="none" xmlns="http://www.w3.org/2000/svg">
<path d="M19.167 3.3335V8.3335H14.167" stroke="#575756" stroke-width="1.5" stroke-linecap="round" stroke-linejoin="round"/>
<path fill-rule="evenodd" clip-rule="evenodd" d="M8.50543 3.41837C9.61754 3.16674 10.7753 3.20093 11.8706 3.51776C12.9659 3.83458 13.9632 4.42371 14.7692 5.23018C14.7748 5.23572 14.7804 5.24118 14.7861 5.24655L18.6528 8.87988C18.9546 9.16352 19.4293 9.14876 19.7129 8.8469C19.9966 8.54504 19.9818 8.07039 19.6799 7.78675L15.8216 4.16127C14.8379 3.17996 13.6223 2.46294 12.2874 2.07683C10.9487 1.6896 9.53366 1.64781 8.1744 1.95535C6.81515 2.2629 5.55596 2.90977 4.51432 3.83558C3.47268 4.7614 2.68254 5.936 2.21764 7.24978C2.07946 7.64027 2.28399 8.06884 2.67448 8.20702C3.06497 8.3452 3.49353 8.14066 3.63171 7.75018C4.01209 6.67527 4.65856 5.71423 5.51081 4.95674C6.36306 4.19925 7.39331 3.67 8.50543 3.41837ZM0.0831727 11.6507C0.091569 11.2438 0.424068 10.9165 0.83301 10.9165H5.83301C6.24722 10.9165 6.58301 11.2523 6.58301 11.6665C6.58301 12.0807 6.24722 12.4165 5.83301 12.4165H2.72627L5.21326 14.7534C5.21897 14.7588 5.2246 14.7642 5.23014 14.7698C6.0362 15.5762 7.03342 16.1654 8.12875 16.4822C9.22407 16.799 10.3818 16.8332 11.4939 16.5816C12.606 16.33 13.6363 15.8007 14.4885 15.0432C15.3408 14.2857 15.9873 13.3247 16.3676 12.2498C16.5058 11.8593 16.9344 11.6548 17.3249 11.7929C17.7154 11.9311 17.9199 12.3597 17.7817 12.7502C17.3168 14.064 16.5267 15.2386 15.485 16.1644C14.4434 17.0902 13.1842 17.7371 11.825 18.0446C10.4657 18.3522 9.05069 18.3104 7.71196 17.9231C6.37707 17.537 5.16141 16.82 4.17772 15.8387L1.58301 13.4005V16.6665C1.58301 17.0807 1.24722 17.4165 0.83301 17.4165C0.418797 17.4165 0.0830101 17.0807 0.0830101 16.6665V11.6684C0.0829957 11.6625 0.0830499 11.6566 0.0831727 11.6507Z" fill="#575756"/>
</svg>
