<svg width="20" height="20" viewBox="0 0 20 20" fill="none" xmlns="http://www.w3.org/2000/svg">
<path fill-rule="evenodd" clip-rule="evenodd" d="M3.33301 2.5835C2.91879 2.5835 2.58301 2.91928 2.58301 3.3335L2.58301 8.3335C2.58301 8.74771 2.91879 9.0835 3.33301 9.0835L8.33301 9.0835C8.74722 9.0835 9.08301 8.74771 9.08301 8.3335L9.08301 3.3335C9.08301 2.91929 8.74722 2.5835 8.33301 2.5835L3.33301 2.5835ZM4.08301 7.5835L4.08301 4.0835L7.58301 4.0835L7.58301 7.5835L4.08301 7.5835ZM11.667 2.5835C11.2528 2.5835 10.917 2.91928 10.917 3.3335L10.917 8.3335C10.917 8.74771 11.2528 9.0835 11.667 9.0835L16.667 9.0835C17.0812 9.0835 17.417 8.74771 17.417 8.3335L17.417 3.3335C17.417 2.91929 17.0812 2.5835 16.667 2.5835L11.667 2.5835ZM12.417 7.5835L12.417 4.0835L15.917 4.0835L15.917 7.5835L12.417 7.5835ZM10.917 11.6665C10.917 11.2523 11.2528 10.9165 11.667 10.9165L16.667 10.9165C17.0812 10.9165 17.417 11.2523 17.417 11.6665L17.417 16.6665C17.417 17.0807 17.0812 17.4165 16.667 17.4165L11.667 17.4165C11.2528 17.4165 10.917 17.0807 10.917 16.6665L10.917 11.6665ZM12.417 12.4165L12.417 15.9165L15.917 15.9165L15.917 12.4165L12.417 12.4165ZM3.33301 10.9165C2.91879 10.9165 2.58301 11.2523 2.58301 11.6665L2.58301 16.6665C2.58301 17.0807 2.91879 17.4165 3.33301 17.4165L8.33301 17.4165C8.74722 17.4165 9.08301 17.0807 9.08301 16.6665L9.08301 11.6665C9.08301 11.2523 8.74722 10.9165 8.33301 10.9165L3.33301 10.9165ZM4.08301 15.9165L4.08301 12.4165L7.58301 12.4165L7.58301 15.9165L4.08301 15.9165Z" fill="#575756"/>
</svg>
