<svg width="20" height="20" viewBox="0 0 20 20" fill="none" xmlns="http://www.w3.org/2000/svg">
<path fill-rule="evenodd" clip-rule="evenodd" d="M10.4605 1.07449C10.1896 0.863842 9.81038 0.863842 9.53954 1.07449L2.03954 6.90782C1.85685 7.04992 1.75 7.26839 1.75 7.49984V16.6665C1.75 17.3074 2.00461 17.9221 2.45783 18.3753C2.91104 18.8286 3.52573 19.0832 4.16667 19.0832H7.48425C7.48949 19.0833 7.49474 19.0833 7.5 19.0833C7.50526 19.0833 7.51051 19.0833 7.51575 19.0832H12.4842C12.4895 19.0833 12.4947 19.0833 12.5 19.0833C12.5053 19.0833 12.5105 19.0833 12.5158 19.0832H15.8333C16.4743 19.0832 17.089 18.8286 17.5422 18.3753C17.9954 17.9221 18.25 17.3074 18.25 16.6665V7.49984C18.25 7.26839 18.1431 7.04992 17.9605 6.90782L10.4605 1.07449ZM13.25 17.5832H15.8333C16.0764 17.5832 16.3096 17.4866 16.4815 17.3147C16.6534 17.1428 16.75 16.9096 16.75 16.6665V7.86665L10 2.61665L3.25 7.86665V16.6665C3.25 16.9096 3.34658 17.1428 3.51849 17.3147C3.69039 17.4866 3.92355 17.5832 4.16667 17.5832H6.75V10C6.75 9.58579 7.08579 9.25 7.5 9.25H12.5C12.9142 9.25 13.25 9.58579 13.25 10V17.5832ZM8.25 17.5832H11.75V10.75H8.25V17.5832Z" fill="#575756"/>
</svg>
