<svg width="20" height="20" viewBox="0 0 20 20" fill="none" xmlns="http://www.w3.org/2000/svg">
<path fill-rule="evenodd" clip-rule="evenodd" d="M2.5 4C1.94772 4 1.5 4.44772 1.5 5C1.5 5.55228 1.94772 6 2.5 6H2.50833C3.06062 6 3.50833 5.55228 3.50833 5C3.50833 4.44772 3.06062 4 2.50833 4H2.5ZM6.66699 4C6.11471 4 5.66699 4.44772 5.66699 5C5.66699 5.55228 6.11471 6 6.66699 6H17.5003C18.0526 6 18.5003 5.55228 18.5003 5C18.5003 4.44772 18.0526 4 17.5003 4H6.66699ZM6.66699 9C6.11471 9 5.66699 9.44772 5.66699 10C5.66699 10.5523 6.11471 11 6.66699 11H17.5003C18.0526 11 18.5003 10.5523 18.5003 10C18.5003 9.44772 18.0526 9 17.5003 9H6.66699ZM5.66699 15C5.66699 14.4477 6.11471 14 6.66699 14H17.5003C18.0526 14 18.5003 14.4477 18.5003 15C18.5003 15.5523 18.0526 16 17.5003 16H6.66699C6.11471 16 5.66699 15.5523 5.66699 15ZM1.5 10C1.5 9.44772 1.94772 9 2.5 9H2.50833C3.06062 9 3.50833 9.44772 3.50833 10C3.50833 10.5523 3.06062 11 2.50833 11H2.5C1.94772 11 1.5 10.5523 1.5 10ZM2.5 14C1.94772 14 1.5 14.4477 1.5 15C1.5 15.5523 1.94772 16 2.5 16H2.50833C3.06062 16 3.50833 15.5523 3.50833 15C3.50833 14.4477 3.06062 14 2.50833 14H2.5Z" fill="#575756"/>
</svg>
