<svg width="20" height="20" viewBox="0 0 20 20" fill="none" xmlns="http://www.w3.org/2000/svg">
<path d="M7.19844 10.8337C7.64027 10.8337 7.99844 10.4606 7.99844 10.0003C7.99844 9.54009 7.64027 9.16699 7.19844 9.16699C6.75661 9.16699 6.39844 9.54009 6.39844 10.0003C6.39844 10.4606 6.75661 10.8337 7.19844 10.8337Z" stroke="#575756" stroke-width="2" stroke-linecap="round" stroke-linejoin="round"/>
<path d="M7.19844 4.99967C7.64027 4.99967 7.99844 4.62658 7.99844 4.16634C7.99844 3.7061 7.64027 3.33301 7.19844 3.33301C6.75661 3.33301 6.39844 3.7061 6.39844 4.16634C6.39844 4.62658 6.75661 4.99967 7.19844 4.99967Z" stroke="#575756" stroke-width="2" stroke-linecap="round" stroke-linejoin="round"/>
<path d="M7.19844 16.6667C7.64027 16.6667 7.99844 16.2936 7.99844 15.8333C7.99844 15.3731 7.64027 15 7.19844 15C6.75661 15 6.39844 15.3731 6.39844 15.8333C6.39844 16.2936 6.75661 16.6667 7.19844 16.6667Z" stroke="#575756" stroke-width="2" stroke-linecap="round" stroke-linejoin="round"/>
<path d="M12.8 10.8337C13.2418 10.8337 13.6 10.4606 13.6 10.0003C13.6 9.54009 13.2418 9.16699 12.8 9.16699C12.3582 9.16699 12 9.54009 12 10.0003C12 10.4606 12.3582 10.8337 12.8 10.8337Z" stroke="#575756" stroke-width="2" stroke-linecap="round" stroke-linejoin="round"/>
<path d="M12.8 4.99967C13.2418 4.99967 13.6 4.62658 13.6 4.16634C13.6 3.7061 13.2418 3.33301 12.8 3.33301C12.3582 3.33301 12 3.7061 12 4.16634C12 4.62658 12.3582 4.99967 12.8 4.99967Z" stroke="#575756" stroke-width="2" stroke-linecap="round" stroke-linejoin="round"/>
<path d="M12.8 16.6667C13.2418 16.6667 13.6 16.2936 13.6 15.8333C13.6 15.3731 13.2418 15 12.8 15C12.3582 15 12 15.3731 12 15.8333C12 16.2936 12.3582 16.6667 12.8 16.6667Z" stroke="#575756" stroke-width="2" stroke-linecap="round" stroke-linejoin="round"/>
</svg>
