<svg width="20" height="20" viewBox="0 0 20 20" fill="none" xmlns="http://www.w3.org/2000/svg">
<path fill-rule="evenodd" clip-rule="evenodd" d="M1.99952 2.14014C1.52463 2.14014 1.13965 2.52511 1.13965 3.00001C1.13965 3.4749 1.52463 3.85988 1.99952 3.85988H17.9995C18.4744 3.85988 18.8594 3.4749 18.8594 3.00001C18.8594 2.52511 18.4744 2.14014 17.9995 2.14014H1.99952ZM1.99952 7.14014C1.52463 7.14014 1.13965 7.52511 1.13965 8.00001C1.13965 8.4749 1.52463 8.85988 1.99952 8.85988H15.9995C16.4744 8.85988 16.8594 8.4749 16.8594 8.00001C16.8594 7.52511 16.4744 7.14014 15.9995 7.14014H1.99952ZM1.13965 13C1.13965 12.5251 1.52463 12.1401 1.99952 12.1401H11.9995C12.4744 12.1401 12.8594 12.5251 12.8594 13C12.8594 13.4749 12.4744 13.8599 11.9995 13.8599H1.99952C1.52463 13.8599 1.13965 13.4749 1.13965 13ZM1.99952 17.1401C1.52463 17.1401 1.13965 17.5251 1.13965 18C1.13965 18.4749 1.52463 18.8599 1.99952 18.8599H9.99952C10.4744 18.8599 10.8594 18.4749 10.8594 18C10.8594 17.5251 10.4744 17.1401 9.99952 17.1401H1.99952Z" fill="#575756"/>
</svg>
