<svg width="20" height="20" viewBox="0 0 20 20" fill="none" xmlns="http://www.w3.org/2000/svg">
<path fill-rule="evenodd" clip-rule="evenodd" d="M7.68255 2.6845C7.85446 2.51259 8.08761 2.41602 8.33073 2.41602H11.6641C11.9072 2.41602 12.1403 2.51259 12.3122 2.6845C12.4842 2.85641 12.5807 3.08957 12.5807 3.33268V4.25H7.41406V3.33268C7.41406 3.08957 7.51064 2.85641 7.68255 2.6845ZM5.91406 4.25V3.33268C5.91406 2.69174 6.16868 2.07705 6.62189 1.62384C7.0751 1.17063 7.68979 0.916016 8.33073 0.916016H11.6641C12.305 0.916016 12.9197 1.17063 13.3729 1.62384C13.8261 2.07705 14.0807 2.69174 14.0807 3.33268V4.25H15.7992C15.8096 4.24957 15.8202 4.24935 15.8307 4.24935C15.8413 4.24935 15.8518 4.24957 15.8623 4.25H17.5C17.9142 4.25 18.25 4.58579 18.25 5C18.25 5.41421 17.9142 5.75 17.5 5.75H16.5807V16.666C16.5807 17.307 16.3261 17.9216 15.8729 18.3749C15.4197 18.8281 14.805 19.0827 14.1641 19.0827H5.83073C5.18979 19.0827 4.5751 18.8281 4.12189 18.3749C3.66867 17.9216 3.41406 17.307 3.41406 16.666V5.75H2.5C2.08579 5.75 1.75 5.41421 1.75 5C1.75 4.58579 2.08579 4.25 2.5 4.25H4.13252C4.14298 4.24957 4.1535 4.24935 4.16406 4.24935C4.17463 4.24935 4.18514 4.24957 4.1956 4.25H5.91406ZM4.91406 5.75V16.666C4.91406 16.9091 5.01064 17.1423 5.18255 17.3142C5.35446 17.4861 5.58761 17.5827 5.83073 17.5827H14.1641C14.4072 17.5827 14.6403 17.4861 14.8122 17.3142C14.9842 17.1423 15.0807 16.9091 15.0807 16.666V5.75H4.91406ZM8.33594 8.41602C8.75015 8.41602 9.08594 8.7518 9.08594 9.16602V14.166C9.08594 14.5802 8.75015 14.916 8.33594 14.916C7.92172 14.916 7.58594 14.5802 7.58594 14.166V9.16602C7.58594 8.7518 7.92172 8.41602 8.33594 8.41602ZM12.4141 9.16602C12.4141 8.7518 12.0783 8.41602 11.6641 8.41602C11.2498 8.41602 10.9141 8.7518 10.9141 9.16602V14.166C10.9141 14.5802 11.2498 14.916 11.6641 14.916C12.0783 14.916 12.4141 14.5802 12.4141 14.166V9.16602Z" fill="#575756"/>
</svg>
