<svg width="20" height="20" viewBox="0 0 20 20" fill="none" xmlns="http://www.w3.org/2000/svg">
<g clip-path="url(#clip0_53908_9726)">
<path d="M10.0003 13.3332C11.8413 13.3332 13.3337 11.8408 13.3337 9.99984C13.3337 8.15889 11.8413 6.6665 10.0003 6.6665C8.15938 6.6665 6.66699 8.15889 6.66699 9.99984C6.66699 11.8408 8.15938 13.3332 10.0003 13.3332Z" stroke="#575756" stroke-width="1.5" stroke-linecap="round" stroke-linejoin="round"/>
<path d="M13.3337 6.66647V10.8331C13.3337 11.4962 13.5971 12.1321 14.0659 12.6009C14.5347 13.0697 15.1706 13.3331 15.8337 13.3331C16.4967 13.3331 17.1326 13.0697 17.6014 12.6009C18.0703 12.1321 18.3337 11.4962 18.3337 10.8331V9.99981C18.3335 8.119 17.6972 6.29354 16.5281 4.82025C15.3589 3.34696 13.7258 2.3125 11.8942 1.88506C10.0626 1.45762 8.14028 1.66234 6.43979 2.46595C4.7393 3.26955 3.36066 4.62477 2.52805 6.31124C1.69543 7.99772 1.45781 9.91626 1.85381 11.7549C2.24981 13.5936 3.25615 15.2442 4.70919 16.4384C6.16224 17.6326 7.97653 18.3001 9.85706 18.3324C11.7376 18.3648 13.5738 17.76 15.067 16.6165" stroke="#575756" stroke-width="1.5" stroke-linecap="round" stroke-linejoin="round"/>
</g>
<defs>
<clipPath id="clip0_53908_9726">
<rect width="20" height="20" fill="white"/>
</clipPath>
</defs>
</svg>
