<svg width="20" height="20" viewBox="0 0 20 20" fill="none" xmlns="http://www.w3.org/2000/svg">
<path fill-rule="evenodd" clip-rule="evenodd" d="M11.75 2.5C11.75 2.08579 12.0858 1.75 12.5 1.75H17.4987H17.5C17.9142 1.75 18.25 2.08579 18.25 2.5V7.5C18.25 7.91421 17.9142 8.25 17.5 8.25C17.0858 8.25 16.75 7.91421 16.75 7.5V4.30936L8.86236 12.197C8.56947 12.4899 8.09459 12.4899 7.8017 12.197C7.50881 11.9041 7.50881 11.4292 7.8017 11.1363L15.688 3.25H12.5C12.0858 3.25 11.75 2.91421 11.75 2.5ZM4.16667 5.75C3.92355 5.75 3.69039 5.84658 3.51849 6.01849C3.34658 6.19039 3.25 6.42355 3.25 6.66667V15.8333C3.25 16.0764 3.34658 16.3096 3.51849 16.4815C3.69039 16.6534 3.92355 16.75 4.16667 16.75H13.3333C13.5764 16.75 13.8096 16.6534 13.9815 16.4815C14.1534 16.3096 14.25 16.0764 14.25 15.8333V10.8333C14.25 10.4191 14.5858 10.0833 15 10.0833C15.4142 10.0833 15.75 10.4191 15.75 10.8333V15.8333C15.75 16.4743 15.4954 17.089 15.0422 17.5422C14.589 17.9954 13.9743 18.25 13.3333 18.25H4.16667C3.52573 18.25 2.91104 17.9954 2.45783 17.5422C2.00461 17.089 1.75 16.4743 1.75 15.8333V6.66667C1.75 6.02573 2.00461 5.41104 2.45783 4.95783C2.91104 4.50461 3.52573 4.25 4.16667 4.25H9.16667C9.58088 4.25 9.91667 4.58579 9.91667 5C9.91667 5.41421 9.58088 5.75 9.16667 5.75H4.16667Z" fill="#575756"/>
</svg>
