<svg width="20" height="20" viewBox="0 0 20 20" fill="none" xmlns="http://www.w3.org/2000/svg">
<path fill-rule="evenodd" clip-rule="evenodd" d="M10.5355 4.69635C10.8284 4.40345 10.8284 3.92858 10.5355 3.63569C10.2426 3.34279 9.76777 3.34279 9.47488 3.63569L3.64154 9.46902C3.49505 9.61551 3.42183 9.80753 3.42188 9.99953C3.42188 9.99969 3.42188 9.99984 3.42188 10C3.42188 10.2166 3.51368 10.4117 3.6605 10.5486L9.47488 16.363C9.76777 16.6559 10.2426 16.6559 10.5355 16.363C10.8284 16.0701 10.8284 15.5952 10.5355 15.3024L5.98319 10.75H15.8385C16.2528 10.75 16.5885 10.4142 16.5885 10C16.5885 9.58579 16.2528 9.25 15.8385 9.25H5.98188L10.5355 4.69635Z" fill="#575756"/>
</svg>
