<svg width="20" height="20" viewBox="0 0 20 20" fill="none" xmlns="http://www.w3.org/2000/svg">
<path fill-rule="evenodd" clip-rule="evenodd" d="M4.16667 3.25C3.92355 3.25 3.69039 3.34658 3.51849 3.51849C3.34658 3.69039 3.25 3.92355 3.25 4.16667V15.8333C3.25 16.0764 3.34658 16.3096 3.51849 16.4815C3.69039 16.6534 3.92355 16.75 4.16667 16.75H7.5C7.91421 16.75 8.25 17.0858 8.25 17.5C8.25 17.9142 7.91421 18.25 7.5 18.25H4.16667C3.52573 18.25 2.91104 17.9954 2.45783 17.5422C2.00461 17.089 1.75 16.4743 1.75 15.8333V4.16667C1.75 3.52573 2.00461 2.91104 2.45783 2.45783C2.91104 2.00461 3.52573 1.75 4.16667 1.75H7.5C7.91421 1.75 8.25 2.08579 8.25 2.5C8.25 2.91421 7.91421 3.25 7.5 3.25H4.16667ZM12.8027 5.30317C13.0956 5.01027 13.5704 5.01027 13.8633 5.30317L18.014 9.45378C18.1593 9.59056 18.25 9.78469 18.25 10C18.25 10.2118 18.1622 10.4032 18.0209 10.5396L13.8633 14.6972C13.5704 14.9901 13.0956 14.9901 12.8027 14.6972C12.5098 14.4043 12.5098 13.9294 12.8027 13.6365L15.6892 10.75H7.5C7.08579 10.75 6.75 10.4142 6.75 10C6.75 9.58579 7.08579 9.25 7.5 9.25H15.6889L12.8027 6.36383C12.5098 6.07093 12.5098 5.59606 12.8027 5.30317Z" fill="#575756"/>
</svg>
