<svg width="20" height="20" viewBox="0 0 20 20" fill="none" xmlns="http://www.w3.org/2000/svg">
<path d="M13.3346 13.3333L10.0013 10L6.66797 13.3333" stroke="#575756" stroke-width="1.5" stroke-linecap="round" stroke-linejoin="round"/>
<path fill-rule="evenodd" clip-rule="evenodd" d="M7.22172 1.75698C8.34204 1.71571 9.45713 1.92894 10.4832 2.38065C11.5092 2.83237 12.4195 3.51081 13.1456 4.36497C13.7447 5.06966 14.2055 5.87881 14.506 6.74991H14.9992H14.9997C16.0921 6.75063 17.1531 7.1151 18.0153 7.78579C18.8775 8.45649 19.4918 9.39522 19.7612 10.4538C20.0307 11.5124 19.9399 12.6306 19.5033 13.6319C19.0666 14.6332 18.309 15.4605 17.3499 15.9834C16.9862 16.1817 16.5307 16.0476 16.3324 15.6839C16.1341 15.3202 16.2682 14.8647 16.6319 14.6664C17.2984 14.3031 17.8249 13.7281 18.1283 13.0323C18.4317 12.3365 18.4948 11.5594 18.3076 10.8238C18.1203 10.0882 17.6935 9.43584 17.0943 8.96976C16.4953 8.50378 15.7582 8.25052 14.9992 8.24991L12.6747 6.30928C12.4843 5.96448 12.2595 5.63846 12.0028 5.3365C11.4235 4.65509 10.6973 4.11386 9.87879 3.7535C9.71618 3.68192 9.55078 3.61784 9.38309 3.56137L7.22172 1.75698ZM9.38286 3.56129L9.38309 3.56137L12.6747 6.30928L12.675 6.30982L9.38286 3.56129ZM12.675 6.30982L14.9987 8.2499L13.9492 8.24991C13.6073 8.24991 13.3087 8.01866 13.2231 7.68764C13.0985 7.20568 12.914 6.74293 12.675 6.30982ZM9.38286 3.56129L7.22172 1.75698C6.1014 1.79826 5.00501 2.09297 4.01499 2.61897C3.02497 3.14496 2.16707 3.88855 1.50579 4.79383C0.844511 5.69911 0.397061 6.74252 0.19708 7.84561C-0.0029011 8.94871 0.0497902 10.0828 0.351192 11.1626C0.652595 12.2424 1.19486 13.2398 1.93723 14.0799C2.21152 14.3903 2.6855 14.4195 2.99588 14.1452C3.30626 13.8709 3.33552 13.397 3.06124 13.0866C2.46901 12.4164 2.03641 11.6207 1.79597 10.7593C1.55552 9.8979 1.51349 8.99319 1.67302 8.11319C1.83256 7.23319 2.18951 6.40081 2.71705 5.67862C3.24459 4.95643 3.92898 4.36323 4.71877 3.94362C5.50857 3.524 6.38321 3.28889 7.27695 3.25597C7.99306 3.22958 8.7065 3.33355 9.38286 3.56129ZM9.25 11.812V17.5C9.25 17.9142 9.58579 18.25 10 18.25C10.4142 18.25 10.75 17.9142 10.75 17.5V11.8094L12.8043 13.8637C13.0972 14.1566 13.5721 14.1566 13.865 13.8637C14.1579 13.5708 14.1579 13.0959 13.865 12.803L10.5316 9.46967C10.385 9.32308 10.1929 9.24985 10.0007 9.25C10.0005 9.25 10.0002 9.25 10 9.25C9.77949 9.25 9.5812 9.34517 9.44397 9.49667L6.13764 12.803C5.84475 13.0959 5.84475 13.5708 6.13764 13.8637C6.43053 14.1566 6.90541 14.1566 7.1983 13.8637L9.25 11.812Z" fill="#575756"/>
</svg>
