<svg width="20" height="20" viewBox="0 0 20 20" fill="none" xmlns="http://www.w3.org/2000/svg">
<path d="M17.1998 8.36364C17.1998 14.0909 9.9998 19 9.9998 19C9.9998 19 2.7998 14.0909 2.7998 8.36364C2.7998 6.41068 3.55837 4.53771 4.90864 3.15676C6.2589 1.77581 8.09025 1 9.9998 1C11.9094 1 13.7407 1.77581 15.091 3.15676C16.4412 4.53771 17.1998 6.41068 17.1998 8.36364Z" stroke="#575756" stroke-width="1.5" stroke-linecap="round" stroke-linejoin="round"/>
<path d="M10.0002 9.1C10.9943 9.1 11.8002 8.29411 11.8002 7.3C11.8002 6.30589 10.9943 5.5 10.0002 5.5C9.00608 5.5 8.2002 6.30589 8.2002 7.3C8.2002 8.29411 9.00608 9.1 10.0002 9.1Z" stroke="#575756" stroke-width="1.5" stroke-linecap="round" stroke-linejoin="round"/>
<path d="M14.5 14.4998V13.5998C14.5 13.1224 14.2471 12.6646 13.7971 12.327C13.347 11.9894 12.7365 11.7998 12.1 11.7998H7.9C7.26348 11.7998 6.65303 11.9894 6.20294 12.327C5.75286 12.6646 5.5 13.1224 5.5 13.5998V14.4998" stroke="#575756" stroke-width="1.5" stroke-linecap="round" stroke-linejoin="round"/>
</svg>
