<svg width="20" height="20" viewBox="0 0 20 20" fill="none" xmlns="http://www.w3.org/2000/svg">
<path fill-rule="evenodd" clip-rule="evenodd" d="M4.01849 4.01849C4.19039 3.84658 4.42355 3.75 4.66667 3.75L13.8333 3.75C14.2475 3.75 14.5833 3.41422 14.5833 3C14.5833 2.58579 14.2475 2.25 13.8333 2.25L4.66667 2.25C4.02573 2.25 3.41104 2.50461 2.95783 2.95783C2.50461 3.41104 2.25 4.02573 2.25 4.66667L2.25 16.3333C2.25 16.9743 2.50461 17.589 2.95782 18.0422C3.41104 18.4954 4.02572 18.75 4.66666 18.75L16.3333 18.75C16.9743 18.75 17.589 18.4954 18.0422 18.0422C18.4954 17.589 18.75 16.9743 18.75 16.3333L18.75 10.5C18.75 10.0858 18.4142 9.75 18 9.75C17.5858 9.75 17.25 10.0858 17.25 10.5L17.25 16.3333C17.25 16.5764 17.1534 16.8096 16.9815 16.9815C16.8096 17.1534 16.5764 17.25 16.3333 17.25L4.66666 17.25C4.42355 17.25 4.19039 17.1534 4.01848 16.9815C3.84657 16.8096 3.75 16.5764 3.75 16.3333L3.75 4.66667C3.75 4.42355 3.84658 4.19039 4.01849 4.01849ZM18.5048 5.55471C18.8111 5.27592 18.8335 4.80158 18.5547 4.49522C18.2759 4.18887 17.8016 4.16652 17.4952 4.4453L10.3077 10.9859L8.50478 9.34529C8.19843 9.06651 7.72408 9.08886 7.4453 9.39522C7.16651 9.70157 7.18886 10.1759 7.49522 10.4547L9.80291 12.5547C10.0891 12.8151 10.5263 12.8151 10.8125 12.5547L18.5048 5.55471Z" fill="#575756"/>
</svg>
