<svg width="20" height="20" viewBox="0 0 20 20" fill="none" xmlns="http://www.w3.org/2000/svg">
<path fill-rule="evenodd" clip-rule="evenodd" d="M4.5 5.83333C4.5 4.4066 5.6566 3.25 7.08333 3.25C8.51007 3.25 9.66667 4.4066 9.66667 5.83333C9.66667 7.26007 8.51007 8.41667 7.08333 8.41667C5.6566 8.41667 4.5 7.26007 4.5 5.83333ZM7.08333 1.75C4.82817 1.75 3 3.57817 3 5.83333C3 8.0885 4.82817 9.91667 7.08333 9.91667C9.3385 9.91667 11.1667 8.0885 11.1667 5.83333C11.1667 3.57817 9.3385 1.75 7.08333 1.75ZM4.16927 11.75C3.0863 11.75 2.04769 12.1802 1.28192 12.946C0.516145 13.7118 0.0859375 14.7504 0.0859375 15.8333V17.5C0.0859375 17.9142 0.421724 18.25 0.835938 18.25C1.25015 18.25 1.58594 17.9142 1.58594 17.5V15.8333C1.58594 15.1482 1.85811 14.4911 2.34258 14.0066C2.82705 13.5222 3.48413 13.25 4.16927 13.25H10.0026C10.6877 13.25 11.3448 13.5222 11.8293 14.0066C12.3138 14.4911 12.5859 15.1482 12.5859 15.8333V17.5C12.5859 17.9142 12.9217 18.25 13.3359 18.25C13.7502 18.25 14.0859 17.9142 14.0859 17.5V15.8333C14.0859 14.7504 13.6557 13.7118 12.89 12.946C12.1242 12.1802 11.0856 11.75 10.0026 11.75H4.16927ZM16.6641 5.91602C17.0783 5.91602 17.4141 6.2518 17.4141 6.66602V8.41602H19.1641C19.5783 8.41602 19.9141 8.7518 19.9141 9.16602C19.9141 9.58023 19.5783 9.91602 19.1641 9.91602H17.4141V11.666C17.4141 12.0802 17.0783 12.416 16.6641 12.416C16.2498 12.416 15.9141 12.0802 15.9141 11.666V9.91602H14.1641C13.7498 9.91602 13.4141 9.58023 13.4141 9.16602C13.4141 8.7518 13.7498 8.41602 14.1641 8.41602H15.9141V6.66602C15.9141 6.2518 16.2498 5.91602 16.6641 5.91602Z" fill="#575756"/>
</svg>
