<svg width="20" height="20" viewBox="0 0 20 20" fill="none" xmlns="http://www.w3.org/2000/svg">
<g clip-path="url(#clip0_53955_10164)">
<path d="M18.5 12.5898C17.6 11.4898 16 11.7898 14.81 11.2098C13.94 10.8798 12.91 11.0998 12.26 11.7598L11.62 12.3998C10.03 11.3998 8.68003 10.0498 7.68003 8.45982L8.33003 7.80982C8.99003 7.15982 9.21003 6.11982 8.87003 5.25982C8.61003 4.55982 8.43003 3.82982 8.33003 3.07982C8.18003 1.91982 7.10003 0.979816 5.92003 1.00982C5.22003 1.05982 3.08003 0.859816 2.44003 1.21982C1.50003 1.61982 0.900029 2.63982 1.01003 3.65982C1.29003 6.33982 2.22003 8.94982 3.68003 11.2098C6.46003 15.5998 11.28 18.5698 16.44 19.1098C17.81 19.2698 19.11 18.0698 19.07 16.6998V14.2098C19.08 13.6198 18.88 13.0498 18.5 12.5998V12.5898ZM17.57 14.1998V16.6998C17.59 17.2098 17.09 17.6798 16.58 17.6198C9.35003 16.9298 3.18003 10.7498 2.51003 3.50982C2.45003 2.98982 2.90003 2.49982 3.42003 2.50982H5.93003C6.15003 2.50982 6.37003 2.58982 6.54003 2.72982C6.71003 2.87982 6.82003 3.07982 6.85003 3.28982C6.96003 4.14982 7.17003 4.98982 7.47003 5.79982C7.60003 6.11982 7.51003 6.51982 7.27003 6.75982L6.21003 7.81982C5.97003 8.05982 5.92003 8.42982 6.09003 8.71982C7.34003 10.9198 9.17003 12.7498 11.37 13.9998C11.66 14.1598 12.03 14.1198 12.27 13.8798C12.56 13.6398 13.38 12.6098 13.78 12.5798C14.79 12.6198 15.76 13.1998 16.79 13.2398C17.24 13.2998 17.6 13.7198 17.58 14.1698V14.1898L17.57 14.1998Z" fill="#575756"/>
</g>
<defs>
<clipPath id="clip0_53955_10164">
<rect width="20" height="20" fill="white"/>
</clipPath>
</defs>
</svg>
