<svg width="20" height="20" viewBox="0 0 20 20" fill="none" xmlns="http://www.w3.org/2000/svg">
<g clip-path="url(#clip0_53955_10299)">
<path fill-rule="evenodd" clip-rule="evenodd" d="M10.0013 2.41699C5.81314 2.41699 2.41797 5.81217 2.41797 10.0003C2.41797 14.1885 5.81314 17.5837 10.0013 17.5837C14.1895 17.5837 17.5846 14.1885 17.5846 10.0003C17.5846 5.81217 14.1895 2.41699 10.0013 2.41699ZM0.917969 10.0003C0.917969 4.98374 4.98471 0.916992 10.0013 0.916992C15.0179 0.916992 19.0846 4.98374 19.0846 10.0003C19.0846 15.0169 15.0179 19.0837 10.0013 19.0837C4.98471 19.0837 0.917969 15.0169 0.917969 10.0003ZM10 9.25C10.4142 9.25 10.75 9.58579 10.75 10V13.3333C10.75 13.7475 10.4142 14.0833 10 14.0833C9.58579 14.0833 9.25 13.7475 9.25 13.3333V10C9.25 9.58579 9.58579 9.25 10 9.25ZM10 5.91699C9.58579 5.91699 9.25 6.25278 9.25 6.66699C9.25 7.08121 9.58579 7.41699 10 7.41699H10.01C10.4242 7.41699 10.76 7.08121 10.76 6.66699C10.76 6.25278 10.4242 5.91699 10.01 5.91699H10Z" fill="#575756"/>
</g>
<defs>
<clipPath id="clip0_53955_10299">
<rect width="20" height="20" fill="white"/>
</clipPath>
</defs>
</svg>
