<svg width="20" height="20" viewBox="0 0 20 20" fill="none" xmlns="http://www.w3.org/2000/svg">
<path fill-rule="evenodd" clip-rule="evenodd" d="M12.0819 2.15426C12.7291 1.88608 13.4229 1.74805 14.1235 1.74805C14.8241 1.74805 15.5178 1.88608 16.165 2.15426C16.8123 2.42244 17.4003 2.81552 17.8956 3.31103C18.391 3.80626 18.784 4.39422 19.0521 5.04135C19.3203 5.68858 19.4583 6.38231 19.4583 7.0829C19.4583 7.7835 19.3203 8.47723 19.0521 9.12446C18.7839 9.77169 18.3909 10.3597 17.8953 10.855L17.0121 11.7382L10.5288 18.2216C10.2359 18.5145 9.76103 18.5145 9.46814 18.2216L2.98481 11.7382L2.10147 10.8549C1.10108 9.8545 0.539062 8.49767 0.539062 7.0829C0.539062 5.66813 1.10108 4.3113 2.10147 3.3109C3.10187 2.31051 4.4587 1.74849 5.87347 1.74849C7.28825 1.74849 8.64507 2.31051 9.64547 3.3109L9.99847 3.66391L10.3514 3.31103C10.3514 3.31099 10.3514 3.31095 10.3515 3.3109C10.8467 2.81545 11.4347 2.42242 12.0819 2.15426ZM14.1235 3.24805C13.6199 3.24805 13.1213 3.34726 12.6561 3.54001C12.1909 3.73277 11.7682 4.01529 11.4123 4.37144L11.4121 4.37157L10.5288 5.2549C10.2359 5.54779 9.76103 5.54779 9.46814 5.2549L8.58481 4.37157C7.86572 3.65247 6.89042 3.24849 5.87347 3.24849C4.85652 3.24849 3.88123 3.65247 3.16214 4.37157C2.44304 5.09066 2.03906 6.06595 2.03906 7.0829C2.03906 8.09985 2.44304 9.07515 3.16214 9.79424L4.04547 10.6776L9.99847 16.6306L15.9515 10.6776L16.8348 9.79424L16.8349 9.79411C17.1911 9.43813 17.4736 9.01547 17.6664 8.55027C17.8591 8.08507 17.9583 7.58645 17.9583 7.0829C17.9583 6.57935 17.8591 6.08073 17.6664 5.61553C17.4736 5.15033 17.1911 4.72767 16.8349 4.37169L16.8347 4.37144C16.4787 4.01529 16.056 3.73277 15.5908 3.54001C15.1256 3.34726 14.627 3.24805 14.1235 3.24805Z" fill="#575756"/>
</svg>
