<svg width="20" height="20" viewBox="0 0 20 20" fill="none" xmlns="http://www.w3.org/2000/svg">
<path fill-rule="evenodd" clip-rule="evenodd" d="M10.0003 0.916504C10.2858 0.916504 10.5465 1.07856 10.6729 1.33454L13.0735 6.19802L18.4422 6.98272C18.7246 7.024 18.9591 7.22201 19.0471 7.49351C19.1351 7.76502 19.0614 8.06296 18.857 8.26211L14.9729 12.0452L15.8896 17.3897C15.9378 17.6711 15.8221 17.9555 15.5911 18.1233C15.3602 18.2911 15.0539 18.3132 14.8013 18.1803L10.0003 15.6556L5.19944 18.1803C4.94675 18.3132 4.64053 18.2911 4.40955 18.1233C4.17856 17.9555 4.06288 17.6711 4.11114 17.3897L5.02779 12.0452L1.14371 8.26211C0.939251 8.06296 0.865546 7.76502 0.953579 7.49351C1.04161 7.22201 1.27612 7.024 1.55854 6.98272L6.92715 6.19802L9.32782 1.33454C9.45417 1.07856 9.71488 0.916504 10.0003 0.916504ZM10.0003 3.36094L8.09788 7.21514C7.98872 7.43627 7.77783 7.58962 7.53382 7.62529L3.27832 8.24729L6.35698 11.2459C6.53389 11.4182 6.61463 11.6666 6.57289 11.91L5.84648 16.1453L9.65126 14.1444C9.8698 14.0294 10.1309 14.0294 10.3494 14.1444L14.1542 16.1453L13.4278 11.91C13.3861 11.6666 13.4668 11.4182 13.6437 11.2459L16.7224 8.24729L12.4669 7.62529C12.2229 7.58962 12.012 7.43627 11.9028 7.21514L10.0003 3.36094Z" fill="#575756"/>
</svg>
