<svg width="20" height="20" viewBox="0 0 20 20" fill="none" xmlns="http://www.w3.org/2000/svg">
<path fill-rule="evenodd" clip-rule="evenodd" d="M4.08301 3.33317C4.08301 2.82691 4.49341 2.4165 4.99967 2.4165H14.9997C15.5059 2.4165 15.9163 2.82691 15.9163 3.33317V16.6665C15.9163 17.1728 15.5059 17.5832 14.9997 17.5832H4.99967C4.49341 17.5832 4.08301 17.1728 4.08301 16.6665V3.33317ZM4.99967 0.916504C3.66499 0.916504 2.58301 1.99848 2.58301 3.33317V16.6665C2.58301 18.0012 3.66499 19.0832 4.99967 19.0832H14.9997C16.3344 19.0832 17.4163 18.0012 17.4163 16.6665V3.33317C17.4163 1.99848 16.3344 0.916504 14.9997 0.916504H4.99967ZM10 14C9.44772 14 9 14.4477 9 15C9 15.5523 9.44772 16 10 16H10.0083C10.5606 16 11.0083 15.5523 11.0083 15C11.0083 14.4477 10.5606 14 10.0083 14H10Z" fill="#575756"/>
</svg>
