<svg width="20" height="20" viewBox="0 0 20 20" fill="none" xmlns="http://www.w3.org/2000/svg">
<g clip-path="url(#clip0_53955_10134)">
<path fill-rule="evenodd" clip-rule="evenodd" d="M9.66508 0.995683C9.87622 0.890111 10.1248 0.890111 10.3359 0.995683L18.6692 5.16235C18.9233 5.28939 19.0838 5.54909 19.0838 5.83317C19.0838 6.11725 18.9233 6.37695 18.6692 6.50399L10.3359 10.6707C10.1248 10.7762 9.87622 10.7762 9.66508 10.6707L1.33175 6.50399C1.07766 6.37695 0.917156 6.11725 0.917156 5.83317C0.917156 5.54909 1.07766 5.28939 1.33175 5.16235L9.66508 0.995683ZM3.34421 5.83317L10.0005 9.16131L16.6568 5.83317L10.0005 2.50503L3.34421 5.83317ZM0.996336 13.8311C1.18158 13.4606 1.63208 13.3104 2.00257 13.4957L10.0005 17.4946L17.9984 13.4957C18.3689 13.3104 18.8194 13.4606 19.0046 13.8311C19.1899 14.2016 19.0397 14.6521 18.6692 14.8373L10.3359 19.004C10.1248 19.1096 9.87622 19.1096 9.66508 19.004L1.33175 14.8373C0.961262 14.6521 0.811094 14.2016 0.996336 13.8311ZM2.00257 9.32918C1.63208 9.14394 1.18158 9.29411 0.996336 9.66459C0.811094 10.0351 0.961262 10.4856 1.33175 10.6708L9.66508 14.8375C9.87622 14.9431 10.1248 14.9431 10.3359 14.8375L18.6692 10.6708C19.0397 10.4856 19.1899 10.0351 19.0046 9.66459C18.8194 9.29411 18.3689 9.14394 17.9984 9.32918L10.0005 13.3281L2.00257 9.32918Z" fill="#575756"/>
</g>
<defs>
<clipPath id="clip0_53955_10134">
<rect width="20" height="20" fill="white"/>
</clipPath>
</defs>
</svg>
