<svg width="20" height="20" viewBox="0 0 20 20" fill="none" xmlns="http://www.w3.org/2000/svg">
<path fill-rule="evenodd" clip-rule="evenodd" d="M7.58373 3.41722C8.22448 2.77647 9.09352 2.4165 9.99967 2.4165C10.9058 2.4165 11.7749 2.77647 12.4156 3.41722C13.0564 4.05797 13.4163 4.92701 13.4163 5.83317V8.4165H6.58301V5.83317C6.58301 4.92701 6.94298 4.05797 7.58373 3.41722ZM5.08301 8.4165V5.83317C5.08301 4.52919 5.60101 3.27862 6.52307 2.35656C7.44512 1.43451 8.69569 0.916504 9.99967 0.916504C11.3037 0.916504 12.5542 1.43451 13.4763 2.35656C14.3983 3.27862 14.9163 4.52919 14.9163 5.83317V8.4165H15.8333C17.168 8.4165 18.25 9.49848 18.25 10.8332V16.6665C18.25 18.0012 17.168 19.0832 15.8333 19.0832H4.16667C2.83198 19.0832 1.75 18.0012 1.75 16.6665V10.8332C1.75 9.49848 2.83198 8.4165 4.16667 8.4165H5.08301ZM14.1663 9.9165H5.83301H4.16667C3.66041 9.9165 3.25 10.3269 3.25 10.8332V16.6665C3.25 17.1728 3.66041 17.5832 4.16667 17.5832H15.8333C16.3396 17.5832 16.75 17.1728 16.75 16.6665V10.8332C16.75 10.3269 16.3396 9.9165 15.8333 9.9165H14.1663Z" fill="#575756"/>
</svg>
