<svg width="20" height="20" viewBox="0 0 20 20" fill="none" xmlns="http://www.w3.org/2000/svg">
<path fill-rule="evenodd" clip-rule="evenodd" d="M2.41406 9.33464C2.41406 6.06695 5.06304 3.41797 8.33073 3.41797C11.5984 3.41797 14.2474 6.06695 14.2474 9.33464C14.2474 10.931 13.6152 12.3798 12.5874 13.4441C12.56 13.4648 12.5337 13.4877 12.5087 13.5126C12.4838 13.5376 12.4609 13.5639 12.4402 13.5913C11.3759 14.6191 9.92713 15.2513 8.33073 15.2513C5.06304 15.2513 2.41406 12.6023 2.41406 9.33464ZM13.0181 15.0826C11.7405 16.1257 10.1087 16.7513 8.33073 16.7513C4.23462 16.7513 0.914062 13.4307 0.914062 9.33464C0.914062 5.23852 4.23462 1.91797 8.33073 1.91797C12.4268 1.91797 15.7474 5.23852 15.7474 9.33464C15.7474 11.1126 15.1218 12.7444 14.0787 14.022L17.1944 17.1376C17.4873 17.4305 17.4873 17.9054 17.1944 18.1983C16.9015 18.4912 16.4266 18.4912 16.1337 18.1983L13.0181 15.0826Z" fill="#575756"/>
</svg>
