<svg width="20" height="20" viewBox="0 0 20 20" fill="none" xmlns="http://www.w3.org/2000/svg">
<path d="M19 9.05091C18.88 6.95636 17.9963 4.98182 16.5125 3.48727C15.0288 2.00364 13.0541 1.12 10.9048 1H10.4466C9.12647 1.01091 7.80637 1.30545 6.62809 1.90545C5.20979 2.61455 4.02061 3.70545 3.18054 5.05818C2.34047 6.41091 1.90407 7.96 1.90407 9.55273C1.90407 10.7636 2.16591 11.9636 2.65686 13.0655L1.04218 17.92C0.943993 18.2145 1.02036 18.5418 1.23856 18.76C1.3913 18.9127 1.59859 19 1.81679 19C1.90407 19 1.99135 18.9891 2.07863 18.9564L6.94448 17.3309C8.03547 17.8218 9.23557 18.0836 10.4357 18.0836H10.4575C12.0503 18.0836 13.5996 17.6364 14.9524 16.8073C16.3052 15.9673 17.3962 14.7782 18.0945 13.36C18.6945 12.1818 19 10.8618 19 9.54182V9.04V9.05091ZM17.3635 9.54182C17.3635 10.6109 17.1126 11.68 16.6325 12.6291C16.0543 13.7745 15.1815 14.7455 14.0905 15.4109C12.9995 16.0873 11.7449 16.4473 10.4575 16.4473C9.39922 16.4582 8.33004 16.1964 7.36997 15.7164C7.17359 15.6182 6.94448 15.5964 6.73719 15.6727L3.10417 16.8836L4.31517 13.2509C4.38063 13.0436 4.36972 12.8145 4.27153 12.6182C3.7915 11.6691 3.54057 10.6 3.54057 9.53091C3.54057 8.24364 3.9006 6.98909 4.57701 5.89818C5.25343 4.80727 6.21351 3.92364 7.36997 3.34545C8.31913 2.86545 9.3774 2.61455 10.4357 2.61455H10.8612C12.5522 2.70182 14.156 3.42182 15.3561 4.62182C16.5562 5.82182 17.2653 7.41455 17.3635 9.07273V9.53091V9.54182Z" fill="#575756"/>
</svg>
