<svg width="20" height="20" viewBox="0 0 20 20" fill="none" xmlns="http://www.w3.org/2000/svg">
<g clip-path="url(#clip0_53955_10059)">
<path fill-rule="evenodd" clip-rule="evenodd" d="M12.0646 1.15468C10.0682 0.688773 7.97287 0.911925 6.11934 1.78785C4.26581 2.66378 2.7631 4.14097 1.85554 5.97923C0.947991 7.81748 0.688978 9.90869 1.12062 11.9128C1.55226 13.9169 2.64917 15.7161 4.23299 17.0178C5.81681 18.3195 7.79439 19.0471 9.84416 19.0823C11.8939 19.1176 13.8954 18.4584 15.523 17.2119C15.8519 16.9601 15.9143 16.4893 15.6625 16.1605C15.4106 15.8316 14.9399 15.7692 14.611 16.021C13.2522 17.0616 11.5812 17.612 9.86995 17.5825C8.15867 17.5531 6.50767 16.9457 5.1854 15.8589C3.86312 14.7722 2.94736 13.2702 2.58699 11.597C2.22663 9.92382 2.44287 8.17795 3.20055 6.64326C3.95824 5.10857 5.2128 3.87532 6.76024 3.14404C8.30768 2.41276 10.057 2.22646 11.7238 2.61543C13.3905 3.0044 14.8767 3.94577 15.9406 5.28646C17.0045 6.62714 17.5835 8.28829 17.5837 9.99981V9.99986V10.8331C17.5837 11.2973 17.3993 11.7424 17.0711 12.0706C16.7429 12.3988 16.2978 12.5831 15.8337 12.5831C15.3695 12.5831 14.9244 12.3988 14.5962 12.0706C14.268 11.7424 14.0837 11.2973 14.0837 10.8331V6.66648C14.0837 6.25226 13.7479 5.91648 13.3337 5.91648C12.9195 5.91648 12.5837 6.25226 12.5837 6.66648V6.83741C11.8799 6.26181 10.9804 5.9165 10.0003 5.9165C7.74516 5.9165 5.91699 7.74467 5.91699 9.99984C5.91699 12.255 7.74516 14.0832 10.0003 14.0832C11.254 14.0832 12.3758 13.5182 13.1248 12.6289C13.2438 12.8083 13.3811 12.9768 13.5356 13.1312C14.1451 13.7407 14.9717 14.0831 15.8337 14.0831C16.6956 14.0831 17.5223 13.7407 18.1318 13.1312C18.7413 12.5217 19.0837 11.6951 19.0837 10.8331V9.99981V9.99976C19.0835 7.94968 18.3899 5.95993 17.1156 4.35404C15.8412 2.74816 14.0611 1.62059 12.0646 1.15468ZM7.41699 9.99984C7.41699 8.5731 8.57359 7.4165 10.0003 7.4165C11.4271 7.4165 12.5837 8.5731 12.5837 9.99984C12.5837 11.4266 11.4271 12.5832 10.0003 12.5832C8.57359 12.5832 7.41699 11.4266 7.41699 9.99984Z" fill="#575756"/>
</g>
<defs>
<clipPath id="clip0_53955_10059">
<rect width="20" height="20" fill="white"/>
</clipPath>
</defs>
</svg>
