<svg width="20" height="20" viewBox="0 0 20 20" fill="none" xmlns="http://www.w3.org/2000/svg">
<path fill-rule="evenodd" clip-rule="evenodd" d="M10.4832 3.38065C9.45713 2.92894 8.34204 2.71571 7.22172 2.75698C6.1014 2.79826 5.00501 3.09297 4.01499 3.61897C3.02497 4.14496 2.16707 4.88855 1.50579 5.79383C0.844511 6.69911 0.397061 7.74252 0.19708 8.84561C-0.0029011 9.94871 0.0497902 11.0828 0.351192 12.1626C0.652595 13.2424 1.19486 14.2398 1.93723 15.0799C2.21152 15.3903 2.6855 15.4195 2.99588 15.1452C3.30626 14.8709 3.33552 14.397 3.06124 14.0866C2.46901 13.4164 2.03641 12.6207 1.79597 11.7593C1.55552 10.8979 1.51349 9.99319 1.67302 9.11319C1.83256 8.23319 2.18951 7.40081 2.71705 6.67862C3.24459 5.95643 3.92898 5.36323 4.71877 4.94362C5.50857 4.524 6.38321 4.28889 7.27695 4.25597C7.99306 4.22958 8.7065 4.33355 9.38286 4.56129L12.675 7.30982C12.7904 7.51897 12.8931 7.73504 12.9825 7.95684L5.46967 15.4697C5.17678 15.7626 5.17678 16.2374 5.46967 16.5303C5.76256 16.8232 6.23744 16.8232 6.53033 16.5303L13.8216 9.23902C13.8632 9.24619 13.9059 9.24991 13.9492 9.24991L14.9987 9.2499L14.3513 8.70936L14.3515 8.70916L14.9992 9.24991C15.7582 9.25052 16.4953 9.50378 17.0943 9.96976C17.6935 10.4358 18.1203 11.0882 18.3076 11.8238C18.4948 12.5594 18.4317 13.3365 18.1283 14.0323C17.8249 14.7281 17.2984 15.3031 16.6319 15.6664C16.2682 15.8647 16.1341 16.3202 16.3324 16.6839C16.5307 17.0476 16.9862 17.1817 17.3499 16.9834C18.309 16.4605 19.0666 15.6332 19.5033 14.6319C19.9399 13.6306 20.0307 12.5124 19.7612 11.4538C19.4918 10.3952 18.8775 9.45649 18.0153 8.78579C17.2327 8.17701 16.2863 7.82053 15.3013 7.75936L17.5303 5.53033C17.8232 5.23744 17.8232 4.76256 17.5303 4.46967C17.2374 4.17678 16.7626 4.17678 16.4697 4.46967L14.1148 6.82456C13.8514 6.3031 13.5264 5.81293 13.1456 5.36497C12.4195 4.51081 11.5092 3.83237 10.4832 3.38065ZM13.1954 7.74398L12.6747 7.30928C12.4843 6.96448 12.2595 6.63846 12.0028 6.3365C11.4235 5.65509 10.6973 5.11386 9.87879 4.7535C9.71618 4.68192 9.55078 4.61784 9.38309 4.56137L7.22172 2.75698L9.38286 4.56129C9.38294 4.56132 9.38301 4.56134 9.38309 4.56137L12.6747 7.30928C12.6748 7.30946 12.6749 7.30964 12.675 7.30982L13.1952 7.74415L13.1954 7.74398Z" fill="#575756"/>
</svg>
