<svg width="20" height="20" viewBox="0 0 20 20" fill="none" xmlns="http://www.w3.org/2000/svg">
<g clip-path="url(#clip0_53955_10253)">
<path fill-rule="evenodd" clip-rule="evenodd" d="M5.0026 0.916016C4.36166 0.916016 3.74698 1.17063 3.29376 1.62384C2.84055 2.07706 2.58594 2.69174 2.58594 3.33268L2.58593 16.666C2.58593 17.307 2.84055 17.9216 3.29376 18.3749C3.74697 18.8281 4.36166 19.0827 5.0026 19.0827L15.0026 19.0827C15.6435 19.0827 16.2582 18.8281 16.7114 18.3749C17.1647 17.9216 17.4193 17.307 17.4193 16.666L17.4193 6.66602C17.4193 6.46711 17.3403 6.27634 17.1996 6.13569L12.1996 1.13569C12.0589 0.995036 11.8682 0.916017 11.6693 0.916017L11.6641 0.916017L5.0026 0.916016ZM10.9141 2.41602L5.0026 2.41602C4.75949 2.41602 4.52633 2.51259 4.35442 2.6845C4.18251 2.85641 4.08594 3.08957 4.08594 3.33268L4.08593 16.666C4.08593 16.9091 4.18251 17.1423 4.35442 17.3142C4.52633 17.4861 4.75949 17.5827 5.0026 17.5827L15.0026 17.5827C15.2457 17.5827 15.4789 17.4861 15.6508 17.3142C15.8227 17.1423 15.9193 16.9091 15.9193 16.666L15.9193 7.41602L11.6641 7.41602C11.2498 7.41602 10.9141 7.08023 10.9141 6.66602L10.9141 2.41602ZM14.8586 5.91602L12.4141 5.91602L12.4141 3.47147L14.8586 5.91602Z" fill="#575756"/>
</g>
<defs>
<clipPath id="clip0_53955_10253">
<rect width="20" height="20" fill="white"/>
</clipPath>
</defs>
</svg>
