<svg width="20" height="20" viewBox="0 0 20 20" fill="none" xmlns="http://www.w3.org/2000/svg">
<path fill-rule="evenodd" clip-rule="evenodd" d="M7.39844 4.16634C7.39844 4.19897 7.38494 4.23754 7.35414 4.26962C7.32265 4.30242 7.2671 4.33301 7.19844 4.33301C7.12977 4.33301 7.07422 4.30242 7.04274 4.26962C7.01194 4.23754 6.99844 4.19897 6.99844 4.16634C6.99844 4.13371 7.01194 4.09515 7.04274 4.06306C7.07422 4.03027 7.12977 3.99967 7.19844 3.99967C7.2671 3.99967 7.32265 4.03027 7.35414 4.06306C7.38494 4.09515 7.39844 4.13371 7.39844 4.16634ZM7.19844 2.33301C6.16624 2.33301 5.39844 3.19269 5.39844 4.16634C5.39844 5.14 6.16624 5.99967 7.19844 5.99967C8.23063 5.99967 8.99844 5.14 8.99844 4.16634C8.99844 3.19269 8.23063 2.33301 7.19844 2.33301ZM7.39844 10.0003C7.39844 10.033 7.38494 10.0715 7.35414 10.1036C7.32265 10.1364 7.2671 10.167 7.19844 10.167C7.12977 10.167 7.07422 10.1364 7.04274 10.1036C7.01194 10.0715 6.99844 10.033 6.99844 10.0003C6.99844 9.9677 7.01194 9.92913 7.04274 9.89705C7.07422 9.86425 7.12977 9.83366 7.19844 9.83366C7.2671 9.83366 7.32265 9.86425 7.35414 9.89705C7.38494 9.92913 7.39844 9.9677 7.39844 10.0003ZM7.19844 8.16699C6.16624 8.16699 5.39844 9.02667 5.39844 10.0003C5.39844 10.974 6.16624 11.8337 7.19844 11.8337C8.23063 11.8337 8.99844 10.974 8.99844 10.0003C8.99844 9.02667 8.23063 8.16699 7.19844 8.16699ZM7.35414 15.9366C7.38494 15.9045 7.39844 15.866 7.39844 15.8333C7.39844 15.8007 7.38494 15.7621 7.35414 15.7301C7.32265 15.6973 7.2671 15.6667 7.19844 15.6667C7.12977 15.6667 7.07422 15.6973 7.04274 15.7301C7.01194 15.7621 6.99844 15.8007 6.99844 15.8333C6.99844 15.866 7.01194 15.9045 7.04274 15.9366C7.07422 15.9694 7.12977 16 7.19844 16C7.2671 16 7.32265 15.9694 7.35414 15.9366ZM5.39844 15.8333C5.39844 14.8597 6.16624 14 7.19844 14C8.23063 14 8.99844 14.8597 8.99844 15.8333C8.99844 16.807 8.23063 17.6667 7.19844 17.6667C6.16624 17.6667 5.39844 16.807 5.39844 15.8333ZM13 10.0003C13 10.033 12.9865 10.0715 12.9557 10.1036C12.9242 10.1364 12.8687 10.167 12.8 10.167C12.7313 10.167 12.6758 10.1364 12.6443 10.1036C12.6135 10.0715 12.6 10.033 12.6 10.0003C12.6 9.9677 12.6135 9.92913 12.6443 9.89705C12.6758 9.86425 12.7313 9.83366 12.8 9.83366C12.8687 9.83366 12.9242 9.86425 12.9557 9.89705C12.9865 9.92913 13 9.9677 13 10.0003ZM12.8 8.16699C11.7678 8.16699 11 9.02667 11 10.0003C11 10.974 11.7678 11.8337 12.8 11.8337C13.8322 11.8337 14.6 10.974 14.6 10.0003C14.6 9.02667 13.8322 8.16699 12.8 8.16699ZM12.9557 4.26962C12.9865 4.23754 13 4.19897 13 4.16634C13 4.13371 12.9865 4.09515 12.9557 4.06306C12.9242 4.03027 12.8687 3.99967 12.8 3.99967C12.7313 3.99967 12.6758 4.03027 12.6443 4.06306C12.6135 4.09515 12.6 4.13371 12.6 4.16634C12.6 4.19897 12.6135 4.23754 12.6443 4.26962C12.6758 4.30242 12.7313 4.33301 12.8 4.33301C12.8687 4.33301 12.9242 4.30242 12.9557 4.26962ZM11 4.16634C11 3.19269 11.7678 2.33301 12.8 2.33301C13.8322 2.33301 14.6 3.19269 14.6 4.16634C14.6 5.14 13.8322 5.99967 12.8 5.99967C11.7678 5.99967 11 5.14 11 4.16634ZM13 15.8333C13 15.866 12.9865 15.9045 12.9557 15.9366C12.9242 15.9694 12.8687 16 12.8 16C12.7313 16 12.6758 15.9694 12.6443 15.9366C12.6135 15.9045 12.6 15.866 12.6 15.8333C12.6 15.8007 12.6135 15.7621 12.6443 15.7301C12.6758 15.6973 12.7313 15.6667 12.8 15.6667C12.8687 15.6667 12.9242 15.6973 12.9557 15.7301C12.9865 15.7621 13 15.8007 13 15.8333ZM12.8 14C11.7678 14 11 14.8597 11 15.8333C11 16.807 11.7678 17.6667 12.8 17.6667C13.8322 17.6667 14.6 16.807 14.6 15.8333C14.6 14.8597 13.8322 14 12.8 14Z" fill="#575756"/>
</svg>
