<svg width="20" height="22" viewBox="0 0 20 22" fill="none" xmlns="http://www.w3.org/2000/svg">
<path fill-rule="evenodd" clip-rule="evenodd" d="M4.8794 3.92074C6.2404 2.5288 8.08269 1.75 10 1.75C11.9173 1.75 13.7596 2.5288 15.1206 3.92074C16.4822 5.31325 17.25 7.20541 17.25 9.18182C17.25 12.0685 15.4187 14.8421 13.4498 16.9676C12.4797 18.0149 11.5071 18.8716 10.7764 19.4667C10.4668 19.7188 10.2017 19.9231 10 20.0742C9.79825 19.9231 9.53316 19.7188 9.22361 19.4667C8.49287 18.8716 7.52033 18.0149 6.55021 16.9676C4.5813 14.8421 2.75 12.0685 2.75 9.18182C2.75 7.20541 3.51784 5.31324 4.8794 3.92074ZM9.57708 21.6194C9.5773 21.6195 9.5775 21.6197 10 21L9.5775 21.6197C9.83236 21.7934 10.1676 21.7934 10.4225 21.6197L10 21C10.4225 21.6197 10.4227 21.6195 10.4229 21.6194L10.4235 21.619L10.4253 21.6178L10.431 21.6139L10.4508 21.6001C10.4678 21.5883 10.4921 21.5713 10.5234 21.5492C10.5858 21.505 10.6758 21.4404 10.7894 21.3565C11.0165 21.1887 11.3384 20.9436 11.7236 20.6298C12.4929 20.0034 13.5203 19.0987 14.5502 17.9869C16.5813 15.7943 18.75 12.6588 18.75 9.18182C18.75 6.81832 17.8321 4.54833 16.1931 2.87206C14.5535 1.19522 12.3262 0.25 10 0.25C7.67385 0.25 5.44647 1.19522 3.80689 2.87206C2.16787 4.54833 1.25 6.81832 1.25 9.18182C1.25 12.6588 3.4187 15.7943 5.44979 17.9869C6.47967 19.0987 7.50713 20.0034 8.27639 20.6298C8.6616 20.9436 8.98354 21.1887 9.21065 21.3565C9.32424 21.4404 9.41422 21.505 9.47664 21.5492C9.50786 21.5713 9.5322 21.5883 9.54917 21.6001L9.56904 21.6139L9.57472 21.6178L9.57647 21.619L9.57708 21.6194ZM7.75 9C7.75 7.75736 8.75736 6.75 10 6.75C11.2426 6.75 12.25 7.75736 12.25 9C12.25 10.2426 11.2426 11.25 10 11.25C8.75736 11.25 7.75 10.2426 7.75 9ZM10 5.25C7.92893 5.25 6.25 6.92893 6.25 9C6.25 11.0711 7.92893 12.75 10 12.75C12.0711 12.75 13.75 11.0711 13.75 9C13.75 6.92893 12.0711 5.25 10 5.25Z" fill="#575756"/>
</svg>
