<svg width="20" height="20" viewBox="0 0 20 20" fill="none" xmlns="http://www.w3.org/2000/svg">
<path d="M3.51454 11.2722L3.49758 11.2676C3.48061 11.2628 3.45271 11.2548 3.41544 11.243C3.34074 11.2195 3.2294 11.1816 3.09376 11.1267C2.82032 11.0161 2.45988 10.8414 2.10405 10.586C1.40014 10.0806 0.75 9.2935 0.75 8.04022C0.75 5.73687 2.53286 3.92383 4.66667 3.92383C6.79362 3.92383 8.58333 5.80002 8.58333 8.04022C8.58333 11.722 7.17704 13.9656 5.81056 15.2939C5.19264 15.8946 4.57497 16.3152 4.08333 16.5956L4.08333 12C4.08333 11.6555 3.84863 11.3553 3.51435 11.2722L3.51454 11.2722ZM3.51454 11.2722L3.51487 11.2723L3.51569 11.2725L3.51636 11.2727C3.51614 11.2726 3.51553 11.2725 3.51454 11.2722Z" stroke="#575756" stroke-width="1.5" stroke-linejoin="round"/>
<path d="M14.1825 11.2722L14.1655 11.2676C14.1486 11.2628 14.1207 11.2548 14.0834 11.243C14.0087 11.2195 13.8974 11.1816 13.7617 11.1267C13.4883 11.0161 13.1278 10.8414 12.772 10.586C12.0681 10.0806 11.418 9.2935 11.418 8.04022C11.418 5.73687 13.2008 3.92383 15.3346 3.92383C17.4616 3.92383 19.2513 5.80002 19.2513 8.04022C19.2513 11.722 17.845 13.9656 16.4785 15.2939C15.8606 15.8946 15.2429 16.3152 14.7513 16.5956L14.7513 12C14.7513 11.6555 14.5166 11.3553 14.1823 11.2722L14.1825 11.2722ZM14.1825 11.2722L14.1828 11.2723L14.1837 11.2725L14.1843 11.2727C14.1841 11.2726 14.1835 11.2725 14.1825 11.2722Z" stroke="#575756" stroke-width="1.5" stroke-linejoin="round"/>
</svg>
