<svg width="20" height="20" viewBox="0 0 20 20" fill="none" xmlns="http://www.w3.org/2000/svg">
<path d="M17.8705 9.2081L10.2122 16.8664C9.27395 17.8046 8.00148 18.3317 6.67466 18.3317C5.34784 18.3317 4.07536 17.8046 3.13716 16.8664C2.19895 15.9282 1.67188 14.6558 1.67188 13.3289C1.67188 12.0021 2.19895 10.7296 3.13716 9.79144L10.7955 2.1331C11.421 1.50763 12.2693 1.15625 13.1538 1.15625C14.0384 1.15625 14.8867 1.50763 15.5122 2.1331C16.1376 2.75857 16.489 3.60689 16.489 4.49144C16.489 5.37598 16.1376 6.2243 15.5122 6.84977L7.84549 14.5081C7.53275 14.8208 7.1086 14.9965 6.66632 14.9965C6.22405 14.9965 5.79989 14.8208 5.48716 14.5081C5.17442 14.1954 4.99873 13.7712 4.99873 13.3289C4.99873 12.8867 5.17442 12.4625 5.48716 12.1498L12.5622 5.0831" stroke="#575756" stroke-width="1.447" stroke-linecap="round" stroke-linejoin="round"/>
</svg>
