<?xml version="1.0" encoding="UTF-8"?>
<svg id="Layer_1" xmlns="http://www.w3.org/2000/svg" version="1.1" viewBox="0 0 50 50">
  <!-- Generator: Adobe Illustrator 29.1.0, SVG Export Plug-In . SVG Version: 2.1.0 Build 142)  -->
  <defs>
    <style>
      .st0 {
        fill: #575756;
      }
    </style>
  </defs>
  <path class="st0" d="M32,7h-14c-5.5,0-10,4.5-10,10v16c0,5.5,4.5,10,10,10h14c5.5,0,10-4.5,10-10v-16c0-5.5-4.5-10-10-10ZM40,33c0,4.4-3.6,8-8,8h-14c-4.4,0-8-3.6-8-8v-16c0-4.4,3.6-8,8-8h14c4.4,0,8,3.6,8,8v16Z"/>
  <path class="st0" d="M32.5,16h-15c-.6,0-1,.4-1,1s.4,1,1,1h15c.6,0,1-.4,1-1s-.4-1-1-1Z"/>
  <path class="st0" d="M32.5,24h-15c-.6,0-1,.4-1,1s.4,1,1,1h15c.6,0,1-.4,1-1s-.4-1-1-1Z"/>
  <path class="st0" d="M32.5,32h-15c-.6,0-1,.4-1,1s.4,1,1,1h15c.6,0,1-.4,1-1s-.4-1-1-1Z"/>
</svg>